<?xml version="1.0" encoding="utf-8"?>
<!-- Generator: Adobe Illustrator 21.0.0, SVG Export Plug-In . SVG Version: 6.00 Build 0)  -->
<svg version="1.1" id="Capa_1" xmlns="http://www.w3.org/2000/svg" xmlns:xlink="http://www.w3.org/1999/xlink" x="0px" y="0px"
	 viewBox="0 0 475.1 475.1" style="enable-background:new 0 0 475.1 475.1;" xml:space="preserve">
<style type="text/css">
	.st0{fill:#FFFFFF;}
</style>
<g>
	<path class="st0" d="M400,97.7c0-26.9-17.4-51.8-49.1-70.3C320.5,9.7,280.2,0,237.5,0s-83,9.7-113.4,27.4
		C92.5,45.9,75,70.8,75,97.7c0,13.9,4.7,27.3,13.6,39.5v248.1c0,24.8,16,47.7,45.2,64.7c27.8,16.2,64.7,25.1,103.8,25.1
		s76-8.9,103.8-25.1c29.1-16.9,45.2-39.9,45.2-64.7V137.2C395.4,125,400,111.6,400,97.7z M131.7,40.4C159.8,24,197.4,15,237.5,15
		c40.1,0,77.7,9,105.8,25.4C370.2,56,385,76.4,385,97.7s-14.8,41.7-41.7,57.3c-28.1,16.4-65.7,25.4-105.8,25.4
		c-40.1,0-77.7-9-105.8-25.4C104.8,139.4,90,119,90,97.7S104.8,56,131.7,40.4z M333.8,437c-25.6,14.9-59.8,23.1-96.3,23.1
		s-70.7-8.2-96.3-23.1c-24.3-14.1-37.7-32.5-37.7-51.7V153.4c6,5.2,12.9,10.1,20.6,14.6c30.4,17.7,70.7,27.4,113.4,27.4
		c42.7,0,83-9.7,113.4-27.4c7.7-4.5,14.6-9.4,20.6-14.6v231.9C371.5,404.5,358.1,422.8,333.8,437z"/>
	<path class="st0" d="M145.8,194.1l-8.1-4.7c-3.7-2.2-8.4-2.2-12.1,0c-3.7,2.2-6.1,6.2-6.1,10.5l0,188.1c0,7.7,4.2,14.9,10.8,18.8
		l8.1,4.7c1.9,1.1,4,1.6,6.1,1.6c2.1,0,4.2-0.5,6.1-1.6c3.7-2.2,6.1-6.2,6.1-10.5V212.9C156.6,205.2,152.4,198,145.8,194.1z
		 M141.6,396l-3.8-2.2c-2.1-1.2-3.3-3.4-3.3-5.8l0-183.1l3.8,2.2c2.1,1.2,3.3,3.4,3.3,5.8V396z"/>
	<path class="st0" d="M349.5,189.4c-3.7-2.2-8.4-2.2-12.1,0l-8.1,4.7c-6.7,3.9-10.8,11.1-10.8,18.8v188.1c0,4.3,2.3,8.3,6.1,10.5
		c1.9,1.1,4,1.6,6.1,1.6c2.1,0,4.2-0.5,6.1-1.6l8.1-4.7c6.7-3.9,10.8-11,10.8-18.8l0-188.1C355.6,195.6,353.3,191.6,349.5,189.4z
		 M340.6,388c0,2.4-1.3,4.6-3.3,5.8l-3.8,2.2V212.9c0-2.4,1.3-4.6,3.3-5.8l3.8-2.2L340.6,388z"/>
	<path class="st0" d="M237.5,210c-16.3,0-29.6,13.3-29.6,29.6l0,160c0,16.3,13.3,29.6,29.6,29.6c0,0,0,0,0,0
		c7.9,0,15.3-3.1,20.9-8.7c5.6-5.6,8.7-13,8.7-20.9v-160C267.1,223.3,253.9,210,237.5,210z M252.1,399.6c0,3.9-1.5,7.6-4.3,10.3
		c-2.8,2.8-6.4,4.3-10.3,4.3c0,0,0,0,0,0c-8.1,0-14.6-6.6-14.6-14.6l0,0l0-160c0-8.1,6.6-14.6,14.6-14.6c8.1,0,14.6,6.6,14.6,14.6
		L252.1,399.6L252.1,399.6z"/>
	<path class="st0" d="M182.3,122.8c4.1,0,7.5-3.4,7.5-7.5V98.5c0-6.9,3.7-13.4,9.7-16.8l80-46.2c1.8-1,3.3-0.3,3.9,0
		c0.6,0.3,1.9,1.3,1.9,3.4v12.7c0,4.1,3.4,7.5,7.5,7.5s7.5-3.4,7.5-7.5V38.8c0-6.8-3.5-12.9-9.4-16.4c-5.9-3.4-13-3.4-18.9,0
		l-80,46.2c-10.6,6.1-17.2,17.6-17.2,29.8v16.8C174.8,119.5,178.1,122.8,182.3,122.8z"/>
</g>
</svg>
