<?xml version="1.0" encoding="utf-8"?>
<!-- Generator: Adobe Illustrator 21.0.0, SVG Export Plug-In . SVG Version: 6.00 Build 0)  -->
<svg version="1.1" id="Capa_1" xmlns="http://www.w3.org/2000/svg" xmlns:xlink="http://www.w3.org/1999/xlink" x="0px" y="0px"
	 viewBox="0 0 488.2 488.2" style="enable-background:new 0 0 488.2 488.2;" xml:space="preserve">
<style type="text/css">
	.st0{fill:#FFFFFF;}
</style>
<g>
	<g>
		<g>
			<path class="st0" d="M80.2,356.1c-26.5,0-48,21.5-48,48s21.5,48,48,48s48-21.5,48-48C128.1,377.6,106.7,356.1,80.2,356.1z
				 M80.2,436.1c-17.7,0-32-14.3-32-32s14.3-32,32-32s32,14.3,32,32S97.8,436.1,80.2,436.1z"/>
			<path class="st0" d="M480.2,420.1h-43.7l-28.3-42.4V236.1c0-4.4-3.6-8-8-8v-192c0-17.7-14.3-32-32-32h-248c-17.7,0-32,14.3-32,32
				v104h-8c-4.4,0-8,3.6-8,8v176.4c-44,4.3-76.1,43.5-71.8,87.5s43.5,76.1,87.5,71.8c22.3-2.2,42.7-13.7,56.2-31.6h0.1h96
				c22.1,0,40-17.9,40-40v-72h24c4.4,0,8-3.6,8-8v-32c0-4.4-3.6-8-8-8h-24v-16c-0.1-48.6-39.4-87.9-88-88h-40v-40c0-4.4-3.6-8-8-8
				h-8v-88h216v176c-4.4,0-8,3.6-8,8v144c0,0.1,0,0.1,0,0.2c0,0.9,0.2,1.8,0.5,2.7c0.1,0.2,0.2,0.4,0.3,0.6c0.1,0.3,0.3,0.6,0.5,0.9
				l23.7,35.6h-49.1c-4.4,0-8,3.6-8,8v48c0,4.4,3.6,8,8,8s8-3.6,8-8v-8h16v8c0,4.4,3.6,8,8,8s8-3.6,8-8v-8h16v8c0,4.4,3.6,8,8,8
				s8-3.6,8-8v-8h16v8c0,4.4,3.6,8,8,8s8-3.6,8-8v-8h16v8c0,4.4,3.6,8,8,8s8-3.6,8-8v-8h16v8c0,4.4,3.6,8,8,8s8-3.6,8-8v-48
				C488.2,423.6,484.6,420.1,480.2,420.1z M280.2,308.1h16v16h-16V308.1z M88.2,156.1h48v32h-48C88.2,188.1,88.2,156.1,88.2,156.1z
				 M80.2,468.1c-35.3,0-64-28.7-64-64s28.7-64,64-64s64,28.7,64,64C144.1,439.4,115.5,468,80.2,468.1z M264.2,332.1v80
				c0,13.3-10.7,24-24,24h-86.7c17.7-40.4-0.7-87.5-41.1-105.3c-7.7-3.4-15.8-5.5-24.2-6.3v-16.4h176V332.1z M144.2,204.1h48
				c39.7,0,72,32.3,72,72v16h-176v-88H144.2z M128.2,36.1c-4.4,0-8,3.6-8,8v96h-16v-104c0-8.8,7.2-16,16-16h248c8.8,0,16,7.2,16,16
				v192h-16v-184c0-4.4-3.6-8-8-8C360.2,36.1,128.2,36.1,128.2,36.1z M360.2,244.1h32v128h-32V244.1z M367.1,388.1h28.8l21.3,32
				h-28.8L367.1,388.1z M472.2,452.1h-144v-16h144V452.1z"/>
			<rect x="104.2" y="260.1" class="st0" width="16" height="16"/>
			<rect x="136.2" y="260.1" class="st0" width="16" height="16"/>
		</g>
	</g>
</g>
</svg>
