<?xml version="1.0" encoding="utf-8"?>
<!-- Generator: Adobe Illustrator 21.0.0, SVG Export Plug-In . SVG Version: 6.00 Build 0)  -->
<svg version="1.1" id="Capa_1" xmlns="http://www.w3.org/2000/svg" xmlns:xlink="http://www.w3.org/1999/xlink" x="0px" y="0px"
	 viewBox="0 0 368 368" style="enable-background:new 0 0 368 368;" xml:space="preserve">
<style type="text/css">
	.st0{fill:#FFFFFF;}
</style>
<g>
	<g>
		<g>
			<path class="st0" d="M184,320c57.3,0,104-46.7,104-104s-46.7-104-104-104S80,158.7,80,216S126.7,320,184,320z M184,128
				c48.5,0,88,39.5,88,88s-39.5,88-88,88s-88-39.5-88-88S135.5,128,184,128z"/>
			<path class="st0" d="M184,272c30.9,0,56-25.1,56-56s-25.1-56-56-56c-30.9,0-56,25.1-56,56S153.1,272,184,272z M184,176
				c22.1,0,40,17.9,40,40s-17.9,40-40,40s-40-17.9-40-40S161.9,176,184,176z"/>
			<path class="st0" d="M312,0H56C42.8,0,32,10.8,32,24v320c0,13.2,10.8,24,24,24h256c13.2,0,24-10.8,24-24V24
				C336,10.8,325.2,0,312,0z M48,24c0-4.4,3.6-8,8-8h40v48H48V24z M320,344c0,4.4-3.6,8-8,8H56c-4.4,0-8-3.6-8-8V80h272V344z
				 M320,64H112V16h200c4.4,0,8,3.6,8,8V64z"/>
		</g>
	</g>
</g>
</svg>
