<svg id="Layer_1" data-name="Layer 1" xmlns="http://www.w3.org/2000/svg" viewBox="0 0 511 463.05"><defs><style>.cls-1{fill:#1a4ad6;}.cls-2,.cls-5{fill:#fff;}.cls-2{opacity:0.2;}.cls-3{fill:#e7e7e7;}.cls-4{fill:#eceff1;}.cls-6{fill:#c4cccf;}.cls-7{fill:#d30214;}</style></defs><title>book6</title><path class="cls-1" d="M478.53,256.47c0,123.73-100.3,224-224,224s-224-100.31-224-224,100.3-224,224-224S478.53,132.74,478.53,256.47Z" transform="translate(1 -24.95)"/><path class="cls-2" d="M478.53,256.47c0,123.73-100.3,224-224,224a223.62,223.62,0,0,1-65.83-9.84A225.8,225.8,0,0,0,218,472.58c123.73,0,224-100.3,224-224,0-100.82-66.6-186.07-158.2-214.2C393.73,48.74,478.53,142.7,478.53,256.47Z" transform="translate(1 -24.95)"/><path class="cls-3" d="M491.45,313.07H17.56A11.06,11.06,0,0,1,6.5,302V234.57A11.07,11.07,0,0,1,17.56,223.5H491.45a11.07,11.07,0,0,1,11.06,11.07V302A11.06,11.06,0,0,1,491.45,313.07Z" transform="translate(1 -24.95)"/><path class="cls-4" d="M491.45,313.42H404.36V222.51h87.09a11.06,11.06,0,0,1,11.06,11.06v68.78A11.06,11.06,0,0,1,491.45,313.42Z" transform="translate(1 -24.95)"/><path class="cls-5" d="M456.79,247.13l4.49,9.08a3.75,3.75,0,0,0,2.82,2.05l10,1.46a3.75,3.75,0,0,1,2.07,6.4L469,273.19a3.75,3.75,0,0,0-1.07,3.32l1.71,10a3.75,3.75,0,0,1-5.44,3.95l-9-4.72a3.78,3.78,0,0,0-3.49,0l-9,4.72a3.75,3.75,0,0,1-5.44-3.95l1.71-10a3.75,3.75,0,0,0-1.08-3.32l-7.26-7.07a3.76,3.76,0,0,1,2.08-6.4l10-1.46a3.77,3.77,0,0,0,2.83-2.05l4.48-9.08A3.74,3.74,0,0,1,456.79,247.13Z" transform="translate(1 -24.95)"/><path class="cls-6" d="M491.45,313.07H477.94V223.51h13.51a11.06,11.06,0,0,1,11.06,11.06V302A11.06,11.06,0,0,1,491.45,313.07Z" transform="translate(1 -24.95)"/><path d="M491.45,215h-9.13A231.56,231.56,0,0,0,90.79,92.76,229.89,229.89,0,0,0,26.5,216H17.56A18.59,18.59,0,0,0-1,234.57V302a18.59,18.59,0,0,0,18.56,18.56H32a231.43,231.43,0,0,0,71.67,111.59,7.49,7.49,0,0,0,9.76-11.37,217.14,217.14,0,0,1-24.7-25,286.61,286.61,0,0,1,35-12.07,248.82,248.82,0,0,0,18.85,28.52,292,292,0,0,0,50.86,52,214.54,214.54,0,0,1-43.94-18.35,7.49,7.49,0,1,0-7.28,13.1A231.73,231.73,0,0,0,477,320.91h14.49A18.57,18.57,0,0,0,510,302.35V233.57A18.58,18.58,0,0,0,491.45,215Zm-24.38,0H414.94c-.62-3.88-1.31-7.76-2.11-11.64A264.42,264.42,0,0,0,392.06,142c1.38-.38,2.77-.75,4.14-1.14a286.45,286.45,0,0,0,33.62-11.54A214.24,214.24,0,0,1,467.07,215Zm-67.15,1H322.49q-.37-5.62-.86-11.26c-1.49-16.77-3.68-33-6.5-48.52a485.67,485.67,0,0,0,62.12-10.45,249,249,0,0,1,20.9,60.63C398.81,209.61,399.39,212.81,399.92,216Zm7.7-112.65q6.61,6.61,12.58,13.7a286.72,286.72,0,0,1-28.12,9.37q-3.52,1-7.08,1.95a263.49,263.49,0,0,0-15.64-24.73A257.66,257.66,0,0,0,316.49,48.9,215.47,215.47,0,0,1,407.62,103.36Zm-130-62.2a243.6,243.6,0,0,1,79.56,71.2q6.84,9.6,12.71,19.75a475.11,475.11,0,0,1-57.68,9.37c-8.68-40.39-21.81-75.18-38.27-100.67C275.16,40.91,276.39,41,277.61,41.16ZM254.5,39.94h.55c18.2,24,32.76,59.92,42.14,102.84q-24,1.72-49.17,1.38c-11.37-.16-23.55-.52-36.22-1.29C221.17,99.91,235.74,64,254,39.94Zm-19.42.87c-16.5,25.55-29.66,60.44-38.34,100.95a429.69,429.69,0,0,1-58.1-8.83q6.08-10.56,13.2-20.58A243.58,243.58,0,0,1,231.4,41.16C232.62,41,233.85,40.91,235.08,40.81ZM193.82,156.55c-2.8,15.42-5,31.55-6.44,48.2-.33,3.75-.61,7.51-.87,11.26H109.08c.53-3.2,1.11-6.4,1.77-9.6a249.68,249.68,0,0,1,20.49-59.79A435.39,435.39,0,0,0,193.82,156.55Zm-92.43-53.19A215.38,215.38,0,0,1,192.51,48.9a257.66,257.66,0,0,0-52.87,54.75,263.26,263.26,0,0,0-16.06,25.5,288,288,0,0,1-34.82-12Q94.75,110,101.39,103.36Zm-22.21,26a296.42,296.42,0,0,0,37.4,13.42,264,264,0,0,0-20.4,60.64c-.87,4.21-1.62,8.43-2.28,12.64H41.74A214.21,214.21,0,0,1,79.18,129.31ZM17.56,305.58A3.57,3.57,0,0,1,14,302V234.57A3.57,3.57,0,0,1,17.56,231h216.3a7.5,7.5,0,0,0,0-15H201.53c.23-3.31.49-6.63.78-9.94,1.48-16.77,3.68-32.95,6.52-48.37,13.67.88,26.77,1.27,39,1.44,2.95,0,5.9.07,8.84.07q22.17,0,43.51-1.63c2.84,15.45,5,31.68,6.54,48.49.29,3.31.55,6.63.78,9.94H280.64a7.5,7.5,0,0,0,0,15H396.86v74.58Zm377.51,15a238.38,238.38,0,0,1-17.87,46.59,485.24,485.24,0,0,0-62-10.45c2.15-11.71,3.92-23.79,5.28-36.13h74.59Zm-89.65,0c-1.35,11.91-3.09,23.54-5.2,34.82q-25.59-2-52.41-1.58c-12.24.18-25.36.57-39.05,1.45-2.1-11.24-3.83-22.83-5.18-34.69ZM79.23,383.62a216.31,216.31,0,0,1-31.56-63.06H98.48a253.35,253.35,0,0,0,18.1,49.66A296.05,296.05,0,0,0,79.23,383.62ZM114,320.56h74.56c1.35,12.25,3.11,24.23,5.24,35.85a434.75,434.75,0,0,0-62.37,9.9A238.06,238.06,0,0,1,114,320.56ZM231.32,471.74c-28-15.79-54.6-39.48-76.85-68.57A230.83,230.83,0,0,1,138.85,380a432,432,0,0,1,57.85-8.77,387.22,387.22,0,0,0,10.52,38.89c6,18,15.35,42.12,28,62.05C233.89,472,232.61,471.88,231.32,471.74ZM254.5,473H254c-11.8-15.63-23-38.95-32.51-67.63-3.68-11.14-6.9-23-9.65-35.29,12.68-.77,24.85-1.13,36.22-1.29q25.14-.36,49.16,1.38c-2.74,12.3-6,24.09-9.63,35.2-9.48,28.68-20.7,52-32.5,67.63Zm19.31-.86c12.61-19.93,22-44,28-62.07a384.81,384.81,0,0,0,10.46-38.6,475.24,475.24,0,0,1,57.43,9.31,233,233,0,0,1-15.13,22.38c-22.28,29.12-48.87,52.82-76.93,68.62C276.34,471.92,275.08,472,273.81,472.15Zm133.81-62.56a215.43,215.43,0,0,1-92.19,54.76,291.79,291.79,0,0,0,51-52.07,247.43,247.43,0,0,0,18.4-27.75q3.65,1,7.24,2a291.94,291.94,0,0,1,28.1,9.37C416.2,400.6,412,405.18,407.62,409.59Zm22.17-25.95a284.11,284.11,0,0,0-33.59-11.53c-1.37-.4-2.76-.76-4.14-1.14a254.19,254.19,0,0,0,18.38-50.06h50.85A214,214,0,0,1,429.79,383.64ZM495,302a3.58,3.58,0,0,1-3.57,3.57h-79.6V231h79.6a3.58,3.58,0,0,1,3.57,3.57Z" transform="translate(1 -24.95)"/><path class="cls-7" d="M475.21,252.31l-8.08-1.18-3.61-7.32a11.25,11.25,0,0,0-20.17,0l-3.61,7.32-8.08,1.18a11.23,11.23,0,0,0-6.23,19.17l5.84,5.7-1.38,8.05a11.25,11.25,0,0,0,16.32,11.86l7.22-3.8,7.23,3.8a11.18,11.18,0,0,0,11.84-.86,11.17,11.17,0,0,0,4.47-11l-1.38-8.05,5.85-5.7a11.23,11.23,0,0,0-6.23-19.17Zm-11.49,15.52a11.28,11.28,0,0,0-3.23,9.95l.43,2.51-2.25-1.18a11.21,11.21,0,0,0-10.47,0l-2.26,1.18.43-2.51a11.22,11.22,0,0,0-3.23-9.95l-1.82-1.78,2.52-.37a11.25,11.25,0,0,0,8.47-6.15l1.12-2.29,1.13,2.29a11.25,11.25,0,0,0,8.47,6.15l2.52.37Z" transform="translate(1 -24.95)"/><path d="M55.71,282.78c0,1.11-1.67,2.27-3.6,2.27-2.11,0-3.55-1.16-3.55-2.27V245.63c0-1.33,1.44-2.22,3.55-2.22,1.93,0,3.6.89,3.6,2.22v17a7.57,7.57,0,0,1,7-4.21c5.09,0,9.52,5.1,9.52,11.24v13.12c0,1.5-1.82,2.27-3.6,2.27s-3.54-.77-3.54-2.27V269.66a5.11,5.11,0,0,0-4.81-5,4.71,4.71,0,0,0-4.55,5v13.12Z" transform="translate(1 -24.95)"/><path d="M87.93,276.08c0,2.16.78,2.94,3.1,2.94h2.16a3,3,0,1,1,0,6H91c-6.64,0-10.24-2.71-10.24-9V249.23c0-1.33,1.88-2.21,3.55-2.21s3.59.88,3.59,2.21v9.52h6.54c1.16,0,1.82,1.33,1.82,2.61s-.66,2.6-1.82,2.6H87.93v12.12Z" transform="translate(1 -24.95)"/><path d="M110.47,276.08c0,2.16.77,2.94,3.1,2.94h2.16a3,3,0,1,1,0,6h-2.16c-6.65,0-10.24-2.71-10.24-9V249.23c0-1.33,1.88-2.21,3.54-2.21,1.83,0,3.6.88,3.6,2.21v9.52H117c1.16,0,1.83,1.33,1.83,2.61s-.67,2.6-1.83,2.6h-6.53Z" transform="translate(1 -24.95)"/><path d="M132.67,261v1.66a8.7,8.7,0,0,1,7.47-4.21c5.54,0,9.91,5.1,9.91,11.24v4.54c0,5.92-4.53,11.35-9.68,11.35a8.22,8.22,0,0,1-7.26-4.37V295c0,1.16-1.66,2.27-3.65,2.27S126,296.18,126,295V261c0-1.33,1.5-2.22,3.38-2.22S132.67,259.64,132.67,261Zm10.24,8.69a5.2,5.2,0,0,0-5-5,4.84,4.84,0,0,0-4.76,5v5.54c0,1.16,2,4.09,4.87,4.09a5.27,5.27,0,0,0,4.93-5.09Z" transform="translate(1 -24.95)"/><path d="M170.38,277.74c0-4.87-13.12-1.82-13.12-11.07,0-3.93,2.49-8.25,9.91-8.25,4.48,0,8.8,1.55,8.8,3.6,0,1-.94,3.43-2.6,3.43-1.33,0-3.05-1.6-6.09-1.6-2.77,0-3.88,1.38-3.88,2.49,0,4,13.29,1.27,13.29,11.12,0,4.94-3.65,8.09-10.19,8.09-5.64,0-10-2.33-10-4.76,0-1.17,1-3.16,2.38-3.16,1.61,0,2.83,2.49,7.48,2.49C169.6,280.12,170.38,278.85,170.38,277.74Z" transform="translate(1 -24.95)"/><path d="M191.36,265.45a3.83,3.83,0,0,1-3.7,3.77,3.77,3.77,0,0,1-3.77-3.77,3.73,3.73,0,0,1,3.77-3.76A3.78,3.78,0,0,1,191.36,265.45Zm0,16.17a3.82,3.82,0,0,1-3.7,3.76,3.77,3.77,0,1,1,3.7-3.76Z" transform="translate(1 -24.95)"/><path d="M223,244.86a2.22,2.22,0,0,1-.22,1l-19.88,40.2a2.41,2.41,0,0,1-2.16,1.22,2.58,2.58,0,0,1-2.66-2.44,1.94,1.94,0,0,1,.28-.94l19.87-40.36a2.16,2.16,0,0,1,2-1.16A2.68,2.68,0,0,1,223,244.86Z" transform="translate(1 -24.95)"/><path d="M239.7,244.86a2.22,2.22,0,0,1-.22,1l-19.88,40.2a2.39,2.39,0,0,1-2.15,1.22,2.58,2.58,0,0,1-2.66-2.44,1.93,1.93,0,0,1,.27-.94l19.88-40.36a2.15,2.15,0,0,1,2-1.16A2.68,2.68,0,0,1,239.7,244.86Z" transform="translate(1 -24.95)"/><path d="M271.71,284.38c-.39.95-1.61,1.28-2.83,1.28-1.38,0-2.6-.44-2.93-1.28l-4.27-12.07-4.2,12c-.33.89-1.66,1.33-3.05,1.33-1.16,0-2.38-.33-2.77-1.33l-8.52-21.87a2.28,2.28,0,0,1-.28-1c0-1.72,2.77-2.94,4.65-2.94a2,2,0,0,1,2.05,1.17l5.54,15.72,4.15-13.68c.39-1.27,1.33-1.44,2.43-1.44s2.05.17,2.44,1.44l4.1,13.73,5.59-15.77a2.06,2.06,0,0,1,2.05-1.17c1.77,0,4.6,1.22,4.6,3a2,2,0,0,1-.23,1Z" transform="translate(1 -24.95)"/><path d="M313.4,284.38c-.39.95-1.6,1.28-2.82,1.28-1.39,0-2.6-.44-2.94-1.28l-4.26-12.07-4.21,12c-.33.89-1.66,1.33-3.05,1.33-1.16,0-2.37-.33-2.76-1.33l-8.53-21.87a2.28,2.28,0,0,1-.28-1c0-1.72,2.77-2.94,4.65-2.94a2,2,0,0,1,2.05,1.17l5.54,15.72,4.15-13.68c.39-1.27,1.33-1.44,2.44-1.44s2.05.17,2.43,1.44l4.1,13.73,5.59-15.77a2.07,2.07,0,0,1,2.05-1.17c1.77,0,4.6,1.22,4.6,3a2.1,2.1,0,0,1-.22,1Z" transform="translate(1 -24.95)"/><path d="M355.09,284.38c-.38.95-1.6,1.28-2.82,1.28-1.38,0-2.6-.44-2.93-1.28l-4.26-12.07-4.22,12c-.33.89-1.66,1.33-3,1.33-1.16,0-2.38-.33-2.77-1.33l-8.52-21.87a2.16,2.16,0,0,1-.28-1c0-1.72,2.77-2.94,4.65-2.94a2,2,0,0,1,2.05,1.17l5.54,15.72,4.15-13.68c.38-1.27,1.32-1.44,2.43-1.44s2.05.17,2.44,1.44l4.1,13.73,5.59-15.77a2.05,2.05,0,0,1,2.05-1.17c1.77,0,4.59,1.22,4.59,3a2,2,0,0,1-.22,1Z" transform="translate(1 -24.95)"/></svg>