<svg id="Layer_1" data-name="Layer 1" xmlns="http://www.w3.org/2000/svg" viewBox="0 0 512 457.23"><defs><style>.cls-1{fill:#c4cccf;}.cls-2{fill:#eceff1;}.cls-3{fill:#1a4ad6;}.cls-4{fill:#fff;opacity:0.2;}.cls-5{fill:#d30214;}</style></defs><title>book2</title><path class="cls-1" d="M494.2,378.31,321.72,465.76a70,70,0,0,1-75.46-.2c-10.71-6.9-14.06-7.57-70.36-35.4-25-12.24-47.8-16.14-84.94-20.71v-108H214.14a28.81,28.81,0,0,1,20.38,8.45l55.41,55.39a25.24,25.24,0,0,1,7.39,18.51l1.18-.81,180.79-45.52C503.25,334.41,514,365.75,494.2,378.31Z" transform="translate(0 -27)"/><path class="cls-2" d="M290.62,399.89a24.41,24.41,0,0,1-34.85.3l-46.06-46.08a13.12,13.12,0,0,0-9.28-3.84H91V301.41H214.14a28.79,28.79,0,0,1,20.38,8.45c1.7,1.69-11.23-11.24,55.41,55.39C299.33,374.65,300,390.18,290.62,399.89Z" transform="translate(0 -27)"/><path class="cls-3" d="M97.12,282.1V448.3a14.22,14.22,0,0,1-14.19,14.17H21.71A14.21,14.21,0,0,1,7.53,448.3V282.1a14.23,14.23,0,0,1,14.18-14.19H82.93A14.24,14.24,0,0,1,97.12,282.1Z" transform="translate(0 -27)"/><path class="cls-4" d="M97.12,282.1V425.59H61.17A14.23,14.23,0,0,1,47,411.41V267.91H82.93A14.24,14.24,0,0,1,97.12,282.1Z" transform="translate(0 -27)"/><path class="cls-5" d="M415.59,150.45c-28.89,0-44.8,14.6-44.8,41.12v45.27c0,26.53,15.91,41.13,44.8,41.13s44.8-14.6,44.8-41.13V191.57C460.39,165.05,444.48,150.45,415.59,150.45Zm15.76,86.39c0,9.91-5,14.53-15.76,14.53s-15.45-4.49-15.45-14.53V191.57c0-10,4.77-14.52,15.45-14.52s15.76,4.61,15.76,14.52Z" transform="translate(0 -27)"/><path class="cls-5" d="M240.23,46.46A66.25,66.25,0,0,0,225,48.09c-19.17,4.47-29.52,18.11-29.52,39.5v45.26c0,26.53,15.91,41.14,44.8,41.14,20.24,0,34.1-7.17,40.6-20.57,2.78-5.73,4.21-12.62,4.21-20.57V87.59C285,61.07,269.12,46.46,240.23,46.46ZM256,132.85c0,9.92-5,14.54-15.76,14.54s-15.44-4.48-15.44-14.54V87.59c0-6.91,2.25-11.18,7.12-13.18a22,22,0,0,1,8.32-1.35C251,73.06,256,77.68,256,87.59Z" transform="translate(0 -27)"/><path class="cls-5" d="M399.93,49.66a16.36,16.36,0,0,1-1.16,6.21l-.12.27L331.19,190.68,286.4,280c-2.35,4.71-7.67,7.75-13.53,7.75a15.35,15.35,0,0,1-15.45-14.84,12.08,12.08,0,0,1,1.65-6.26l46.08-92.28L371.23,42c2.23-4.75,6.72-7.48,12.35-7.48C391.48,34.54,399.93,40.62,399.93,49.66Z" transform="translate(0 -27)"/><path class="cls-4" d="M285,87.59v45.26c0,8-1.43,14.84-4.21,20.57A206.6,206.6,0,0,1,256,123.12V87.59c0-9.91-5-14.53-15.76-14.53a22,22,0,0,0-8.32,1.35,202.78,202.78,0,0,1-7-26.32,66.25,66.25,0,0,1,15.28-1.63C269.12,46.46,285,61.07,285,87.59Z" transform="translate(0 -27)"/><path class="cls-4" d="M398.65,56.14,331.19,190.68a206,206,0,0,1-26-16.3L371.23,42c2.23-4.75,6.72-7.48,12.35-7.48,7.9,0,16.35,6.08,16.35,15.12a16.36,16.36,0,0,1-1.16,6.21Z" transform="translate(0 -27)"/><path class="cls-4" d="M460.39,191.57v19.92a205.67,205.67,0,0,1-29,2.66V191.57c0-9.91-5-14.52-15.76-14.52s-15.45,4.47-15.45,14.52v20.92a203.25,203.25,0,0,1-29.35-6V191.57c0-26.52,15.91-41.12,44.8-41.12S460.39,165.05,460.39,191.57Z" transform="translate(0 -27)"/><path d="M477.46,330.42,303.91,374.11a32.45,32.45,0,0,0-8.25-13.95l-55.28-55.28a36.08,36.08,0,0,0-25.67-10.64H104.65V282.1a21.74,21.74,0,0,0-21.72-21.72H21.71A21.74,21.74,0,0,0,0,282.1V341a7.53,7.53,0,0,0,15.06,0V282.1a6.66,6.66,0,0,1,6.65-6.66H82.93a6.66,6.66,0,0,1,6.66,6.66V448.3A6.66,6.66,0,0,1,82.93,455H21.71a6.65,6.65,0,0,1-6.65-6.65V372.12a7.53,7.53,0,0,0-15.06,0V448.3A21.74,21.74,0,0,0,21.71,470H82.93a21.74,21.74,0,0,0,21.72-21.71V418.65l25.45,4.4c35,6,52.14,19.73,100.7,42.12a116.4,116.4,0,0,1,11.88,6.73,77.34,77.34,0,0,0,83.11.43L397.37,436a7.53,7.53,0,0,0-6.81-13.43c-76.66,38.88-72,36.45-72.54,36.82a62.18,62.18,0,0,1-33.44,9.74c-22.82,0-32.85-10.52-47.16-17.52-49.08-22.55-67-36.93-104.76-43.44l-28-4.83V309.3H214.71a21.1,21.1,0,0,1,15,6.22L285,370.81c10.84,10.84,3.6,29.16-11.52,29.16A16.78,16.78,0,0,1,261.58,395l-49.8-49.82a7.53,7.53,0,1,0-10.66,10.65l49.82,49.82c18.33,18.27,49.23,8.23,53.76-16.55,3.18.11,173.71-44.08,177.59-44.08,14.42,0,20.18,18.88,8.12,26.93l-72.09,36.56c-7.05,3.57-4.49,14.24,3.4,14.24,3.4,0,.46.35,75.86-37.55C505,381.49,512,371.33,512,359.76,512,339.43,492.09,326.73,477.46,330.42Z" transform="translate(0 -27)"/><path d="M363.26,191.57v45.27c0,15.39,4.71,27.53,14,36.06,9.11,8.36,22,12.6,38.32,12.6s29.22-4.24,38.33-12.6c9.29-8.53,14-20.67,14-36.06V191.57c0-15.39-4.71-27.52-14-36-9.11-8.36-22-12.61-38.33-12.61s-29.21,4.25-38.32,12.61C368,164.05,363.26,176.18,363.26,191.57Zm15.06,0c0-22.29,12.54-33.6,37.27-33.6s37.28,11.31,37.28,33.6v45.27c0,22.3-12.54,33.6-37.28,33.6s-37.27-11.3-37.27-33.6Z" transform="translate(0 -27)"/><path d="M415.59,258.9c14.8,0,23.29-8,23.29-22.06V191.57c0-14-8.49-22-23.29-22s-23,7.83-23,22v45.27C392.62,251.07,400.78,258.9,415.59,258.9Zm-7.92-67.33c0-5.18.65-7,7.92-7,7.45,0,8.23,2.14,8.23,7v45.27c0,4.87-.78,7-8.23,7-7.27,0-7.92-1.81-7.92-7Z" transform="translate(0 -27)"/><path d="M201.91,168.91c9.11,8.36,22,12.61,38.32,12.61s29.22-4.25,38.33-12.61c9.3-8.53,14-20.66,14-36V87.59c0-15.39-4.71-27.53-14-36.06-9.11-8.36-22-12.6-38.33-12.6S211,43.17,201.91,51.53c-9.29,8.53-14,20.67-14,36.06v45.27C187.91,148.25,192.62,160.38,201.91,168.91ZM203,87.59C203,65.29,215.5,54,240.23,54s37.28,11.3,37.28,33.6v45.27c0,22.29-12.54,33.6-37.28,33.6S203,155.15,203,132.86Z" transform="translate(0 -27)"/><path d="M240.23,154.91c14.8,0,23.29-8,23.29-22V87.59c0-14-8.49-22.06-23.29-22.06s-23,7.84-23,22.06v45.27C217.26,147.08,225.42,154.91,240.23,154.91Zm-7.91-67.32c0-5.19.64-7,7.91-7,7.45,0,8.23,2.13,8.23,7v45.27c0,4.86-.78,7-8.23,7-7.27,0-7.91-1.82-7.91-7Z" transform="translate(0 -27)"/><path d="M272.86,295.29c8.7,0,16.66-4.68,20.27-11.91l30.24-60.31a7.53,7.53,0,0,0-13.46-6.75l-30.24,60.32c-1.07,2.15-3.81,3.59-6.81,3.59-6,0-9.36-6.22-7.29-9.77.2-.35,112.44-225.15,112.49-225.25,2.89-6.18,14.35-2.52,14.35,4.46,0,4.08,2.84-4.49-69,139.73a7.53,7.53,0,0,0,13.46,6.75C408.22,53.82,405.5,59.32,405.76,58.66c11-27.5-29.82-44.2-41.3-19.92l-112,224.36C244.72,276.74,255.55,295.29,272.86,295.29Z" transform="translate(0 -27)"/></svg>