<svg id="Layer_1" data-name="Layer 1" xmlns="http://www.w3.org/2000/svg" viewBox="0 0 417.94 512"><defs><style>.cls-1{fill:#c4cccf;}.cls-2{fill:#eceff1;}.cls-3{fill:#e4eaf8;}.cls-4{fill:#1a4ad6;}.cls-5{fill:#fff;opacity:0.2;}.cls-6{fill:#d30214;}</style></defs><title>book8</title><path class="cls-1" d="M354.34,42.22H80.7A25.65,25.65,0,0,0,55.05,67.87V427A25.65,25.65,0,0,0,80.7,452.67H354.34A25.65,25.65,0,0,0,380,427V67.88A25.65,25.65,0,0,0,354.34,42.22Z" transform="translate(-47.03)"/><rect class="cls-2" x="42.22" y="76.43" width="256.53" height="342.05"/><path class="cls-3" d="M345.79,409.92V310.4a111.13,111.13,0,0,0-85.52,108.07h77A8.55,8.55,0,0,0,345.79,409.92Z" transform="translate(-47.03)"/><path class="cls-1" d="M268.83,25.12H247a33.93,33.93,0,0,0-58.92,0H166.21a17.11,17.11,0,0,0-17.1,17.1V76.43H285.93V42.22A17.11,17.11,0,0,0,268.83,25.12Z" transform="translate(-47.03)"/><circle class="cls-4" cx="324.41" cy="418.47" r="85.51"/><path class="cls-5" d="M414.2,486.88a85.43,85.43,0,0,1-51.81-153.43,85.5,85.5,0,1,0,60.85,152.94A84.42,84.42,0,0,1,414.2,486.88Z" transform="translate(-47.03)"/><path d="M251.72,444.66H80.7A17.66,17.66,0,0,1,63.06,427V67.88A17.66,17.66,0,0,1,80.7,50.24h60.4V76.43a8,8,0,0,0,8,8H285.93a8,8,0,0,0,8-8V50.24h60.39A17.65,17.65,0,0,1,372,67.88V298.76a8,8,0,0,0,16,0V67.88a33.71,33.71,0,0,0-33.67-33.67H292.63a25.17,25.17,0,0,0-23.8-17.11H251.28a41.88,41.88,0,0,0-67.52,0H166.21a25.17,25.17,0,0,0-23.8,17.1H80.7A33.71,33.71,0,0,0,47,67.87V427A33.71,33.71,0,0,0,80.7,460.69h171a8,8,0,1,0,0-16ZM166.21,33.14h21.85a8,8,0,0,0,6.93-4,25.9,25.9,0,0,1,45.06,0,8,8,0,0,0,6.93,4h21.85a9.09,9.09,0,0,1,9.08,9V68.41H157.13V42.22h0A9.09,9.09,0,0,1,166.21,33.14Z" transform="translate(-47.03)"/><path d="M114.91,84.44a8,8,0,1,0,0-16H89.25a8,8,0,0,0-8,8v342a8,8,0,0,0,8,8H251.72a8,8,0,1,0,0-16H97.27v-326Z" transform="translate(-47.03)"/><path d="M345.79,306.77a8,8,0,0,0,8-8V76.43a8,8,0,0,0-8-8H320.13a8,8,0,0,0,0,16h17.64V298.75A8,8,0,0,0,345.79,306.77Z" transform="translate(-47.03)"/><path d="M371.44,324.94A93.53,93.53,0,1,0,465,418.47,93.64,93.64,0,0,0,371.44,324.94Zm0,171a77.5,77.5,0,1,1,77.5-77.5A77.58,77.58,0,0,1,371.44,496Z" transform="translate(-47.03)"/><path d="M217.61,50.24a8,8,0,0,0,0-16h-.09a8,8,0,0,0,.09,16Z" transform="translate(-47.03)"/><path class="cls-6" d="M217,209.77c0-20.07-18.83-27.79-34.21-32.46V145c11.29,1.94,18.17,7.69,18.17,11.89a8,8,0,0,0,16,0c0-14.17-14.5-25.62-34.21-28.09v-1a8,8,0,0,0-16,0v1c-19.72,2.47-34.21,13.92-34.21,28.09,0,20.07,18.83,27.79,34.21,32.46v32.34c-11.3-1.93-18.18-7.69-18.18-11.89a8,8,0,1,0-16,0c0,14.17,14.49,25.62,34.21,28.09v1a8,8,0,1,0,16,0v-1C202.49,235.39,217,223.94,217,209.77Zm-16,0c0,2.54-2.23,5.34-6.13,7.68a35.44,35.44,0,0,1-12,4.2V194.22C196.3,198.93,201,203.18,201,209.77Zm-52.37-52.91c0-2.54,2.23-5.34,6.13-7.68a35.29,35.29,0,0,1,12-4.2v27.43C153.22,167.7,148.58,163.45,148.58,156.86Z" transform="translate(-47.03)"/><path d="M294.48,136.82H251.72a8,8,0,0,0,0,16h42.76a8,8,0,1,0,0-16Z" transform="translate(-47.03)"/><path d="M251.72,187.06h25.66a8,8,0,0,0,0-16H251.72a8,8,0,0,0,0,16Z" transform="translate(-47.03)"/><path d="M294.48,205.23H251.72a8,8,0,0,0,0,16h42.76a8,8,0,1,0,0-16Z" transform="translate(-47.03)"/><path d="M140.56,298.22h17.1a8,8,0,1,0,0-16h-17.1a8,8,0,1,0,0,16Z" transform="translate(-47.03)"/><path d="M140.56,366.63h17.1a8,8,0,1,0,0-16h-17.1a8,8,0,1,0,0,16Z" transform="translate(-47.03)"/><path d="M140.56,332.43h17.1a8,8,0,0,0,0-16h-17.1a8,8,0,0,0,0,16Z" transform="translate(-47.03)"/><path d="M294.48,282.19H191.87a8,8,0,1,0,0,16H294.48a8,8,0,1,0,0-16Z" transform="translate(-47.03)"/><path d="M268.83,350.6h-77a8,8,0,1,0,0,16h77a8,8,0,0,0,0-16Z" transform="translate(-47.03)"/><path d="M294.48,316.39H191.87a8,8,0,0,0,0,16H294.48a8,8,0,0,0,0-16Z" transform="translate(-47.03)"/><path d="M341.08,460.21l71.47-71.49a7.62,7.62,0,0,0,.44-10.28l-.24-.28a7.6,7.6,0,0,0-11.22-.46l-71.24,71.76a7.61,7.61,0,0,0,.13,10.85h0A7.61,7.61,0,0,0,341.08,460.21Z" transform="translate(-47.03)"/><path d="M329,390.27l74.28,68.55a7.61,7.61,0,0,0,10.3,0l.27-.24a7.62,7.62,0,0,0,0-11.24l-74.55-68.31a7.62,7.62,0,0,0-10.83.55h0A7.62,7.62,0,0,0,329,390.27Z" transform="translate(-47.03)"/></svg>