<svg id="Capa_1" data-name="Capa 1" xmlns="http://www.w3.org/2000/svg" viewBox="0 0 511.41 512"><defs><style>.cls-1{fill:#c4cccf;}.cls-2{fill:#eceff1;}.cls-3{fill:#1a4ad6;}.cls-4,.cls-5{fill:#fff;}.cls-4{opacity:0.2;}</style></defs><title>book5</title><path class="cls-1" d="M369.52,427.33s44.14-53.48,66.75-77.75c12.07-12.95,17.72-30.33,7.41-44.73s-32.57-20.28-44.73-7.41c-23.17,24.53-77.53,89.82-77.53,89.82" transform="translate(-0.3)"/><path class="cls-2" d="M498.79,301.85c-10.31-14.4-32.58-20.29-44.74-7.41-23.16,24.52-77.52,89.81-77.52,89.81l-152.3,16V336.16s-32.06-32.07-88.17-32.07c-88.17,0-128.25,48.1-128.25,48.1v88.17H112l152.29,64.13,160.32-80.16s44.14-53.49,66.75-77.75C503.45,333.62,509.1,316.24,498.79,301.85Z" transform="translate(-0.3)"/><path class="cls-1" d="M498.79,301.85a34,34,0,0,0-3.12-3.74C466.07,336,408.59,408.3,408.59,408.3L264.31,473.16,112,409H7.81v31.32H112l152.3,64.13,160.31-80.16s44.15-53.49,66.76-77.75c3.16-3.4,6.85-9.17,10.36-16C505.44,321,505.23,310.85,498.79,301.85Z" transform="translate(-0.3)"/><path class="cls-2" d="M325.33,361.65s-133.16-57.56-189.27-57.56c-88.17,0-128.25,48.1-128.25,48.1v48.09H224.23l82,22.58a32.06,32.06,0,1,0,19.1-61.21Z" transform="translate(-0.3)"/><path class="cls-1" d="M306.23,398.82l-58.81-16.2a18.32,18.32,0,0,0-23.19,17.66h0l82,22.58a32.06,32.06,0,0,0,39.27-42.64A32.06,32.06,0,0,1,306.23,398.82Z" transform="translate(-0.3)"/><polygon class="cls-3" points="424.33 159.81 256 304.09 87.67 159.81 159.81 159.81 159.81 7.51 352.19 7.51 352.19 159.81 424.33 159.81"/><polygon class="cls-4" points="191.88 199.89 191.88 7.51 159.81 7.51 159.81 159.81 87.67 159.81 256 304.09 281.61 282.14 191.88 199.89"/><path d="M504.9,297.47a43,43,0,0,0-31.19-17.58c-9.85-.66-18.77,2.67-25.12,9.38-1.39,1.48-2.89,3.1-4.48,4.83a42.79,42.79,0,0,0-25.51-11.2c-9.85-.67-18.77,2.66-25.12,9.38-13.81,14.63-38.28,43.2-57.49,65.94a40.14,40.14,0,0,0-8-3.62c-9.18-4-135.78-58-191.9-58-90.65,0-132.29,48.72-134,50.8A7.51,7.51,0,0,0,13.57,357c.09-.12,9.82-11.51,29.7-22.73,18.31-10.35,49.28-22.68,92.79-22.68,53.91,0,185,56.37,186.29,56.94a6.55,6.55,0,0,0,.74.27,24.55,24.55,0,0,1,16.12,30.75,24.77,24.77,0,0,1-11.31,14,25.92,25.92,0,0,1-19.68,2l-82-22.58a7.51,7.51,0,1,0-4,14.49l81.88,22.55a39.51,39.51,0,0,0,49.44-26,39.42,39.42,0,0,0,1.76-10l22-2.32a7.5,7.5,0,0,0,5-2.66c.55-.65,54.47-65.39,77.22-89.47,9.45-10,26.33-2.91,33.16,6.63,10.49,14.66-2.55,30.68-6.8,35.23-20.87,22.4-59.16,68.55-66,76.87L264,496.22,114.93,433.43a7.47,7.47,0,0,0-2.92-.59H7.81a7.52,7.52,0,0,0,0,15H110.5l150.9,63.54a7.51,7.51,0,0,0,6.27-.2L428,431.05a7.61,7.61,0,0,0,2.43-1.94c.44-.53,44.26-53.59,66.46-77.41C513.22,334.17,516.29,313.39,504.9,297.47ZM372.71,377.1l-19.58,2.06a40.23,40.23,0,0,0-5.91-10.94c16.37-19.37,43-50.56,57.19-65.62a16.16,16.16,0,0,1,13.17-4.71,27.77,27.77,0,0,1,16.48,7.39C411.51,330.73,380.82,367.39,372.71,377.1Z" transform="translate(-0.3)"/><path d="M251.41,309.8a7.59,7.59,0,0,0,9.78,0L429.52,165.52c5.18-4.45,1.92-13.22-4.9-13.22H360V67.13a7.52,7.52,0,0,0-15,0v92.68a7.52,7.52,0,0,0,7.51,7.52h51.83L256.3,294.2l-148-126.87h51.83a7.52,7.52,0,0,0,7.51-7.52V15H345V32.56a7.52,7.52,0,1,0,15,0V7.51A7.51,7.51,0,0,0,352.49,0H160.11a7.52,7.52,0,0,0-7.52,7.51V152.3H88c-6.82,0-10.08,8.77-4.89,13.22Z" transform="translate(-0.3)"/><path class="cls-5" d="M208.2,159.31a7.49,7.49,0,0,0,5.32-2.2L309.7,60.92a7.51,7.51,0,0,0-10.62-10.63l-96.19,96.19A7.58,7.58,0,0,0,208.2,159.31Z" transform="translate(-0.3)"/><path class="cls-5" d="M296.38,159.31a23.55,23.55,0,1,0-23.55-23.55A23.57,23.57,0,0,0,296.38,159.31Zm0-32.06a8.52,8.52,0,1,1-8.52,8.52A8.52,8.52,0,0,1,296.38,127.25Z" transform="translate(-0.3)"/><path class="cls-5" d="M239.76,71.64a23.55,23.55,0,1,0-23.54,23.55A23.58,23.58,0,0,0,239.76,71.64Zm-32.06,0a8.52,8.52,0,1,1,8.52,8.52A8.53,8.53,0,0,1,207.7,71.64Z" transform="translate(-0.3)"/></svg>