<svg id="Layer_1" data-name="Layer 1" xmlns="http://www.w3.org/2000/svg" viewBox="0 0 478.48 476.5"><defs><style>.cls-1{fill:#e9e9ea;}.cls-2{fill:#6d6c6b;}.cls-3{fill:#898989;}.cls-4{fill:#d30214;}.cls-5{fill:#1a4ad6;}.cls-6{fill:#231f20;}.cls-7{fill:#55acd5;}</style></defs><title>book3</title><g id="Layer_46" data-name="Layer 46"><path class="cls-1" d="M339,236.6l-43.6,18a13.27,13.27,0,0,0-8,9.8,32,32,0,1,1-24.8-37.8,30.19,30.19,0,0,1,11.4,4.8,13.06,13.06,0,0,0,12.4,1l43.6-18a86,86,0,1,0,9,22.2Z" transform="translate(0 -35.5)"/><path class="cls-2" d="M388.2,203.6a11.91,11.91,0,0,0-15.4-7c-.2,0-.2,0-.4.2l-86.2,35.6a13,13,0,0,1-12.4-1,32,32,0,1,0,8.8,44.4,28.9,28.9,0,0,0,4.8-11.4,13.35,13.35,0,0,1,8-9.8L381,219.2A12.48,12.48,0,0,0,388.2,203.6Z" transform="translate(0 -35.5)"/><circle class="cls-3" cx="256.02" cy="222.5" r="12"/><circle class="cls-4" cx="401.4" cy="411.9" r="59.6"/><circle class="cls-5" cx="256" cy="411.9" r="59.6"/><circle class="cls-1" cx="110.4" cy="411.9" r="59.4"/><path class="cls-1" d="M62.6,258a192.8,192.8,0,0,1,56.8-136.8l-17-17A217.1,217.1,0,0,0,65,362a11.95,11.95,0,1,0,21-11.4h0A194.1,194.1,0,0,1,62.6,258Z" transform="translate(0 -35.5)"/><path class="cls-5" d="M256,40.6a217.72,217.72,0,0,0-153.8,63.8l17,17c75.4-75.6,197.6-75.6,273.2-.4l.4.4,17-17A216.05,216.05,0,0,0,256,40.6Z" transform="translate(0 -35.5)"/><path class="cls-4" d="M409.8,104.2l-17,17A193.42,193.42,0,0,1,426,350.4a12,12,0,0,0,21,11.8.2.2,0,0,1,.2-.2A217.69,217.69,0,0,0,409.8,104.2Z" transform="translate(0 -35.5)"/><path class="cls-6" d="M401.4,382.8A64.6,64.6,0,1,0,466,447.4,64.7,64.7,0,0,0,401.4,382.8Zm0,119.2A54.6,54.6,0,1,1,456,447.4,54.54,54.54,0,0,1,401.4,502Z" transform="translate(0 -35.5)"/><path class="cls-6" d="M440.4,456a5.15,5.15,0,0,0-7,1.6A38.09,38.09,0,0,1,381,469.4a36.94,36.94,0,0,1-11.8-11.8,5.08,5.08,0,1,0-8.6,5.4h0a48,48,0,0,0,81,0,4.73,4.73,0,0,0-1.2-7Z" transform="translate(0 -35.5)"/><path class="cls-6" d="M431.8,411.6a28.15,28.15,0,0,0-15.2-1.8l-2.8.4a4.85,4.85,0,0,0-4,5.8c.6,2.6,3.2,4.6,5.8,4l2.8-.4a16.79,16.79,0,0,1,9.4,1,5.07,5.07,0,0,0,6.6-2.6c1.2-2.6,0-5.2-2.6-6.4Z" transform="translate(0 -35.5)"/><path class="cls-6" d="M389,410.4l-2.8-.4a24.82,24.82,0,0,0-15.2,1.8,4.84,4.84,0,0,0-2.6,6.6A4.9,4.9,0,0,0,375,421h0a16.79,16.79,0,0,1,9.4-1l2.8.4a5,5,0,0,0,5.8-4,5.3,5.3,0,0,0-4-6Z" transform="translate(0 -35.5)"/><path class="cls-6" d="M411.2,448.4c-2-4.6-5.6-7.4-9.8-7.4s-7.8,2.8-9.8,7.4A4.87,4.87,0,0,0,394,455a4.82,4.82,0,0,0,6.6-2.4c0-.2.2-.2.2-.4.2-.4.4-.6.6-1,.2.4.4.6.6,1a5,5,0,0,0,6.6,2.4,4.79,4.79,0,0,0,2.6-6.2Z" transform="translate(0 -35.5)"/><path class="cls-6" d="M431.2,429.2a10.94,10.94,0,0,0-15.2-4,12.73,12.73,0,0,0-4,4,4.94,4.94,0,1,0,8.4,5.2v-.2a1.11,1.11,0,0,1,1.6-.6q.6.3.6.6a4.93,4.93,0,0,0,6.8,1.8,4.56,4.56,0,0,0,1.8-6.8c.2.2.2,0,0,0Z" transform="translate(0 -35.5)"/><path class="cls-6" d="M391,429.2a11,11,0,0,0-15.2-4,12.73,12.73,0,0,0-4,4,4.93,4.93,0,0,0,1.8,6.8,5.06,5.06,0,0,0,6.8-1.6,1.11,1.11,0,0,1,1.6-.6q.6.3.6.6a4.92,4.92,0,0,0,6.8,1.6,5.06,5.06,0,0,0,1.6-6.8Z" transform="translate(0 -35.5)"/><path class="cls-6" d="M139.6,476.2a34.65,34.65,0,0,0-48-10.6A33.52,33.52,0,0,0,81,476.2a5.08,5.08,0,0,0,8.6,5.4,24.67,24.67,0,0,1,34.2-7.6,27.49,27.49,0,0,1,7.6,7.6,5.11,5.11,0,0,0,7,1.6,5.43,5.43,0,0,0,1.2-7Z" transform="translate(0 -35.5)"/><path class="cls-6" d="M120,445.4c-2-4.6-5.6-7.4-9.8-7.4s-7.8,2.8-9.8,7.4a5,5,0,0,0,3,6.4,4.79,4.79,0,0,0,6.2-2.6c.2-.4.4-.6.6-1,.2.4.4.6.6,1a5,5,0,0,0,6.6,2.4,4.79,4.79,0,0,0,2.6-6.2Z" transform="translate(0 -35.5)"/><path class="cls-6" d="M139.2,426.4a14.4,14.4,0,0,0-17.2,0,4.86,4.86,0,0,0-.6,7,5,5,0,0,0,7,.6h0a5.12,5.12,0,0,1,4.2,0,4.86,4.86,0,0,0,7-.6,5,5,0,0,0-.4-7Z" transform="translate(0 -35.5)"/><path class="cls-6" d="M98.8,426.4a14.4,14.4,0,0,0-17.2,0,5,5,0,0,0-.6,7,4.93,4.93,0,0,0,3.8,1.8A4.54,4.54,0,0,0,88,434a5.12,5.12,0,0,1,4.2,0,4.86,4.86,0,0,0,7-.6,5,5,0,0,0-.4-7Z" transform="translate(0 -35.5)"/><path class="cls-6" d="M144.6,413a25.31,25.31,0,0,0-14.4-5.2l-2.8-.2a5,5,0,1,0-.4,10l2.8.2a18.12,18.12,0,0,1,9,3.2,5.05,5.05,0,0,0,7-1,5.29,5.29,0,0,0-1.2-7Z" transform="translate(0 -35.5)"/><path class="cls-6" d="M93.2,407.6l-2.8.2A26.84,26.84,0,0,0,76,413a5,5,0,1,0,6,8,16.39,16.39,0,0,1,9-3.2l2.8-.2a5,5,0,1,0-.6-10Z" transform="translate(0 -35.5)"/><path class="cls-6" d="M110.4,383a64.4,64.4,0,1,0,64.4,64.4A64.36,64.36,0,0,0,110.4,383Zm0,118.8a54.4,54.4,0,1,1,54.4-54.4A54.46,54.46,0,0,1,110.4,501.8Z" transform="translate(0 -35.5)"/><path class="cls-6" d="M256,382.8a64.6,64.6,0,1,0,64.6,64.6A64.7,64.7,0,0,0,256,382.8ZM256,502a54.6,54.6,0,1,1,54.6-54.6A54.54,54.54,0,0,1,256,502Z" transform="translate(0 -35.5)"/><path class="cls-6" d="M286.2,411.6a28.15,28.15,0,0,0-15.2-1.8l-2.8.4a4.85,4.85,0,0,0-4,5.8c.6,2.6,3.2,4.6,5.8,4l2.8-.4a16.79,16.79,0,0,1,9.4,1,5.07,5.07,0,0,0,6.6-2.6c1.2-2.6,0-5.2-2.6-6.4Z" transform="translate(0 -35.5)"/><path class="cls-6" d="M243.6,410.4l-2.8-.4a24.82,24.82,0,0,0-15.2,1.8,4.84,4.84,0,0,0-2.6,6.6,4.9,4.9,0,0,0,6.6,2.6h0a16.79,16.79,0,0,1,9.4-1l2.8.4a5,5,0,0,0,5.8-4,5.36,5.36,0,0,0-4-6Z" transform="translate(0 -35.5)"/><path class="cls-6" d="M265.8,448.4c-2-4.6-5.6-7.4-9.8-7.4s-7.8,2.8-9.8,7.4a5,5,0,1,0,9.2,4v-.2c.2-.4.4-.6.6-1,.2.4.4.6.6,1a5,5,0,0,0,6.6,2.4,5,5,0,0,0,2.6-6.2Z" transform="translate(0 -35.5)"/><path class="cls-6" d="M284,428.4a5.06,5.06,0,0,0-6.8,1.6h0a1.11,1.11,0,0,1-1.6.6q-.6-.3-.6-.6a5,5,0,1,0-8.6,5v.2a11,11,0,0,0,15.2,4,12.73,12.73,0,0,0,4-4A4.75,4.75,0,0,0,284,428.4Z" transform="translate(0 -35.5)"/><path class="cls-6" d="M243.8,428.4A5.06,5.06,0,0,0,237,430a1.11,1.11,0,0,1-1.6.6q-.6-.3-.6-.6a5,5,0,1,0-8.6,5v.2a11,11,0,0,0,15.2,4,12.73,12.73,0,0,0,4-4A5.1,5.1,0,0,0,243.8,428.4Z" transform="translate(0 -35.5)"/><path class="cls-6" d="M275.2,465.6H236.8a5,5,0,0,0,0,10h38.4a5,5,0,0,0,5-5,5.08,5.08,0,0,0-5-5Z" transform="translate(0 -35.5)"/><path class="cls-6" d="M256,59.6a5,5,0,0,0-5,5V76.8a5,5,0,1,0,10,0V64.6A5,5,0,0,0,256,59.6Z" transform="translate(0 -35.5)"/><path class="cls-6" d="M449.4,253H437.2a5,5,0,0,0,0,10h12.2a5,5,0,0,0,5-5A5.08,5.08,0,0,0,449.4,253Z" transform="translate(0 -35.5)"/><path class="cls-6" d="M75,253H62.8a5,5,0,0,0,0,10H75a5,5,0,0,0,0-10Z" transform="translate(0 -35.5)"/><path class="cls-6" d="M122.8,117.8l-17-17a4.83,4.83,0,0,0-7,0A222.19,222.19,0,0,0,60.6,364.4a17,17,0,0,0,29.8-16.2h0a188.25,188.25,0,0,1,32.4-223.4A4.83,4.83,0,0,0,122.8,117.8ZM57.6,258a197.34,197.34,0,0,0,24.2,95,6.94,6.94,0,1,1-12.2,6.6h0a211.92,211.92,0,0,1,32.8-248.2l9.8,9.8A196.75,196.75,0,0,0,57.6,258Z" transform="translate(0 -35.5)"/><path class="cls-6" d="M413.2,100.8c-86.6-87-227.2-87-314.2-.4l-.4.4a4.83,4.83,0,0,0,0,7l17,17a4.83,4.83,0,0,0,7,0C196,51.2,315.2,51,388.8,124.4l.4.4a4.83,4.83,0,0,0,7,0l17-17A4.83,4.83,0,0,0,413.2,100.8Zm-20.4,13.4a198,198,0,0,0-273.4,0l-9.8-9.8a212.15,212.15,0,0,1,293.2,0Z" transform="translate(0 -35.5)"/><path class="cls-6" d="M413.2,100.8a5.21,5.21,0,0,0-7,0l-17,17a4.83,4.83,0,0,0,0,7,188.54,188.54,0,0,1,32.4,223.4,17,17,0,1,0,29.8,16.2A222.19,222.19,0,0,0,413.2,100.8Zm29.4,258.8a7.05,7.05,0,0,1-13.2-3.4,6.57,6.57,0,0,1,.8-3.4,198.32,198.32,0,0,0-30.6-231.6l9.8-9.8a212,212,0,0,1,33.2,248.2Z" transform="translate(0 -35.5)"/><path class="cls-6" d="M343.8,235.4a5,5,0,0,0-6-3.6c-.2,0-.4.2-.6.2l-43.6,18a18.69,18.69,0,0,0-11,13.4,27.06,27.06,0,1,1-21-32,28.81,28.81,0,0,1,9.6,4,18.15,18.15,0,0,0,17.2,1.6L332,219a5.09,5.09,0,0,0,2.8-6.6c0-.2-.2-.4-.4-.6a91.6,91.6,0,1,0,9.4,23.6ZM256,338.6a80.6,80.6,0,1,1,66.4-126.4l-38,15.8a8.31,8.31,0,0,1-7.8-.6,37.05,37.05,0,1,0,10.2,51.4,38.72,38.72,0,0,0,5.6-13.2,8.21,8.21,0,0,1,5.2-6.2l38-15.8a80.75,80.75,0,0,1-65,93.8A91.73,91.73,0,0,1,256,338.6Z" transform="translate(0 -35.5)"/><path class="cls-6" d="M392.8,201.8a17,17,0,0,0-22-9.8.7.7,0,0,0-.4.2l-86.2,35.6a8.31,8.31,0,0,1-7.8-.6,37.05,37.05,0,1,0,10.2,51.4,38.72,38.72,0,0,0,5.6-13.2,8.21,8.21,0,0,1,5.2-6.2L383,223.8A17.41,17.41,0,0,0,392.8,201.8Zm-13.6,12.8L293.6,250a18.69,18.69,0,0,0-11,13.4,27,27,0,1,1-11.4-28,18.15,18.15,0,0,0,17.2,1.6l86.2-35.6a7.14,7.14,0,0,1,9.2,3.8v.2a7.87,7.87,0,0,1-4.6,9.2Z" transform="translate(0 -35.5)"/><path class="cls-6" d="M271.6,251.4a17,17,0,1,0-9.2,22.2,17.26,17.26,0,0,0,9.2-9.2A16.32,16.32,0,0,0,271.6,251.4Zm-13,13a7,7,0,1,1,3.8-9.2h0a6.91,6.91,0,0,1-3.8,9.2Z" transform="translate(0 -35.5)"/><path class="cls-7" d="M5,328.8a5,5,0,0,0-5,5,5.75,5.75,0,0,0,1.4,3.6,4.83,4.83,0,0,0,7,0,4.83,4.83,0,0,0,0-7A4.27,4.27,0,0,0,5,328.8Z" transform="translate(0 -35.5)"/></g></svg>