<svg id="Capa_1" data-name="Capa 1" xmlns="http://www.w3.org/2000/svg" viewBox="0 0 471.83 512"><defs><style>.cls-1,.cls-6{fill:#fff;}.cls-2{fill:#e7e7e7;}.cls-3{fill:#eceff1;}.cls-4{fill:#c4cccf;}.cls-5{fill:#1a4ad6;}.cls-6{opacity:0.2;}.cls-7{fill:#d30214;}</style></defs><title>book7</title><path class="cls-1" d="M228.56,51c-22.8,34.08-88,58.81-165.23,59.37v140A193,193,0,0,0,138,402.85l80.46,62.45a16.45,16.45,0,0,0,20.16,0l80.46-62.45a193.06,193.06,0,0,0,74.69-152.51V110.39C316.56,109.83,251.36,85.1,228.56,51Z" transform="translate(-20.09 0)"/><path class="cls-2" d="M298,95.76V219.61a193.06,193.06,0,0,1-74.69,152.52l-62.42,48.45,57.63,44.72a16.45,16.45,0,0,0,20.16,0l80.46-62.45a193.06,193.06,0,0,0,74.69-152.51V110.39C358.33,110.13,325.41,104.78,298,95.76Z" transform="translate(-20.09 0)"/><path class="cls-3" d="M228.56,504.46a52,52,0,0,1-32-11l-80.46-62.44a228.76,228.76,0,0,1-88.5-180.72V85.93a11.05,11.05,0,0,1,11-11.06l24.46-.18c69.64-.51,113.1-20.8,135.82-43.52a144.77,144.77,0,0,0,13.45-15.48,20.32,20.32,0,0,1,32.55,0,139,139,0,0,0,13.34,15.46C280,53,324.4,74.19,394.05,74.69l24.46.18a11.06,11.06,0,0,1,11,11.06V250.34A228.76,228.76,0,0,1,341,431.06L260.53,493.5A52.13,52.13,0,0,1,228.56,504.46ZM92.2,131.53a7,7,0,0,0-6.23,7V249a172.08,172.08,0,0,0,67,136.84l71.25,55.3a7,7,0,0,0,8.63,0l71.25-55.3a172.08,172.08,0,0,0,67-136.84V138.52a7,7,0,0,0-6.23-7c-29.12-3.28-56.7-9.54-81.35-18.54a235.51,235.51,0,0,1-44.87-21.61,18.94,18.94,0,0,0-20.27,0A235.51,235.51,0,0,1,173.55,113c-24.65,9-52.23,15.26-81.35,18.54Z" transform="translate(-20.09 0)"/><path class="cls-4" d="M418.5,74.87l-24.45-.18a289.86,289.86,0,0,1-57.91-5.91v58.43c9.38,1.77,19,3.22,28.77,4.32a7,7,0,0,1,6.23,7V249a172.1,172.1,0,0,1-67,136.84l-71.26,55.3a7,7,0,0,1-8.63,0l-17.47-13.56-46.69,36.24-.91.67,37.42,29a52.09,52.09,0,0,0,63.93,0L341,431.06a228.76,228.76,0,0,0,88.5-180.72V85.93a11,11,0,0,0-11-11.06Z" transform="translate(-20.09 0)"/><path class="cls-5" d="M455.89,302v-46H333.24v46c0,28.71,19.75,60.39,46.4,67a1.51,1.51,0,0,1,0,2.93c-26.66,6.66-46.4,38.33-46.4,67.05v47H455.89v-47c0-28.72-19.75-60.39-46.4-67.05a1.51,1.51,0,0,1,0-2.93C436.14,362.43,455.89,330.75,455.89,302Z" transform="translate(-20.09 0)"/><path class="cls-6" d="M409.49,369.09c26.65-6.66,46.4-38.34,46.4-67v-46H431.12v46c0,28.71-19.74,60.39-46.39,67a1.51,1.51,0,0,0,0,2.93c26.65,6.66,46.39,38.33,46.39,67.05v47h24.77v-47c0-28.72-19.75-60.39-46.4-67.05A1.51,1.51,0,0,1,409.49,369.09Z" transform="translate(-20.09 0)"/><path class="cls-1" d="M466.06,274.48h-143a18.31,18.31,0,0,1-18.31-18.31V256a18.3,18.3,0,0,1,18.31-18.3h143A18.3,18.3,0,0,1,484.37,256v.21a18.31,18.31,0,0,1-18.31,18.31Z" transform="translate(-20.09 0)"/><path class="cls-1" d="M466,237.66h-2.69a18.4,18.4,0,0,1-18.22,15.91H305a18.74,18.74,0,0,0-.19,2.5,18.41,18.41,0,0,0,18.41,18.41H466a18.41,18.41,0,1,0,0-36.82Z" transform="translate(-20.09 0)"/><path class="cls-1" d="M466.06,504.46h-143a18.31,18.31,0,0,1-18.31-18.31v-.21a18.31,18.31,0,0,1,18.31-18.31h143a18.31,18.31,0,0,1,18.31,18.31v.21a18.31,18.31,0,0,1-18.31,18.31Z" transform="translate(-20.09 0)"/><path class="cls-1" d="M466,467.63h-2.69a18.4,18.4,0,0,1-18.22,15.92H305a18.28,18.28,0,0,0,18.22,20.91H466a18.42,18.42,0,0,0,0-36.83Z" transform="translate(-20.09 0)"/><path class="cls-7" d="M194.1,311.55H194a15.09,15.09,0,0,1-11.87-5.91l-52.88-69a15.09,15.09,0,1,1,24-18.34l41.06,53.62L277.6,166.12a15.09,15.09,0,1,1,23.7,18.68L206,305.8a15.09,15.09,0,0,1-11.85,5.75Z" transform="translate(-20.09 0)"/><path class="cls-6" d="M298.79,163.62a14.89,14.89,0,0,0-6-2.85,15,15,0,0,1-2.86,12.66l-95.35,121a15,15,0,0,1-11.84,5.75h-.11a15.12,15.12,0,0,1-5.54-1.11l5,6.57A15.06,15.06,0,0,0,194,311.55h.1A15.09,15.09,0,0,0,206,305.8l95.35-121a15.08,15.08,0,0,0-2.51-21.18Z" transform="translate(-20.09 0)"/><path d="M86,227.8a7.55,7.55,0,0,0-7.54,7.54V249a179.59,179.59,0,0,0,69.93,142.8l71.26,55.3a14.59,14.59,0,0,0,17.88,0l55.73-43.26A7.54,7.54,0,0,0,284,391.89l-55.42,43-70.95-55.06A164.6,164.6,0,0,1,93.52,249V235.34A7.54,7.54,0,0,0,86,227.8Z" transform="translate(-20.09 0)"/><path d="M228.56,460.37a10.34,10.34,0,1,0,10.34,10.34A10.34,10.34,0,0,0,228.56,460.37Z" transform="translate(-20.09 0)"/><path d="M228.56,40.68A10.34,10.34,0,1,0,238.9,51,10.34,10.34,0,0,0,228.56,40.68Z" transform="translate(-20.09 0)"/><path d="M384.22,112a10.35,10.35,0,1,0,10.35-10.35A10.34,10.34,0,0,0,384.22,112Z" transform="translate(-20.09 0)"/><path d="M51,112A10.35,10.35,0,1,0,61.32,101.6,10.34,10.34,0,0,0,51,112Z" transform="translate(-20.09 0)"/><path d="M477,462.54v-183a26,26,0,0,0-11-49.46H378.68V138.52A14.54,14.54,0,0,0,365.76,124c-28.76-3.25-55.54-9.35-79.62-18.14A227.64,227.64,0,0,1,242.72,85a26.69,26.69,0,0,0-28.32,0A228,228,0,0,1,171,105.9c-24.07,8.79-50.86,14.89-79.62,18.14a14.56,14.56,0,0,0-12.92,14.48v61.15a7.55,7.55,0,0,0,15.09,0V139c29.76-3.39,57.56-9.75,82.62-18.89a243.86,243.86,0,0,0,46.3-22.32,11.37,11.37,0,0,1,12.23,0A243.86,243.86,0,0,0,281,120.08c25.07,9.14,52.86,15.5,82.63,18.89v91.14H323.17a26,26,0,0,0-10.9,49.5V443.79L255.9,487.54a44.85,44.85,0,0,1-27.34,9.37,44.18,44.18,0,0,1-27.34-9.37L120.76,425.1A221.26,221.26,0,0,1,35.17,250.34V85.93a3.54,3.54,0,0,1,3.5-3.52l24.46-.18c83.58-.6,124.28-28.91,141.09-45.72a154,154,0,0,0,14.16-16.29,12.68,12.68,0,0,1,10.25-5.13h0a12.64,12.64,0,0,1,10.18,5.12,147.12,147.12,0,0,0,14.06,16.3C266.44,50.05,307.29,81.61,394,82.23l24.46.18a3.54,3.54,0,0,1,3.5,3.52V199.36a7.54,7.54,0,1,0,15.08,0V85.93a18.65,18.65,0,0,0-18.47-18.6l-24.46-.18C313,66.56,275.79,38.06,263.56,25.84A133.66,133.66,0,0,1,251,11.22,27.58,27.58,0,0,0,228.7,0h-.07a27.67,27.67,0,0,0-22.32,11.16,136.61,136.61,0,0,1-12.76,14.68C178.37,41,141.22,66.58,63,67.15l-24.45.18a18.65,18.65,0,0,0-18.47,18.6V250.34A236.3,236.3,0,0,0,111.51,437L192,499.46a59.65,59.65,0,0,0,73.18,0l37.16-28.84A25.95,25.95,0,0,0,323.17,512H466a26,26,0,0,0,11-49.46Zm-149.6-87.37a182,182,0,0,0,17.53-20.82,70.78,70.78,0,0,0,18.73,16.2C345.9,380.9,332,401.08,327.36,423.29Zm0-57.35a84.58,84.58,0,0,0,8.51,23.1c-2.66,4-5.51,7.83-8.51,11.57Zm13.43,121.25c0-26.87,18.63-54.22,40.68-59.74a9.06,9.06,0,0,0,0-17.56c-22.05-5.51-40.69-32.87-40.69-59.74V282H448.34v20c0,26.87-18.63,54.23-40.68,59.74a9.06,9.06,0,0,0,0,17.56c22,5.52,40.68,32.88,40.68,59.74v21H340.79Zm121.08-15.28c-4.52-22.41-18.51-42.82-36.37-53.24,17.86-10.42,31.85-30.83,36.37-53.24ZM323.17,245.2H466a10.87,10.87,0,0,1,0,21.74H323.17a10.87,10.87,0,0,1,0-21.74ZM466,496.91H323.17a10.87,10.87,0,0,1,0-21.74H466a10.87,10.87,0,0,1,0,21.74Z" transform="translate(-20.09 0)"/><path d="M194,319.09h.1a22.51,22.51,0,0,0,17.78-8.62l95.35-121a22.63,22.63,0,1,0-35.55-28l-77.32,98.12L159.2,213.67a22.63,22.63,0,0,0-35.94,27.51l52.88,69A22.5,22.5,0,0,0,194,319.09Zm-60.25-92.66a7.54,7.54,0,0,1,13.47-3.59l41.06,53.62a7.57,7.57,0,0,0,5.94,3,7.72,7.72,0,0,0,6-2.88l83.33-105.75a7.54,7.54,0,0,1,11.85,9.34L200,301.13A7.5,7.5,0,0,1,194.1,304h0a7.52,7.52,0,0,1-5.94-3l-52.87-69a7.54,7.54,0,0,1-1.49-5.58Z" transform="translate(-20.09 0)"/></svg>