<svg id="Capa_1" data-name="Capa 1" xmlns="http://www.w3.org/2000/svg" viewBox="0 0 511.31 512"><defs><style>.cls-1{fill:#1a4ad6;}.cls-2{fill:#fff;}.cls-3{fill:#d30214;}.cls-4{fill:#e9e9ea;}</style></defs><title>book4</title><path class="cls-1" d="M504.16,171.31A163.82,163.82,0,1,1,340.35,7.5,163.82,163.82,0,0,1,504.16,171.31Z" transform="translate(-0.34)"/><path class="cls-2" d="M265.61,331.29A163.85,163.85,0,0,1,165.05,180.14a165.59,165.59,0,0,1,1.39-21.38,127.94,127.94,0,0,1,89.83,137.12A126,126,0,0,1,252,317a69.08,69.08,0,0,1,13.58,14.33Z" transform="translate(-0.34)"/><path class="cls-3" d="M411.53,196.75a14,14,0,0,1-14-14,34.18,34.18,0,0,1,19.68-31.08,13.64,13.64,0,0,0,8-13.35,13.81,13.81,0,0,0-12.76-12.76,13.69,13.69,0,0,0-14.59,13.66,14,14,0,0,1-27.95,0A41.8,41.8,0,0,1,383,108.9a41.65,41.65,0,1,1,45.89,68.2,6.16,6.16,0,0,0-3.4,5.68A14,14,0,0,1,411.53,196.75Z" transform="translate(-0.34)"/><path class="cls-3" d="M411.53,245a14,14,0,0,1-14-14v-.91a14,14,0,1,1,27.95,0v.91A14,14,0,0,1,411.53,245Z" transform="translate(-0.34)"/><path class="cls-4" d="M140.77,425.09h0A28.12,28.12,0,0,1,112.65,397V375.41H168.9V397A28.13,28.13,0,0,1,140.77,425.09Z" transform="translate(-0.34)"/><circle class="cls-4" cx="56.35" cy="310.1" r="20.63"/><circle class="cls-4" cx="224.43" cy="310.1" r="20.63"/><path class="cls-2" d="M207.83,285.1c-47.41,10.69-77.47-6.3-77.47-6.3v18.13c-25.17-2.61-44.22-14.45-56.64-25.08v49.53a67.06,67.06,0,1,0,134.11,0V285.1Z" transform="translate(-0.34)"/><path d="M466.48,55.41a7.5,7.5,0,0,0-11,10.16,155.74,155.74,0,0,1,41.21,105.74c0,86.2-70.12,156.32-156.31,156.32a155.39,155.39,0,0,1-84.07-24.52,119.93,119.93,0,0,0-2.76-70.41h86.83a7.5,7.5,0,0,0,0-15H247q-2.39-4.62-5.14-9h98.44a7.5,7.5,0,0,0,0-15H233.15A7.6,7.6,0,0,0,231,194a120.16,120.16,0,0,0-46.62-33c5.3-82.29,72.8-146,156-146A155,155,0,0,1,434,46.11a7.5,7.5,0,1,0,9-12A171.32,171.32,0,0,0,169.69,156.29a120,120,0,0,0-75.55,5.8A7.5,7.5,0,1,0,100,175.91a104.7,104.7,0,0,1,145.3,96.44,105.78,105.78,0,0,1-1.41,17.1,28.11,28.11,0,0,0-14.07-7,7.51,7.51,0,0,0-9.72-8.49c-51.58,16.89-85.7-1.5-86-1.67a7.5,7.5,0,0,0-11.19,6.53v9.42c-19.21-3.82-34.07-13.32-44.25-22l-.2-.17a111.18,111.18,0,0,1-9.7-9.46,7.5,7.5,0,0,0-11.13,10.06c2.32,2.57,5.21,5.52,8.63,8.62v8.41a28.06,28.06,0,0,0-28.8,6A105.57,105.57,0,0,1,36,272.35a104.3,104.3,0,0,1,38.51-81.08A7.5,7.5,0,0,0,65,179.65,119.66,119.66,0,0,0,27.54,311.39,58.87,58.87,0,0,0,55.1,419.74,108.16,108.16,0,0,0,32.72,485.5v19a7.5,7.5,0,0,0,7.5,7.5H155.84a7.5,7.5,0,1,0,0-15H81.22V474.33a7.5,7.5,0,0,0-15,0V497H47.72V485.51c0-37.82,23.44-71.79,57.54-85.93a35.61,35.61,0,0,0,71,.09,92.72,92.72,0,0,1,24.88,15.18c.14.17.27.33.42.49a8,8,0,0,0,1.63,1.3,92.48,92.48,0,0,1,30.34,68.87V497H215.33V474.33a7.5,7.5,0,0,0-15,0V497H186.17a7.5,7.5,0,1,0,0,15h54.88a7.5,7.5,0,0,0,7.5-7.5v-19a107,107,0,0,0-21.65-64.85c-.23-.31-.48-.61-.72-.92a58.95,58.95,0,0,0,44.63-91.81,170.62,170.62,0,0,0,69.53,14.7c94.46,0,171.31-76.86,171.31-171.32A170.75,170.75,0,0,0,466.48,55.41ZM237.9,310.1a13.11,13.11,0,0,1-22.57,9.09V301a13.11,13.11,0,0,1,22.57,9.09Zm-108.31-5.71a6.79,6.79,0,0,0,.78,0,7.5,7.5,0,0,0,7.5-7.5v-6.88c12.26,4.15,34,8.83,62.46,4.15v27.18a59.56,59.56,0,1,1-119.11,0V286.86A107.92,107.92,0,0,0,129.59,304.39ZM56.69,297a13.17,13.17,0,0,1,9.53,4.11v18A13.12,13.12,0,1,1,56.69,297ZM15.35,361a43.53,43.53,0,0,1,17.92-35.36A28.07,28.07,0,0,0,67.66,336a74.77,74.77,0,0,0,34.06,48.87A108.61,108.61,0,0,0,70.66,403.4,43.93,43.93,0,0,1,15.35,361Zm125.42,56.57A20.64,20.64,0,0,1,120.15,397v-2.12l.12,0a7.56,7.56,0,0,0,2.53-1.09,74.09,74.09,0,0,0,38.59-.72v4A20.63,20.63,0,0,1,140.77,417.59ZM222,404.9a43.71,43.71,0,0,1-11.46-1.52,108.91,108.91,0,0,0-30.83-18.47A74.73,74.73,0,0,0,213.88,336a28.07,28.07,0,0,0,34.25-10.26A43.87,43.87,0,0,1,222,404.9Z" transform="translate(-0.34)"/><path class="cls-2" d="M233.15,124.93h15.68a7.5,7.5,0,0,0,0-15H233.15a7.5,7.5,0,0,0,0,15Z" transform="translate(-0.34)"/><path class="cls-2" d="M340.35,145.75H233.15a7.5,7.5,0,1,0,0,15h107.2a7.5,7.5,0,0,0,0-15Z" transform="translate(-0.34)"/><path class="cls-2" d="M340.35,169.73H233.15a7.5,7.5,0,0,0,0,15h107.2a7.5,7.5,0,0,0,0-15Z" transform="translate(-0.34)"/><path class="cls-2" d="M340.35,109.93H277a7.5,7.5,0,0,0,0,15h63.38a7.5,7.5,0,0,0,0-15Z" transform="translate(-0.34)"/><path d="M113.29,328.7a7.5,7.5,0,0,0,7.5-7.5v-1.78a7.5,7.5,0,0,0-15,0v1.78A7.5,7.5,0,0,0,113.29,328.7Z" transform="translate(-0.34)"/><path d="M169.87,328.7a7.5,7.5,0,0,0,7.5-7.5v-1.78a7.5,7.5,0,0,0-15,0v1.78A7.5,7.5,0,0,0,169.87,328.7Z" transform="translate(-0.34)"/><path d="M160.26,350.18a7.5,7.5,0,0,0-10.5-1.48,13.84,13.84,0,0,1-18.26,0,7.5,7.5,0,1,0-9,12c6.31,4.75,12.53,6.46,18.09,6.46h.14c5.56,0,11.78-1.71,18.09-6.46A7.5,7.5,0,0,0,160.26,350.18Z" transform="translate(-0.34)"/><rect class="cls-2" x="229.73" y="194.03" width="117.77" height="14.63" rx="7.31"/><rect class="cls-2" x="240.86" y="217.96" width="106.64" height="14.63" rx="7.31"/></svg>