<svg id="Layer_1" data-name="Layer 1" xmlns="http://www.w3.org/2000/svg" viewBox="0 0 446.12 512"><defs><style>.cls-1{fill:#1a4ad6;}.cls-1,.cls-2,.cls-3,.cls-4,.cls-5{fill-rule:evenodd;}.cls-2{fill:#eceff1;}.cls-3,.cls-5{fill:#fff;}.cls-3{opacity:0.2;}.cls-4{fill:#c4cccf;}</style></defs><title>book</title><path class="cls-1" d="M230.86,294.91l144.84-.2c20.27,0,45.43-11.16,45.43-37V57.79a22.12,22.12,0,0,0-22.08-22.1l-13.57.05H76.22l-13.58-.05a22.12,22.12,0,0,0-22.08,22.1V257.68c0,25.87,25.17,37,45.43,37Z" transform="translate(-33 0)"/><path class="cls-2" d="M230.86,242.18c24.35-14.11,106-22.29,154.62,0V30.27c0-11-4.45-12.23-17.58-16-33.19-9.4-108.24-10.14-137,6.55Z" transform="translate(-33 0)"/><path class="cls-2" d="M230.86,242.18,286.36,136l-55.5-115.2C202.06,4.15,127,4.89,93.79,14.29c-13.13,3.75-17.57,4.93-17.57,16V242.18C124.8,219.89,206.48,228.07,230.86,242.18Z" transform="translate(-33 0)"/><path class="cls-3" d="M374,257.62H349.17v37.13l26.53,0c20.27,0,45.43-11.16,45.43-37V57.79a22.12,22.12,0,0,0-22.08-22.1l-13.57.05V245.9A11.62,11.62,0,0,1,374,257.62Z" transform="translate(-33 0)"/><path class="cls-4" d="M349.17,227.85c13.06,2.21,25.51,5.67,36.31,10.62V30.27c0-11-4.45-12.23-17.58-16a153.18,153.18,0,0,0-18.73-3.82Z" transform="translate(-33 0)"/><path class="cls-5" d="M87.66,257.62h143.2l9.38-9.6-9.38-9.55c-24.38-14.11-106.06-22.3-154.64,0v7.43A11.61,11.61,0,0,0,87.66,257.62Z" transform="translate(-33 0)"/><path class="cls-5" d="M230.86,238.47v19.15H374a11.62,11.62,0,0,0,11.46-11.73v-7.42C336.89,216.17,255.21,224.36,230.86,238.47Z" transform="translate(-33 0)"/><path class="cls-5" d="M349.17,257.62H374a11.62,11.62,0,0,0,11.46-11.72v-7.43c-10.8-4.95-23.25-8.41-36.31-10.62Z" transform="translate(-33 0)"/><path class="cls-2" d="M217.43,415.87V470c0,19,18.53,34.46,41.18,34.46S299.79,489,299.79,470V415.87c0-18.95-18.54-34.45-41.18-34.45S217.43,396.92,217.43,415.87Z" transform="translate(-33 0)"/><path class="cls-4" d="M258.61,385.92c10.77,6.24,17.86,16.63,17.86,28.34V468.4c0,16.52-14.09,30.4-32.74,33.69a48.21,48.21,0,0,0,14.88,2.36c22.65,0,41.18-15.5,41.18-34.46V415.87c0-18.95-18.53-34.45-41.18-34.45a48.37,48.37,0,0,0-8.48.74A43.06,43.06,0,0,1,258.61,385.92Z" transform="translate(-33 0)"/><path d="M204.84,136.62c-18.19-10.55-71.7-14.89-103.3-.32A7.55,7.55,0,0,0,107.86,150c27.43-12.64,76.12-8,89.39-.32a7.56,7.56,0,0,0,7.59-13.08Z" transform="translate(-33 0)"/><path d="M204.84,177.37c-18.17-10.54-71.68-14.88-103.3-.33a7.56,7.56,0,0,0,6.32,13.73c27.45-12.63,76.14-8,89.39-.33a7.56,7.56,0,0,0,7.59-13.07Z" transform="translate(-33 0)"/><path d="M204.84,95.85c-18.17-10.54-71.68-14.88-103.3-.33a7.56,7.56,0,0,0,6.32,13.73c27.45-12.63,76.14-8,89.39-.33a7.56,7.56,0,0,0,7.59-13.07Z" transform="translate(-33 0)"/><path d="M101.54,54.78a7.55,7.55,0,1,0,6.33,13.72c27.42-12.64,76.11-8,89.38-.32a7.56,7.56,0,0,0,7.59-13.07C186.65,44.55,133.14,40.21,101.54,54.78Z" transform="translate(-33 0)"/><path d="M264.44,149.69c13.28-7.69,62-12.31,89.39.33a7.56,7.56,0,0,0,6.33-13.73c-31.6-14.56-85.12-10.22-103.3.33a7.55,7.55,0,1,0,7.58,13.07Z" transform="translate(-33 0)"/><path d="M264.44,190.44c13.26-7.69,61.94-12.3,89.39.33a7.72,7.72,0,0,0,3.15.69A7.56,7.56,0,0,0,360.15,177c-31.63-14.55-85.13-10.21-103.29.32a7.56,7.56,0,1,0,7.58,13.08Z" transform="translate(-33 0)"/><path d="M264.44,108.92c13.26-7.69,61.94-12.3,89.39.33a7.56,7.56,0,1,0,6.32-13.73C328.53,81,275,85.31,256.86,95.85a7.55,7.55,0,1,0,7.58,13.07Z" transform="translate(-33 0)"/><path d="M264.44,68.18c13.28-7.7,62-12.32,89.39.32a7.55,7.55,0,1,0,6.33-13.72c-31.61-14.57-85.12-10.23-103.3.32a7.56,7.56,0,1,0,7.58,13.08Z" transform="translate(-33 0)"/><path d="M451.29,98h-22.6V57.79a29.69,29.69,0,0,0-29.6-29.66H399l-6,0c-.79-14.79-10.08-17.45-22.72-21L370,7c-33.09-9.41-105.5-10.95-139.12,5.28C211.38,2.9,181.14.68,164.18.21c-27.29-.75-55,1.86-72.46,6.82l-.28.08c-12.64,3.6-21.92,6.25-22.72,21.05l-6.06,0h-.07A29.69,29.69,0,0,0,33,57.79V257.68c0,29.23,26.65,44.55,53,44.59l144.84.2h.05l144.84-.2c26.33,0,53-15.36,53-44.59V206.09a7.56,7.56,0,0,0-15.12,0v51.59c0,21.59-22.65,29.46-37.88,29.48l-137.3.19,0-22.17H374a19.17,19.17,0,0,0,19-19.28V43.27l6,0h0a14.58,14.58,0,0,1,14.46,14.55V170.9a7.56,7.56,0,0,0,15.12,0V113.09h22.6A12.73,12.73,0,0,1,464,125.82V278.2c0,18.16-16.79,45.06-52.82,45.12l-109.24.11c-50.89,0-50.89,37.07-50.89,49.23v1.71c-23.3,3.14-41.18,20.56-41.18,41.5V470c0,23.17,21.86,42,48.74,42s48.74-18.84,48.74-42V415.87c0-20.95-17.88-38.36-41.18-41.5v-1.71c0-17.25,2.76-34.1,35.78-34.12l109.25-.11c41.95-.07,67.92-31.32,67.92-60.23V125.82A27.87,27.87,0,0,0,451.29,98ZM365.83,21.56l.28.08c5,1.43,9.33,2.66,10.87,3.87.25.2.94.75.94,4.76v197c-28.58-10-61.06-10.67-79.1-10-23.2.8-45.3,4.43-60.4,9.67V25.43C267.94,11.79,335.84,13,365.83,21.56ZM223.3,250.07H176.15a7.56,7.56,0,1,0,0,15.11h47.14v22.17L86,287.16c-15.23,0-37.88-7.89-37.88-29.48V57.79A14.56,14.56,0,0,1,62.61,43.24l6,0V245.89a19.16,19.16,0,0,0,19,19.29H146a7.56,7.56,0,1,0,0-15.11H87.66a4.09,4.09,0,0,1-3.89-4.18v-2.44c44.84-18.11,114.45-11.43,139.53-.33Zm0-23.13c-15.12-5.24-37.22-8.87-60.42-9.67-18-.63-50.53,0-79.11,10v-197c0-4,.69-4.56.94-4.76,1.54-1.21,5.86-2.44,10.88-3.87l.27-.08c30-8.53,98-9.77,127.44,3.89ZM374,250.07H238.42v-6.95c25.06-11.1,94.65-17.79,139.5.33v2.45A4.1,4.1,0,0,1,374,250.07Zm-81.79,165.8V470c0,14.83-15.08,26.9-33.62,26.9S225,484.82,225,470V415.87c0-12.75,11.16-23.45,26.07-26.2v31.16a7.56,7.56,0,1,0,15.12,0V389.67C281.08,392.42,292.23,403.12,292.23,415.87Z" transform="translate(-33 0)"/></svg>