<svg id="Capa_1" data-name="Capa 1" xmlns="http://www.w3.org/2000/svg" viewBox="0 0 477.87 375.47"><title>burger</title><path d="M463.43,289.9a8.13,8.13,0,0,1-1.15-1.69q-15.9,5.4-33,10a42.32,42.32,0,0,1,5.93,21.37,39.17,39.17,0,0,1-.28,4.06c10.85-3.13,21.54-6.44,31.9-10A20.66,20.66,0,0,0,463.43,289.9Z" transform="translate(0 -51.2)"/><path d="M464.36,230.77a710.65,710.65,0,0,1-225.43,33.76A709.5,709.5,0,0,1,13.5,230.79a53.41,53.41,0,0,0-.87,38.47c62.89,22.7,142.88,35.12,226.3,35.12,83.65,0,163.77-12.53,226.32-35.2A53.4,53.4,0,0,0,464.36,230.77Z" transform="translate(0 -51.2)"/><path d="M238.93,51.2C107.18,51.2,0,112.45,0,187.73a77.48,77.48,0,0,0,3,21c63.91,25,147.46,38.71,236,38.71,88.33,0,171.84-13.81,236-38.8a77.59,77.59,0,0,0,3-20.94C477.87,112.45,370.68,51.2,238.93,51.2ZM91.37,134l-8.54,8.54A8.53,8.53,0,0,1,70.77,130.5L79.3,122A8.53,8.53,0,0,1,91.37,134ZM134,151.1l-8.53,8.53a8.53,8.53,0,0,1-12.07-12.06L122,139A8.53,8.53,0,0,1,134,151.1Zm8.61-42.67a8.52,8.52,0,0,1-12.06.08l-.08-.08L122,99.9a8.53,8.53,0,0,1,0-12.06h0a8.53,8.53,0,0,1,12.06,0h0l8.53,8.54A8.53,8.53,0,0,1,142.64,108.43Zm22-29.13h0a8.54,8.54,0,0,1,12.07,0h0l8.53,8.53a8.53,8.53,0,1,1-12,12.14l-.07-.07-8.53-8.53A8.53,8.53,0,0,1,164.63,79.3ZM193.77,134l-8.54,8.54a8.53,8.53,0,0,1-12.06-12.07L181.7,122A8.53,8.53,0,0,1,193.77,134Zm22.06-42.66-8.53-8.54a8.53,8.53,0,0,1,0-12.06h0a8.52,8.52,0,0,1,12.06,0h0l8.53,8.53a8.53,8.53,0,1,1-12,12.17ZM245,134h0l-8.54,8.54a8.53,8.53,0,0,1-12.06-12.07L232.9,122A8.53,8.53,0,0,1,245,122h0A8.53,8.53,0,0,1,245,134ZM258.5,91.26a8.54,8.54,0,0,1,0-12h0L267,70.77A8.53,8.53,0,0,1,279.1,82.83l-8.53,8.54A8.54,8.54,0,0,1,258.5,91.26Zm37.77,51.31a8.52,8.52,0,0,1-12.06.1l-.11-.1L275.57,134A8.53,8.53,0,0,1,287.63,122l8.54,8.53A8.53,8.53,0,0,1,296.27,142.57Zm25.5-42.67-8.54,8.53a8.53,8.53,0,0,1-12.06-12.06h0l8.53-8.54A8.53,8.53,0,0,1,321.77,99.9Zm25.7,59.73a8.53,8.53,0,0,1-12.06.11l-.11-.11-8.53-8.53A8.53,8.53,0,0,1,338.83,139l8.54,8.54A8.52,8.52,0,0,1,347.47,159.63ZM373,99.9l-8.54,8.53a8.53,8.53,0,0,1-12.06-12.06h0l8.53-8.54A8.53,8.53,0,0,1,373,99.9Zm25.7,42.67a8.52,8.52,0,0,1-12.06.1l-.11-.1L378,134A8.53,8.53,0,0,1,390,122l8.54,8.53A8.53,8.53,0,0,1,398.67,142.57Z" transform="translate(0 -51.2)"/><path d="M412.4,303.43a9.9,9.9,0,0,1-.44-.93,715.76,715.76,0,0,1-97.65,15.44,39.34,39.34,0,0,1-1.77,26,47,47,0,0,0,5.09,3.4A78.93,78.93,0,0,0,358.4,358c24.83,0,47.37-10.21,56.09-25.4a26.1,26.1,0,0,0,3.64-13A26.62,26.62,0,0,0,412.4,303.43Z" transform="translate(0 -51.2)"/><path d="M477.13,328.15l-1.45.52c-15.41,5.41-31.61,10.36-48.07,14.8C415.05,362.68,388.37,375,358.4,375a96.12,96.12,0,0,1-49.5-13,61.76,61.76,0,0,1-5.52-3.7,54.07,54.07,0,0,1-4.13,4.3,89.74,89.74,0,0,1-60.32,21A90.1,90.1,0,0,1,179.08,363a8.53,8.53,0,0,1-.81-.65c-.07-.06-.12-.14-.19-.2l-.1-.11c-1.25-1.18-2.38-2.46-3.5-3.73-1.71,1.25-3.44,2.49-5.27,3.58A96.43,96.43,0,0,1,119.47,375c-30.11,0-56.61-12.32-69.14-31.55-16.49-4.44-32.71-9.4-48.21-14.84l-1.39-.5A32.64,32.64,0,0,0,0,334.76c0,44.39,96,91.91,238.93,91.91s238.94-47.52,238.94-91.91A32,32,0,0,0,477.13,328.15Z" transform="translate(0 -51.2)"/><path d="M297.08,319.36c-19.11,1.32-38.52,2.09-58.15,2.09s-39-.76-58.12-2.08a25.33,25.33,0,0,0-1.61,8.74,26.06,26.06,0,0,0,4,13.48,36.92,36.92,0,0,0,6.09,7.67,7.45,7.45,0,0,1,.69.57,73.55,73.55,0,0,0,49,16.68A73.73,73.73,0,0,0,287.78,350a35.17,35.17,0,0,0,6.84-8.24,24.93,24.93,0,0,0,2.46-22.38Z" transform="translate(0 -51.2)"/><path d="M48.57,298.21q-17.13-4.56-33-10a8.37,8.37,0,0,1-1.16,1.66,20.65,20.65,0,0,0-3.38,23.72c10.37,3.57,21.05,6.88,31.89,10a39.34,39.34,0,0,1-.27-4.05A43.17,43.17,0,0,1,48.57,298.21Z" transform="translate(0 -51.2)"/><path d="M163.56,318a715.65,715.65,0,0,1-97.63-15.41c-.1.15-.11.33-.23.48a27.47,27.47,0,0,0-6,16.56,24.94,24.94,0,0,0,3.33,12.35C71.56,347.56,94.19,358,119.47,358a79.32,79.32,0,0,0,40.93-10.7,47.23,47.23,0,0,0,4.95-3.35A39,39,0,0,1,163.56,318Z" transform="translate(0 -51.2)"/></svg>