<svg id="Capa_1" data-name="Capa 1" xmlns="http://www.w3.org/2000/svg" viewBox="0 0 512 479.38"><title>gift</title><path d="M32,271.69v192a32,32,0,0,0,32,32H224v-224Z" transform="translate(0 -16.31)"/><path d="M480,143.69H378.75a124.36,124.36,0,0,0,17.86-14.3,66.9,66.9,0,0,0,0-94.15c-25.09-25.28-68.8-25.21-93.86,0-13.89,13.92-50.69,70.6-45.6,108.45h-2.3c5-37.85-31.75-94.53-45.6-108.45-25.09-25.21-68.8-25.21-93.86,0a67,67,0,0,0,0,94.15,126.52,126.52,0,0,0,17.89,14.3H32a32.06,32.06,0,0,0-32,32v48a16,16,0,0,0,16,16H224v-64h64v64H496a16,16,0,0,0,16-16v-48A32,32,0,0,0,480,143.69Zm-257.89-1.05s-1.34,1.05-5.92,1.05c-22.11,0-64.32-23-78.11-36.86a34.91,34.91,0,0,1,0-49,34.11,34.11,0,0,1,48.48,0C208.13,79.5,229.57,134.92,222.11,142.64Zm73.67,1.05c-4.55,0-5.89-1-5.89-1.05-7.46-7.72,14-63.14,35.55-84.84,12.9-13,35.46-13.08,48.48,0a34.85,34.85,0,0,1,0,49C360.13,120.72,317.92,143.69,295.78,143.69Z" transform="translate(0 -16.31)"/><path d="M288,271.69v224H448a32,32,0,0,0,32-32v-192Z" transform="translate(0 -16.31)"/></svg>