<svg id="Layer_1" data-name="Layer 1" xmlns="http://www.w3.org/2000/svg" viewBox="0 0 472.61 472.62"><defs><style>.cls-1{fill:#1a4ad6;}</style></defs><title>lab</title><path class="cls-1" d="M0,0V78.74H472.61V0ZM285.54,49.2H49.23V29.51H285.54V49.2Zm68.92,0H334.77V29.51h19.69Zm39.39,0h-19.7V29.51h19.7Zm39.38,0H413.54V29.51h19.69Z"/><rect x="256" y="354.43" width="19.69" height="19.69"/><rect x="295.39" y="354.43" width="19.69" height="19.69"/><rect x="216.62" y="354.43" width="19.69" height="19.69"/><path class="cls-1" d="M0,98.43V472.62H472.61V98.43ZM98.46,177.2h79.08l35.52,29.54H344.61v29.54h-207L98.46,346.49V177.2ZM334,393.82H102.56L151.49,256H380.27Z"/></svg>