<svg id="Capa_1" data-name="Capa 1" xmlns="http://www.w3.org/2000/svg" viewBox="0 0 351.68 512"><defs><style>.cls-1{fill:#1a4ad6;}</style></defs><title>lab2</title><path class="cls-1" d="M80.16,82.33V429.49H240.74V82.33Zm95.3,255.22a15,15,0,1,1-30,0v-23a15,15,0,0,1,30,0Zm0-77.91a15,15,0,1,1-30,0V182.45a15,15,0,0,1,30,0Z" transform="translate(-80.16)"/><path class="cls-1" d="M80.16,459.51v14.85A37.69,37.69,0,0,0,117.8,512h85.3a37.68,37.68,0,0,0,37.64-37.64V459.51Z" transform="translate(-80.16)"/><path class="cls-1" d="M203.1,0H117.8A37.69,37.69,0,0,0,80.16,37.64V52.31H240.75V37.64A37.7,37.7,0,0,0,203.1,0Z" transform="translate(-80.16)"/><path class="cls-1" d="M271.26,127.15V382.34H431.84V127.15Zm95.29,167.44a15,15,0,1,1-30,0V217.41a15,15,0,1,1,30,0Z" transform="translate(-80.16)"/><rect class="cls-1" x="191.09" y="82.33" width="160.58" height="16.81"/><rect class="cls-1" x="191.09" y="412.35" width="160.58" height="17.15"/><path class="cls-1" d="M394.2,0H308.9a37.68,37.68,0,0,0-37.64,37.64V52.31H431.84V37.64A37.69,37.69,0,0,0,394.2,0Z" transform="translate(-80.16)"/><path class="cls-1" d="M271.26,459.51v14.85A37.68,37.68,0,0,0,308.9,512h85.3a37.69,37.69,0,0,0,37.64-37.64V459.51Z" transform="translate(-80.16)"/></svg>