<svg id="Capa_1" data-name="Capa 1" xmlns="http://www.w3.org/2000/svg" viewBox="0 0 220.16 512"><defs><style>.cls-1{fill:#1a4ad6;}</style></defs><title>lab4</title><path class="cls-1" d="M271,447.64V249.46H241v198a414.93,414.93,0,0,0-70.32-128.84L195.84,512H316.15l25.17-193.45A412.59,412.59,0,0,0,271,447.64Z" transform="translate(-145.92)"/><path class="cls-1" d="M256,0a390.17,390.17,0,0,0-30.42,37.25A141,141,0,0,1,256,77.36a141,141,0,0,1,30.42-40.11A391.42,391.42,0,0,0,256,0Z" transform="translate(-145.92)"/><path class="cls-1" d="M145.92,31.33V140.4A110.25,110.25,0,0,0,241,249.46V140.4A110.25,110.25,0,0,0,145.92,31.33Z" transform="translate(-145.92)"/><path class="cls-1" d="M271,140.4V249.46A110.25,110.25,0,0,0,366.08,140.4V31.33A110.25,110.25,0,0,0,271,140.4Z" transform="translate(-145.92)"/></svg>