<svg id="Layer_1" data-name="Layer 1" xmlns="http://www.w3.org/2000/svg" viewBox="0 0 512 512"><defs><style>.cls-1{fill:#1a4ad6;}</style></defs><title>lab5</title><path class="cls-1" d="M60,512c33.09,0,61-26.91,61-60s-27.91-61-61-61S0,418.91,0,452A60.06,60.06,0,0,0,60,512Z"/><path class="cls-1" d="M15,300H45c91.12,0,167,75.87,167,167v30a15,15,0,0,0,15,15h30a15,15,0,0,0,15-15V467c0-124.27-102.73-227-227-227H15A15,15,0,0,0,0,255v30A15,15,0,0,0,15,300Z"/><path class="cls-1" d="M15,180H45c157.4,0,287,129.6,287,287v30a15,15,0,0,0,15,15h30a15,15,0,0,0,15-15V467c0-190.54-156.46-347-347-347H15A15,15,0,0,0,0,135v30A15,15,0,0,0,15,180Z"/><path class="cls-1" d="M45,0H15A15,15,0,0,0,0,15V45A15,15,0,0,0,15,60H45c223.68,0,407,183.32,407,407v30a15,15,0,0,0,15,15h30a15,15,0,0,0,15-15V467C512,210.19,301.81,0,45,0Z"/></svg>