<svg id="Capa_1" data-name="Capa 1" xmlns="http://www.w3.org/2000/svg" viewBox="0 0 512 512"><defs><style>.cls-1{fill:#1a4ad6;}</style></defs><title>lab6</title><path class="cls-1" d="M90,252H362V422H90Z" transform="translate(0 0)"/><path class="cls-1" d="M457,162H55A55.06,55.06,0,0,0,0,217V457a55.06,55.06,0,0,0,55,55H457a55.06,55.06,0,0,0,55-55V217A55.06,55.06,0,0,0,457,162ZM392,437a15,15,0,0,1-15,15H75a15,15,0,0,1-15-15V237a15,15,0,0,1,15-15H377a15,15,0,0,1,15,15Zm45,15a15,15,0,1,1,15-15A15,15,0,0,1,437,452Zm0-60a15,15,0,1,1,15-15A15,15,0,0,1,437,392Zm0-60a15,15,0,1,1,15-15A15,15,0,0,1,437,332Zm15-75a15,15,0,0,1-30,0V237a15,15,0,0,1,30,0Z" transform="translate(0 0)"/><path class="cls-1" d="M208.86,116a85.69,85.69,0,0,0-18.13,16H321.27a85.41,85.41,0,0,0-18.13-16l46.33-94.42A15,15,0,1,0,322.54,8.4l-47,95.82a86.84,86.84,0,0,0-39,0l-47-95.82a15,15,0,1,0-26.93,13.21Z" transform="translate(0 0)"/></svg>