<svg id="Layer_1" data-name="Layer 1" xmlns="http://www.w3.org/2000/svg" viewBox="0 0 448 464"><defs><style>.cls-1{fill:#1a4ad6;}</style></defs><title>lab7</title><path class="cls-1" d="M240,304a8,8,0,0,0,8-8v-8H216v8a8,8,0,0,0,8,8Z" transform="translate(-8)"/><path class="cls-1" d="M432,32H32V272H432Zm-48,96a8,8,0,0,1-16,0V99.31L237.66,229.66a8,8,0,0,1-11.32,0L160,163.31,77.66,245.66a8,8,0,0,1-11.32-11.32l88-88a8,8,0,0,1,11.32,0L232,212.69,356.69,88H328a8,8,0,0,1,0-16h56Z" transform="translate(-8)"/><path class="cls-1" d="M456,8a8,8,0,0,0-8-8H16a8,8,0,0,0,0,16H448A8,8,0,0,0,456,8Z" transform="translate(-8)"/><path class="cls-1" d="M240,392.47V296a8,8,0,0,0-16,0v96.47A72.09,72.09,0,0,0,160,464h16a56,56,0,0,1,112,0h16A72.09,72.09,0,0,0,240,392.47Z" transform="translate(-8)"/></svg>