<svg id="Layer_1" data-name="Layer 1" xmlns="http://www.w3.org/2000/svg" viewBox="0 0 241.97 423.84"><defs><style>.cls-1{fill:#1a4ad6;}</style></defs><title>lab8</title><path class="cls-1" d="M377,98v18.06H307V98Zm-29.36,39.37H307v18.06h40.64ZM307,194.81h70V176.75H307Zm40.64,21.32H307v18.06h40.64ZM307,273.56h70V255.49H307ZM317.9,376.48a91.45,91.45,0,1,1-137.73-78.8V90.37a46.29,46.29,0,1,1,92.57,0V297.68a91,91,0,0,1,45.16,78.8Zm-18.06,0a73.05,73.05,0,0,0-40.22-65.39l-4.94-2.51V90.38a28.23,28.23,0,0,0-56.45,0v218.2l-4.94,2.51a73.36,73.36,0,1,0,106.55,65.39Zm-15,0a58.33,58.33,0,1,1-73.34-56.29l3.35-.9V118.52h23.33V319.28l3.35.91a58.33,58.33,0,0,1,43.31,56.29ZM229.35,337.6a11.68,11.68,0,0,0-13.94-8.8,48,48,0,0,0-37.55,47,11.65,11.65,0,0,0,23.3,0,25.06,25.06,0,0,1,19.39-24.29,11.71,11.71,0,0,0,8.8-13.94Z" transform="translate(-135.01 -44.08)"/></svg>