<svg id="Capa_1" data-name="Capa 1" xmlns="http://www.w3.org/2000/svg" viewBox="0 0 45.16 45.16"><defs><style>.cls-1{fill:#1a4ad6;}</style></defs><title>lab9</title><path class="cls-1" d="M22.58,11.27A11.31,11.31,0,1,0,33.89,22.58,11.32,11.32,0,0,0,22.58,11.27Z"/><path class="cls-1" d="M22.58,7.94a2.2,2.2,0,0,1-2.21-2.2V2.21a2.21,2.21,0,0,1,4.42,0V5.74A2.2,2.2,0,0,1,22.58,7.94Z"/><path class="cls-1" d="M22.58,37.22a2.2,2.2,0,0,0-2.21,2.2V43a2.21,2.21,0,1,0,4.42,0V39.42A2.2,2.2,0,0,0,22.58,37.22Z"/><path class="cls-1" d="M32.93,12.23a2.21,2.21,0,0,1,0-3.12l2.5-2.5a2.21,2.21,0,0,1,3.12,3.12l-2.5,2.5A2.21,2.21,0,0,1,32.93,12.23Z"/><path class="cls-1" d="M12.23,32.93a2.21,2.21,0,0,0-3.12,0l-2.5,2.5a2.21,2.21,0,0,0,3.12,3.12l2.5-2.5A2.21,2.21,0,0,0,12.23,32.93Z"/><path class="cls-1" d="M37.22,22.58a2.2,2.2,0,0,1,2.2-2.21H43a2.21,2.21,0,0,1,0,4.42H39.42A2.2,2.2,0,0,1,37.22,22.58Z"/><path class="cls-1" d="M7.94,22.58a2.2,2.2,0,0,0-2.2-2.21H2.21a2.21,2.21,0,1,0,0,4.42H5.74A2.2,2.2,0,0,0,7.94,22.58Z"/><path class="cls-1" d="M32.93,32.93a2.21,2.21,0,0,1,3.12,0l2.5,2.5a2.21,2.21,0,0,1-3.12,3.12l-2.5-2.5A2.21,2.21,0,0,1,32.93,32.93Z"/><path class="cls-1" d="M12.23,12.23a2.21,2.21,0,0,0,0-3.12l-2.5-2.5A2.21,2.21,0,0,0,6.61,9.73l2.5,2.5A2.21,2.21,0,0,0,12.23,12.23Z"/></svg>