<svg id="Capa_1" data-name="Capa 1" xmlns="http://www.w3.org/2000/svg" viewBox="0 0 512 512"><title>plug</title><path d="M486.4,0H247.47a25.62,25.62,0,0,0-25.6,25.6V264.53a25.62,25.62,0,0,0,25.6,25.6H486.4a25.62,25.62,0,0,0,25.6-25.6V25.6A25.63,25.63,0,0,0,486.4,0Zm8.53,264.53a8.55,8.55,0,0,1-8.53,8.54H247.47a8.56,8.56,0,0,1-8.54-8.54V25.6a8.55,8.55,0,0,1,8.54-8.53H486.4a8.53,8.53,0,0,1,8.53,8.53V264.53Z"/><path d="M366.93,51.2a93.87,93.87,0,1,0,93.87,93.87A93.87,93.87,0,0,0,366.93,51.2Zm8.54,170.16V204.8a8.54,8.54,0,0,0-17.07,0v16.56a76.77,76.77,0,0,1,0-152.59V85.33a8.54,8.54,0,1,0,17.07,0V68.77a76.77,76.77,0,0,1,0,152.59Z"/><path d="M332.8,119.47a25.6,25.6,0,1,0,25.6,25.6A25.6,25.6,0,0,0,332.8,119.47Zm0,34.13a8.54,8.54,0,1,1,8.53-8.53A8.53,8.53,0,0,1,332.8,153.6Z"/><path d="M401.07,119.47a25.6,25.6,0,1,0,25.6,25.6A25.58,25.58,0,0,0,401.07,119.47Zm0,34.13a8.54,8.54,0,1,1,8.53-8.53A8.53,8.53,0,0,1,401.07,153.6Z"/><path d="M503.47,494.93H170.67a59.8,59.8,0,0,1-59.74-59.73v-8.53A17.09,17.09,0,0,0,128,409.6V392.53a59.79,59.79,0,0,0,59.73-59.73V221.87A17.09,17.09,0,0,0,204.8,204.8V187.73a17.08,17.08,0,0,0-17.07-17.06H170.67V85.33a25.6,25.6,0,0,0-51.2,0v85.34H85.33V85.33a25.6,25.6,0,0,0-51.2,0v85.34H17.07A17.08,17.08,0,0,0,0,187.73V204.8a17.09,17.09,0,0,0,17.07,17.07V332.8A59.8,59.8,0,0,0,76.8,392.53V409.6a17.09,17.09,0,0,0,17.07,17.07v8.53a76.88,76.88,0,0,0,76.8,76.8h332.8a8.54,8.54,0,0,0,0-17.07ZM136.53,85.33a8.54,8.54,0,0,1,17.07,0v85.34H136.53V85.33Zm-85.33,0a8.54,8.54,0,0,1,17.07,0v85.34H51.2ZM17.07,187.73H187.73V204.8H17.07ZM76.8,375.47A42.73,42.73,0,0,1,34.13,332.8V221.87H170.67V332.8A42.73,42.73,0,0,1,128,375.47Zm17.07,17.06h17.06V409.6H93.87Z"/></svg>