<svg id="Layer_1" data-name="Layer 1" xmlns="http://www.w3.org/2000/svg" viewBox="0 0 512 446.55"><defs><style>.cls-1{fill:#1a4ad6;}</style></defs><title>status4</title><path class="cls-1" d="M0,211.48v262H118.9v-262ZM59.45,434.09a16.7,16.7,0,1,1,16.7-16.7A16.7,16.7,0,0,1,59.45,434.09Z" transform="translate(0 -32.72)"/><path class="cls-1" d="M512,215.32a37.7,37.7,0,0,0-37.71-37.7H333.59s31.05-36.43,31.05-102.78a42.12,42.12,0,1,0-84.23,0c0,43.4-35.93,61.86-62,96.86C196.57,201,195.06,235,162.68,235H152.29v223.7c16.05,7.2,27.85,20.62,44.11,20.62H441a37.71,37.71,0,1,0,0-75.41h11.12a37.71,37.71,0,0,0,0-75.41h11.11a37.71,37.71,0,0,0,0-75.42h11.11A37.71,37.71,0,0,0,512,215.32Z" transform="translate(0 -32.72)"/></svg>