<svg id="Capa_1" data-name="Capa 1" xmlns="http://www.w3.org/2000/svg" viewBox="0 0 512 450.11"><defs><style>.cls-1{fill:#1a4ad6;}</style></defs><title>status3</title><path class="cls-1" d="M256,34.12a125,125,0,1,0,125,125A125.14,125.14,0,0,0,256,34.12Zm45,195H221v-30h25v-80H221v-30h55v110h25Z" transform="translate(0 -30.95)"/><path class="cls-1" d="M271.88,378.17a20,20,0,1,0-31.76,0A85.11,85.11,0,0,1,156,451.05v30a115.06,115.06,0,0,0,100-58.26,115.06,115.06,0,0,0,100,58.26v-30A85.11,85.11,0,0,1,271.88,378.17Z" transform="translate(0 -30.95)"/><path class="cls-1" d="M305.65,306c-16.44,1.89-33.94,25.45-28.6,51.82C303.4,357.86,317.34,333.05,305.65,306Z" transform="translate(0 -30.95)"/><path class="cls-1" d="M278.09,368.39c0,27.16,25.44,46.79,59,33.28C335.53,389.05,315.53,361.18,278.09,368.39Z" transform="translate(0 -30.95)"/><path class="cls-1" d="M346.4,285.52c-19.29,9.87-22.12,40-12.17,57.9C357.45,337.14,366.36,307.89,346.4,285.52Z" transform="translate(0 -30.95)"/><path class="cls-1" d="M338.31,353.18c7,23.21,33.72,36.71,66.19,14.54C397.86,353.47,370.86,336.39,338.31,353.18Z" transform="translate(0 -30.95)"/><path class="cls-1" d="M379.48,253.9c-19.51,20.15-4.2,51.22,5.22,59C408.65,297.55,401.69,267.64,379.48,253.9Z" transform="translate(0 -30.95)"/><path class="cls-1" d="M391.45,321c13.66,22.38,49.24,23.76,67.51-5.37C439.53,297.22,408.53,303.14,391.45,321Z" transform="translate(0 -30.95)"/><path class="cls-1" d="M401.86,214.12c-9.67,15.52.5,45.18,22.19,54.83C441.19,247,427.78,220.8,401.86,214.12Z" transform="translate(0 -30.95)"/><path class="cls-1" d="M432.88,274.78c16.73,15,50.4,13.19,63.06-24.85C468.78,235.14,438.61,260.14,432.88,274.78Z" transform="translate(0 -30.95)"/><path class="cls-1" d="M411.55,169.54c-3.36,11.68,6.39,40,37.38,45.94C460.11,186,433.86,168.3,411.55,169.54Z" transform="translate(0 -30.95)"/><path class="cls-1" d="M459.08,218.46C476,227.39,512,218.22,512,176.2,487.19,171.55,462.78,192.48,459.08,218.46Z" transform="translate(0 -30.95)"/><path class="cls-1" d="M407.93,123.92c2.78,25.76,33.91,35.82,49,33.12C458.9,129.16,434.65,115.18,407.93,123.92Z" transform="translate(0 -30.95)"/><path class="cls-1" d="M506,101.12c-28.08,2.94-41.27,33.56-38.45,55.82C501.94,160.47,514.36,125.64,506,101.12Z" transform="translate(0 -30.95)"/><path class="cls-1" d="M391.12,81.54c7.41,17.77,34,26.89,56.6,17.25C445.65,82.18,421.9,59.68,391.12,81.54Z" transform="translate(0 -30.95)"/><path class="cls-1" d="M478.14,31c-29,12.36-28.36,50.36-20.33,64.65C492.4,87.59,493,53.06,478.14,31Z" transform="translate(0 -30.95)"/><path class="cls-1" d="M206.35,306c-11.69,27,2.25,51.82,28.6,51.82C240.29,331.49,222.79,307.93,206.35,306Z" transform="translate(0 -30.95)"/><path class="cls-1" d="M174.89,401.67c33.58,13.51,59-6.12,59-33.28C196.47,361.18,176.47,389.05,174.89,401.67Z" transform="translate(0 -30.95)"/><path class="cls-1" d="M165.6,285.52c-20,22.37-11,51.62,12.17,57.9C187.72,325.47,184.89,295.39,165.6,285.52Z" transform="translate(0 -30.95)"/><path class="cls-1" d="M107.5,367.72c32.47,22.17,59.22,8.67,66.19-14.54C141.14,336.39,114.14,353.47,107.5,367.72Z" transform="translate(0 -30.95)"/><path class="cls-1" d="M132.52,253.9c-22.21,13.74-29.17,43.65-5.22,59C136.72,305.12,152,274.05,132.52,253.9Z" transform="translate(0 -30.95)"/><path class="cls-1" d="M53,315.67c18.27,29.13,53.85,27.75,67.51,5.37C103.47,303.14,72.47,297.22,53,315.67Z" transform="translate(0 -30.95)"/><path class="cls-1" d="M110.14,214.12C84.22,220.81,70.81,247,88,269,109.64,259.3,119.81,229.64,110.14,214.12Z" transform="translate(0 -30.95)"/><path class="cls-1" d="M16.06,249.93c12.66,38,46.33,39.87,63.06,24.85C73.39,260.14,43.22,235.14,16.06,249.93Z" transform="translate(0 -30.95)"/><path class="cls-1" d="M100.45,169.54C78.14,168.31,51.89,186,63.07,215.48,94.06,209.55,103.81,181.22,100.45,169.54Z" transform="translate(0 -30.95)"/><path class="cls-1" d="M0,176.2c0,42,36,51.19,52.92,42.26C49.22,192.48,24.81,171.55,0,176.2Z" transform="translate(0 -30.95)"/><path class="cls-1" d="M55,157c15.12,2.7,46.25-7.36,49-33.12C77.35,115.18,53.1,129.16,55,157Z" transform="translate(0 -30.95)"/><path class="cls-1" d="M6,101.12c-8.37,24.52,4.05,59.35,38.46,55.82C47.29,134.68,34.1,104.06,6,101.12Z" transform="translate(0 -30.95)"/><path class="cls-1" d="M64.28,98.79c22.57,9.64,49.19.52,56.6-17.25C90.1,59.68,66.35,82.18,64.28,98.79Z" transform="translate(0 -30.95)"/><path class="cls-1" d="M33.86,31C19,53.06,19.6,87.59,54.19,95.6,62.22,81.31,62.85,43.31,33.86,31Z" transform="translate(0 -30.95)"/></svg>