<svg id="Capa_1" data-name="Capa 1" xmlns="http://www.w3.org/2000/svg" viewBox="0 0 512 512"><defs><style>.cls-1{fill:#1a4ad6;}</style></defs><title>status2</title><path class="cls-1" d="M134.15,512a39.86,39.86,0,0,1,6-33L213,375.14l-66.52-57a10,10,0,0,0-16.23,0L1.91,496.15A10,10,0,0,0,10,512Z" transform="translate(0)"/><path class="cls-1" d="M339.73,212.35V160h125a15,15,0,0,0,12.73-22.92L451.29,95l26.17-42.08A15,15,0,0,0,464.73,30h-125V15a15,15,0,0,0-30,0V212.35C318.3,202.94,331,202.75,339.73,212.35Z" transform="translate(0)"/><path class="cls-1" d="M407,349.17l-35.8,33.36a15,15,0,0,1-20.45,0l-26-24.19-26,24.19a15,15,0,0,1-20.45,0L242.5,349.17,139.29,496.26A10,10,0,0,0,147.48,512H502a10,10,0,0,0,8.19-15.74Z" transform="translate(0)"/><path class="cls-1" d="M288.53,351.06l26-24.2a15,15,0,0,1,20.45,0l26,24.2,28.9-26.31-56.9-81.08a10,10,0,0,0-16.38,0l-56.9,81.08Z" transform="translate(0)"/><path class="cls-1" d="M290.25,145.92a19.49,19.49,0,0,0,19.48-19.49v-6.49H134.39a32.51,32.51,0,0,0-32.47,32.47v64.94a19.48,19.48,0,0,0,19.48,19.48h6.5V145.92h13V379.7h26V256.32h13V379.7h26V145.92Z" transform="translate(0)"/><path class="cls-1" d="M199.33,81a26,26,0,1,1-26-26A26,26,0,0,1,199.33,81Z" transform="translate(0)"/></svg>