<svg id="Layer_1" data-name="Layer 1" xmlns="http://www.w3.org/2000/svg" viewBox="0 0 377.52 409.01"><defs><style>.cls-1{fill:#1a4ad6;}</style></defs><title>status1</title><path class="cls-1" d="M124.16,165.67H227.22c25-18,39.23-45,39.23-74.77a90.83,90.83,0,1,0-142.29,74.77Zm51.13-71.08a30.48,30.48,0,0,1-10-59.28V27.85a8,8,0,1,1,16,0v6.37a30.53,30.53,0,0,1,24.49,29.89,8,8,0,0,1-16,0,14.51,14.51,0,1,0-14.51,14.5,30.48,30.48,0,0,1,6,60.37v7.72a8,8,0,0,1-16,0v-8.82a30.52,30.52,0,0,1-20.5-28.79,8,8,0,1,1,16,0,14.51,14.51,0,1,0,14.5-14.5Z" transform="translate(-15.5 0.01)"/><path class="cls-1" d="M371.66,192.12,357,190.58a10.11,10.11,0,0,1-6.55-3.33l-.92-.92-.58-1.16c-10.09-20.17-25-38-44.38-53l-.4-.3-.36-.36a9.66,9.66,0,0,1-2.84-7.17l0-.87,2.54-23.31C304.75,89,306,77,305.61,74.44l-.06-.43a1.1,1.1,0,0,0-.06-.26,4.28,4.28,0,0,0-1.63-.25l-.28,0c-3.55-.13-10.15.51-22,4a106.05,106.05,0,0,1-29.92,88.17h3.63a8,8,0,0,1,0,16H96a8,8,0,1,1,0-16h3.39a104.47,104.47,0,0,1-22.92-34.79,159.11,159.11,0,0,0-41.43,45l-7,13.35c-7.17,14.88-11.5,30-12.5,43.82v6.84c0,28.06,9.72,55.23,27.78,78.58a9.25,9.25,0,0,1,1.11,10.63l-.34.65-.46.56c-14.63,19.06-13.8,44.86,2,61.5a52.44,52.44,0,0,0,37.91,16.56H85.4c14.09,0,27.25-4.94,37.06-14.3l12.62-11.9a9.68,9.68,0,0,1,7.09-2.77h.92l.9.33a194.16,194.16,0,0,0,76.9,2.55l.67.12h.69a9.26,9.26,0,0,1,7.08,2.51l9.59,8.84a57,57,0,0,0,36.55,15.18,55,55,0,0,0,37.12-12A46.69,46.69,0,0,0,325,340.29a7.26,7.26,0,0,1-.91-6.56v-2.14l1.89-2.28a141.34,141.34,0,0,0,22.87-34.08l.6-1.23,1-1a10.32,10.32,0,0,1,6.59-3.33l14.61-1.53A23.8,23.8,0,0,0,393,264.61V215.68A23.8,23.8,0,0,0,371.66,192.12Z" transform="translate(-15.5 0.01)"/></svg>