<svg id="Capa_1" data-name="Capa 1" xmlns="http://www.w3.org/2000/svg" viewBox="0 0 21.5 26"><defs><style>.cls-1{fill:#fff;}</style></defs><title>buyic</title><path class="cls-1" d="M20.25,19.55V23a1,1,0,0,1-1,1h-14a1,1,0,0,1-1-1V3a1,1,0,0,1,1-1h14a1,1,0,0,1,1,1V6.45l2,1.74V3a3,3,0,0,0-3-3h-14a3,3,0,0,0-3,3V23a3,3,0,0,0,3,3h14a3,3,0,0,0,3-3V17.81Z" transform="translate(-2.25)"/><path class="cls-1" d="M16.25,19.5s-1,.28-1-1V16h-6a1,1,0,0,1-1-1V11a1,1,0,0,1,1-1h6V7.47c0-1.35,1-1,1-1l7.5,6.5Z" transform="translate(-2.25)"/></svg>