<svg id="Capa_1" data-name="Capa 1" xmlns="http://www.w3.org/2000/svg" viewBox="0 0 512 512"><defs><style>.cls-1{fill:#164c7c;}</style></defs><title>footsubmit</title><path class="cls-1" d="M507,1.31a10,10,0,0,0-10,.08L313.66,109.76A10,10,0,0,0,323.83,127L455.32,49.22,210.41,303.33,88.6,266.07l159-94a10,10,0,0,0-10.18-17.22L58.91,260.39a10,10,0,0,0,2.16,18.17l145.47,44.51,64.18,116.81a2.77,2.77,0,0,0,.21.31,10,10,0,0,0,15.54,2l73.8-72.12,138.8,42.46A9.82,9.82,0,0,0,502,413a10,10,0,0,0,10-10V10A10,10,0,0,0,507,1.31ZM271.27,329.23a10,10,0,0,0-1.78,5.69V396.1l-43.83-79.77L419.58,115.12Zm18.22,82.08V348.44l49,15ZM492,389.48,295.5,329.37,492,45.7Z" transform="translate(0 0)"/><path class="cls-1" d="M164.42,347.58a10,10,0,0,0-14.14,0L56.93,440.93a10,10,0,1,0,14.14,14.14l93.35-93.35A10,10,0,0,0,164.42,347.58Z" transform="translate(0 0)"/><path class="cls-1" d="M40.07,471.93a10,10,0,0,0-14.14,0l-23,23a10,10,0,1,0,14.14,14.14l23-23A10,10,0,0,0,40.07,471.93Z" transform="translate(0 0)"/><path class="cls-1" d="M142.65,494.34a10,10,0,1,0,2.93,7.07A10.08,10.08,0,0,0,142.65,494.34Z" transform="translate(0 0)"/><path class="cls-1" d="M217.05,419.93a10,10,0,0,0-14.14,0l-49.45,49.45a10,10,0,1,0,14.14,14.14l49.45-49.44A10,10,0,0,0,217.05,419.93Z" transform="translate(0 0)"/><path class="cls-1" d="M387.7,416.14a10,10,0,0,0-14.14,0L324,465.72a10,10,0,1,0,14.14,14.14l49.58-49.58A10,10,0,0,0,387.7,416.14Z" transform="translate(0 0)"/><path class="cls-1" d="M283.5,136.31a10,10,0,1,0,2.93,7.08A10.08,10.08,0,0,0,283.5,136.31Z" transform="translate(0 0)"/></svg>