<svg id="Layer_1" data-name="Layer 1" xmlns="http://www.w3.org/2000/svg" viewBox="0 0 512 512"><defs><style>.cls-1{fill:#164c7c;}</style></defs><title>headset</title><path class="cls-1" d="M467,211H451V196C451,87.93,363.52,0,256,0S61,87.93,61,196v15H45A45.05,45.05,0,0,0,0,256v90a45.05,45.05,0,0,0,45,45H63.58A45,45,0,0,0,151,376V226a45,45,0,0,0-59.53-42.58C97.88,97.74,169.23,30,256,30S414.12,97.74,420.53,183.42A45,45,0,0,0,361,226V376a45,45,0,0,0,60,42.42V437a15,15,0,0,1-15,15H298.42a45,45,0,1,0,0,30H406a45.05,45.05,0,0,0,45-45V391h16a45.05,45.05,0,0,0,45-45V256A45.05,45.05,0,0,0,467,211ZM30,346V256a15,15,0,0,1,15-15H61V361H45A15,15,0,0,1,30,346Zm76-135a15,15,0,0,1,15,15V376a15,15,0,0,1-30,0V226A15,15,0,0,1,106,211ZM256,482a15,15,0,1,1,15-15A15,15,0,0,1,256,482Zm150-91a15,15,0,0,1-15-15V226a15,15,0,0,1,30,0V376A15,15,0,0,1,406,391Zm76-45a15,15,0,0,1-15,15H451V241h16a15,15,0,0,1,15,15Z"/></svg>