<svg id="Capa_1" data-name="Capa 1" xmlns="http://www.w3.org/2000/svg" viewBox="0 0 512 512"><defs><style>.cls-1{fill:#fff;}</style></defs><title>listic</title><path class="cls-1" d="M467,71.46l-45,90V512h90V161.46ZM482,482H452V451h30Zm0-61H452V398h30Zm0-53H452V210h30Zm0-188H452V168.54l15-30,15,30Z"/><path class="cls-1" d="M300,60V30H240V0H150V30H90V60H0V512H390V60ZM120,60h60V30h30V60h60V90H120ZM360,482H30V90H90v30H300V90h60Z"/><polygon class="cls-1" points="154.39 154.39 105 203.79 85.61 184.39 64.39 205.61 105 246.21 175.61 175.61 154.39 154.39"/><polygon class="cls-1" points="154.39 260.39 105 309.79 85.61 290.39 64.39 311.61 105 352.21 175.61 281.61 154.39 260.39"/><polygon class="cls-1" points="154.39 365.39 105 414.79 85.61 395.39 64.39 416.61 105 457.21 175.61 386.61 154.39 365.39"/><rect class="cls-1" x="210" y="391" width="120" height="30"/><rect class="cls-1" x="210" y="180" width="120" height="30"/><rect class="cls-1" x="210" y="286" width="120" height="30"/></svg>