<?xml version="1.0" encoding="utf-8"?>
<!-- Generator: Adobe Illustrator 23.0.2, SVG Export Plug-In . SVG Version: 6.00 Build 0)  -->
<svg version="1.1" xmlns="http://www.w3.org/2000/svg" xmlns:xlink="http://www.w3.org/1999/xlink" x="0px" y="0px"
	 viewBox="0 0 670.22 151.09" style="enable-background:new 0 0 670.22 151.09;" xml:space="preserve">
<style type="text/css">
	.st0{fill:#123F6D;}
	.st1{fill:#F58220;}
</style>
<g id="Layer_1">
</g>
<g id="Laag_2">
	<g>
		<path class="st0" d="M409.64,83.27c-1.24,2.49-2.87,5.16-4.88,8.03c-2.01,2.87-4.56,5.57-7.67,8.1c-3.1,2.53-6.83,4.64-11.18,6.31
			c-4.35,1.67-9.44,2.51-15.27,2.51c-6.12,0-11.76-1.1-16.92-3.3c-5.16-2.2-9.61-5.18-13.33-8.96c-3.73-3.77-6.64-8.15-8.75-13.12
			c-2.1-4.97-3.15-10.18-3.15-15.63c0-5.64,1.1-10.97,3.3-15.99c2.2-5.02,5.21-9.39,9.03-13.12c3.82-3.73,8.29-6.69,13.41-8.89
			c5.11-2.2,10.58-3.3,16.42-3.3c3.44,0,7.05,0.45,10.83,1.36c3.77,0.91,7.43,2.39,10.97,4.44c3.53,2.06,6.81,4.71,9.82,7.96
			c3.01,3.25,5.47,7.22,7.38,11.9H398.6c-1.63-2.96-3.51-5.5-5.66-7.6c-2.15-2.1-4.44-3.82-6.88-5.16
			c-2.44-1.34-4.95-2.32-7.53-2.94c-2.58-0.62-5.11-0.93-7.6-0.93c-3.82,0-7.67,0.69-11.54,2.08c-3.87,1.39-7.34,3.44-10.4,6.17
			c-3.06,2.73-5.57,6.07-7.53,10.04c-1.96,3.97-2.94,8.53-2.94,13.69c0,4.4,0.81,8.56,2.44,12.48c1.63,3.92,3.87,7.34,6.74,10.25
			c2.87,2.92,6.28,5.23,10.25,6.95c3.97,1.72,8.29,2.58,12.98,2.58c4.11,0,7.71-0.55,10.82-1.65c3.1-1.1,5.76-2.46,7.96-4.09
			c2.2-1.62,4.04-3.34,5.52-5.16c1.48-1.81,2.6-3.49,3.37-5.02H409.64z"/>
		<path class="st0" d="M82.98,106.11l-10.04-0.01l0.01-13.77l-0.29,0c-2.11,3.15-4.47,5.73-7.11,7.73c-2.63,2-5.36,3.58-8.18,4.73
			c-2.82,1.14-5.54,1.95-8.18,2.43c-2.63,0.47-5,0.71-7.1,0.71c-6.22-0.01-11.9-1.11-17.06-3.32c-5.16-2.2-9.6-5.17-13.33-8.9
			C8,91.98,5.12,87.61,3.06,82.59S-0.01,72.24,0,66.6c0.01-5.25,1.01-10.34,3.03-15.26c2.01-4.92,4.84-9.29,8.47-13.11
			c3.64-3.82,8.06-6.87,13.27-9.16c5.21-2.29,11.02-3.43,17.42-3.43c2.1,0,4.49,0.25,7.17,0.73c2.67,0.48,5.4,1.3,8.17,2.44
			c2.77,1.15,5.47,2.73,8.1,4.74c2.63,2.01,4.99,4.55,7.09,7.61l0.29,0L73.05,0l10.04,0.01L82.98,106.11z M10.04,67.04
			c0,4.4,0.75,8.53,2.28,12.4c1.53,3.87,3.7,7.24,6.51,10.12c2.82,2.87,6.21,5.14,10.17,6.82s8.34,2.52,13.12,2.52
			c4.2,0,8.22-0.8,12.05-2.42c3.82-1.62,7.17-3.84,10.04-6.66c2.87-2.81,5.14-6.18,6.82-10.1c1.68-3.92,2.52-8.17,2.52-12.76
			c0-4.3-0.78-8.41-2.35-12.34c-1.57-3.92-3.77-7.34-6.58-10.26c-2.82-2.92-6.14-5.26-9.96-7.04c-3.82-1.77-7.98-2.66-12.47-2.66
			c-4.3,0-8.39,0.76-12.26,2.28c-3.87,1.53-7.29,3.67-10.26,6.44c-2.97,2.77-5.31,6.16-7.04,10.17
			C10.91,57.58,10.04,62.07,10.04,67.04z"/>
		<path class="st0" d="M98.65,67.41c0.01-6.21,1.18-11.87,3.53-16.99c2.34-5.11,5.41-9.5,9.19-13.18c3.78-3.67,8.13-6.52,13.06-8.52
			c4.92-2,9.97-3,15.13-3c5.83,0.01,11.26,1.16,16.27,3.46c5.01,2.3,9.36,5.34,13.04,9.12c3.67,3.78,6.56,8.16,8.66,13.13
			c2.1,4.97,3.14,10.14,3.14,15.49c-0.01,5.35-1.06,10.51-3.17,15.48c-2.11,4.97-4.98,9.34-8.61,13.11
			c-3.64,3.77-7.99,6.81-13.06,9.09c-5.07,2.29-10.52,3.43-16.35,3.43c-5.74-0.01-11.09-1.14-16.05-3.39
			c-4.97-2.25-9.29-5.24-12.97-8.98c-3.68-3.73-6.57-8.04-8.66-12.91C99.68,77.88,98.64,72.77,98.65,67.41z M108.68,67.28
			c0,4.59,0.85,8.82,2.57,12.69c1.71,3.87,4.01,7.22,6.87,10.04c2.87,2.82,6.16,5.02,9.89,6.6c3.73,1.58,7.6,2.37,11.61,2.38
			c3.82,0,7.58-0.73,11.26-2.21c3.68-1.48,6.98-3.6,9.9-6.37c2.92-2.77,5.29-6.16,7.11-10.17c1.82-4.02,2.74-8.6,2.74-13.76
			c0.01-5.16-0.97-9.73-2.93-13.7s-4.44-7.27-7.44-9.9c-3.01-2.63-6.35-4.64-10.03-6.03c-3.68-1.39-7.19-2.08-10.54-2.09
			c-3.63,0-7.26,0.71-10.9,2.14c-3.63,1.43-6.96,3.53-9.97,6.3c-3.01,2.77-5.46,6.18-7.32,10.25S108.68,62.12,108.68,67.28z"/>
		<path class="st0" d="M192.56,67.51c0.01-6.21,1.18-11.87,3.53-16.99c2.34-5.11,5.41-9.5,9.19-13.18
			c3.78-3.67,8.13-6.52,13.06-8.52c4.92-2,9.97-3,15.13-3c5.83,0.01,11.26,1.16,16.27,3.46c5.01,2.3,9.36,5.34,13.04,9.12
			c3.67,3.78,6.56,8.16,8.66,13.13c2.1,4.97,3.14,10.14,3.14,15.49s-1.06,10.51-3.17,15.48c-2.11,4.97-4.98,9.34-8.61,13.11
			c-3.64,3.77-7.99,6.81-13.06,9.09c-5.07,2.29-10.52,3.43-16.35,3.43c-5.74-0.01-11.09-1.14-16.05-3.39
			c-4.97-2.25-9.29-5.24-12.97-8.98c-3.68-3.73-6.57-8.04-8.66-12.91C193.6,77.98,192.56,72.87,192.56,67.51z M202.6,67.38
			c0,4.59,0.85,8.82,2.57,12.69c1.71,3.87,4.01,7.22,6.87,10.04c2.87,2.82,6.16,5.02,9.89,6.6c3.73,1.58,7.6,2.37,11.61,2.38
			c3.82,0,7.58-0.73,11.26-2.21c3.68-1.48,6.98-3.6,9.9-6.37c2.92-2.77,5.29-6.16,7.11-10.17c1.82-4.02,2.74-8.6,2.74-13.76
			s-0.97-9.73-2.93-13.7s-4.44-7.27-7.44-9.9c-3.01-2.63-6.35-4.64-10.03-6.03c-3.68-1.39-7.19-2.08-10.54-2.09
			c-3.63,0-7.26,0.71-10.9,2.14c-3.63,1.43-6.96,3.53-9.97,6.3c-3.01,2.77-5.46,6.18-7.32,10.25
			C203.54,57.61,202.6,62.22,202.6,67.38z"/>
		<path class="st0" d="M289.82,27.9l10.04,0.01l-0.01,11.32l0.29,0c1.15-2.77,2.56-4.99,4.24-6.66c1.67-1.67,3.47-2.98,5.38-3.93
			c1.91-0.95,3.95-1.6,6.1-1.93c2.15-0.33,4.28-0.59,6.38-0.78l-0.01,10.61c-3.54,0.29-6.76,1.07-9.68,2.35s-5.33,3.08-7.25,5.37
			c-1.72,2.2-3.06,4.66-4.02,7.38c-0.96,2.72-1.44,5.66-1.44,8.81l-0.05,45.88l-10.04-0.01L289.82,27.9z"/>
		<path class="st0" d="M564.72,37.17c2.2-3.53,5.17-6.25,8.9-8.16c3.73-1.91,7.89-2.86,12.48-2.86c5.73,0.01,10.87,1.3,15.41,3.89
			c4.53,2.59,8.19,6.31,10.95,11.19c6.22-10.03,15.03-15.04,26.4-15.03c4.59,0,8.82,0.8,12.69,2.38c3.87,1.58,7.19,3.83,9.96,6.75
			c2.77,2.92,4.92,6.46,6.44,10.62c1.52,4.16,2.29,8.87,2.28,14.13l-0.05,46.6l-10.04-0.01l0.05-45.45
			c0.01-8.41-1.87-14.84-5.64-19.29c-3.77-4.45-9.01-6.68-15.7-6.68c-6.69-0.01-11.93,2.21-15.71,6.65
			c-3.78,4.44-5.68,10.87-5.69,19.28l-0.05,45.45l-10.03-0.01l0.05-45.45c0.01-8.41-1.88-14.84-5.65-19.29
			c-3.77-4.45-9-6.68-15.69-6.68c-6.69-0.01-11.93,2.21-15.71,6.65s-5.67,10.87-5.68,19.28l-0.05,45.45l-10.04-0.01l0.08-78.43
			l10.04,0.01L564.72,37.17z"/>
		<path class="st0" d="M498.69,28.25h-2.38l-0.01,8.28h2.38c15.87,0,28.78,11.33,28.78,25.26v1.37c0,13.93-12.91,25.26-28.78,25.26
			H475.3l1.46,10.64c-8.85-3.59-23.02-11.97-28.83-15.93c-7.09-4.83-11.16-12.11-11.16-19.98v-1.37c0-13.93,12.91-25.26,28.78-25.26
			H468l0.01-8.28h-2.45c-21.07,0-38.22,15.05-38.22,33.54v1.37c0,10.44,5.4,20.11,14.82,26.52c0.28,0.19,29.16,19.27,40.15,19.27
			h5.32l-1.68-12.25h12.75c21.07,0,38.22-15.05,38.22-33.54v-1.37C536.91,43.3,519.76,28.25,498.69,28.25z"/>
		<g>
			<g>
				<path class="st1" d="M195.7,150.19c-1.51-0.6-2.74-1.4-3.68-2.41l2.09-3.06c0.81,0.79,1.78,1.44,2.9,1.95
					c1.12,0.51,2.14,0.76,3.09,0.76c0.69,0,1.23-0.14,1.64-0.42c0.41-0.28,0.61-0.65,0.61-1.13c0-0.43-0.23-0.78-0.68-1.06
					c-0.45-0.28-1.14-0.6-2.06-0.97c-1.01-0.41-1.84-0.79-2.49-1.14c-0.65-0.35-1.22-0.85-1.69-1.48c-0.47-0.63-0.71-1.42-0.71-2.36
					c0-1.07,0.28-2.03,0.84-2.86c0.56-0.84,1.34-1.48,2.35-1.95c1.01-0.46,2.17-0.69,3.48-0.69c1.35,0,2.71,0.24,4.09,0.73
					c1.37,0.48,2.55,1.14,3.54,1.98l-2.25,3.09c-0.9-0.67-1.83-1.19-2.78-1.58c-0.96-0.38-1.8-0.58-2.53-0.58
					c-0.56,0-1.03,0.14-1.41,0.42c-0.39,0.28-0.58,0.62-0.58,1.03c0,0.41,0.23,0.75,0.68,1.03c0.45,0.28,1.14,0.6,2.06,0.97
					c1.03,0.43,1.88,0.82,2.54,1.19c0.67,0.37,1.24,0.87,1.74,1.53c0.49,0.65,0.74,1.45,0.74,2.4c0,1.07-0.29,2.03-0.87,2.86
					c-0.58,0.84-1.39,1.49-2.43,1.96c-1.04,0.47-2.23,0.71-3.56,0.71C198.76,151.09,197.21,150.79,195.7,150.19z"/>
				<path class="st1" d="M243.02,134.86c1.09,1.02,1.64,2.38,1.64,4.07c0,0.54-0.06,1.12-0.19,1.74l-2.03,10.2h-4.96l1.9-9.49
					c0.07-0.32,0.1-0.63,0.1-0.93c0-0.86-0.27-1.54-0.8-2.05c-0.54-0.5-1.27-0.75-2.19-0.75c-1.09,0-2.06,0.39-2.91,1.17
					c-0.85,0.78-1.4,1.81-1.66,3.07l-1.83,8.98h-4.92l1.87-9.49c0.06-0.32,0.09-0.63,0.09-0.93c0-0.86-0.26-1.54-0.79-2.05
					c-0.52-0.5-1.26-0.75-2.2-0.75c-1.09,0-2.07,0.39-2.91,1.17c-0.85,0.78-1.4,1.81-1.66,3.07l-1.8,8.98h-4.96l3.41-17.31h4.99
					l-0.48,2.38c1.42-1.74,3.25-2.61,5.5-2.61c1.52,0,2.79,0.34,3.82,1.01c1.02,0.68,1.7,1.62,2.04,2.82
					c1.67-2.55,3.83-3.83,6.47-3.83C240.43,133.33,241.92,133.84,243.02,134.86z"/>
				<path class="st1" d="M253.49,150.1c-1.04-0.64-1.85-1.55-2.43-2.7c-0.58-1.16-0.87-2.49-0.87-3.99c0-1.87,0.4-3.57,1.21-5.1
					c0.8-1.53,1.91-2.74,3.33-3.62c1.41-0.88,2.98-1.32,4.7-1.32c1.37,0,2.53,0.29,3.47,0.85c0.94,0.57,1.66,1.4,2.16,2.49
					l0.61-3.15h4.92l-3.44,17.31h-4.92l0.48-2.19c-1.59,1.59-3.46,2.38-5.63,2.38C255.73,151.06,254.53,150.74,253.49,150.1z
					 M261.46,146.43c0.77-0.49,1.38-1.16,1.83-2.01c0.45-0.85,0.68-1.78,0.68-2.78c0-1.22-0.34-2.2-1.03-2.93
					c-0.69-0.73-1.6-1.09-2.73-1.09c-0.9,0-1.74,0.25-2.51,0.74c-0.77,0.49-1.38,1.16-1.83,2.01c-0.45,0.85-0.68,1.76-0.68,2.75
					c0,1.24,0.34,2.23,1.03,2.96c0.69,0.73,1.6,1.09,2.73,1.09C259.85,147.17,260.68,146.92,261.46,146.43z"/>
				<path class="st1" d="M285.75,134.17c1.05-0.52,2.2-0.78,3.44-0.81l-0.58,4.64c-0.15-0.02-0.36-0.03-0.64-0.03
					c-1.52,0-2.85,0.43-3.99,1.3c-1.14,0.87-1.87,1.97-2.19,3.3l-1.64,8.3h-4.95l3.44-17.31h4.95l-0.58,2.9
					C283.79,135.45,284.7,134.68,285.75,134.17z"/>
				<path class="st1" d="M298.75,145.11c-0.07,0.32-0.1,0.59-0.1,0.81c0,0.36,0.09,0.62,0.26,0.77c0.17,0.15,0.43,0.23,0.77,0.23
					c0.77,0,1.66-0.24,2.67-0.71l0.61,3.77c-0.71,0.36-1.46,0.64-2.25,0.84c-0.79,0.19-1.57,0.29-2.31,0.29
					c-1.44,0-2.59-0.37-3.46-1.13c-0.87-0.75-1.3-1.79-1.3-3.12c0-0.47,0.04-0.91,0.13-1.32l1.58-7.75h-2.38l0.64-3.44h2.41
					l0.97-4.76h4.89l-0.97,4.76h4.73l-0.64,3.44h-4.76L298.75,145.11z"/>
				<path class="st1" d="M328.09,133.56l-3.44,17.31h-4.92l3.44-17.31H328.09z M328.74,126.49c0.41,0.42,0.61,0.96,0.61,1.62
					c0,0.92-0.32,1.7-0.96,2.33c-0.64,0.63-1.42,0.95-2.32,0.95c-0.67,0-1.2-0.21-1.61-0.64c-0.41-0.43-0.61-0.98-0.61-1.64
					c0-0.92,0.32-1.69,0.95-2.31c0.63-0.62,1.4-0.93,2.3-0.93C327.78,125.87,328.33,126.08,328.74,126.49z"/>
				<path class="st1" d="M350.59,134.86c1.09,1.02,1.64,2.39,1.64,4.1c0,0.52-0.06,1.08-0.19,1.71l-2.06,10.2h-4.92l1.87-9.49
					c0.06-0.32,0.09-0.63,0.09-0.93c0-0.86-0.26-1.54-0.79-2.05c-0.52-0.5-1.26-0.75-2.2-0.75c-1.09,0-2.07,0.39-2.91,1.17
					c-0.85,0.78-1.4,1.81-1.66,3.07l-1.8,8.98h-4.96l3.41-17.31h4.99l-0.48,2.38c1.42-1.74,3.25-2.61,5.5-2.61
					C348,133.33,349.49,133.84,350.59,134.86z"/>
				<path class="st1" d="M372.29,150.08c-1.21-0.65-2.14-1.58-2.8-2.78c-0.65-1.2-0.98-2.58-0.98-4.15c0-1.89,0.42-3.57,1.26-5.05
					c0.84-1.48,2-2.63,3.49-3.46c1.49-0.83,3.18-1.24,5.07-1.24c1.65,0,3.09,0.32,4.31,0.95c1.22,0.63,2.17,1.53,2.83,2.69
					l-3.57,2.41c-0.41-0.6-0.93-1.06-1.58-1.39s-1.37-0.48-2.19-0.48c-0.88,0-1.67,0.22-2.36,0.66c-0.7,0.44-1.25,1.06-1.66,1.85
					c-0.41,0.79-0.61,1.69-0.61,2.7c0,1.24,0.33,2.25,1,3.01c0.67,0.76,1.56,1.14,2.67,1.14c1.8,0,3.21-0.68,4.22-2.03l3.18,2.31
					c-0.84,1.22-1.95,2.17-3.33,2.83c-1.38,0.67-2.95,1-4.71,1C374.91,151.06,373.5,150.74,372.29,150.08z"/>
				<path class="st1" d="M404.63,134.4c1.28,0.67,2.26,1.59,2.94,2.78c0.69,1.19,1.03,2.58,1.03,4.17c0,1.89-0.44,3.57-1.32,5.05
					s-2.09,2.63-3.64,3.44c-1.54,0.81-3.3,1.22-5.28,1.22c-1.69,0-3.18-0.33-4.47-1c-1.29-0.67-2.27-1.6-2.96-2.8
					c-0.69-1.2-1.03-2.6-1.03-4.18c0-1.89,0.44-3.57,1.32-5.04s2.09-2.61,3.64-3.43c1.55-0.82,3.3-1.22,5.28-1.22
					C401.86,133.4,403.35,133.73,404.63,134.4z M397.28,138.19c-0.73,0.45-1.3,1.08-1.72,1.88c-0.42,0.81-0.63,1.72-0.63,2.75
					c0,1.26,0.34,2.28,1.03,3.06c0.69,0.77,1.62,1.16,2.8,1.16c0.92,0,1.75-0.23,2.48-0.68c0.73-0.45,1.3-1.08,1.72-1.88
					c0.42-0.8,0.63-1.72,0.63-2.75c0-1.26-0.35-2.28-1.05-3.06c-0.7-0.77-1.62-1.16-2.78-1.16
					C398.83,137.51,398.01,137.74,397.28,138.19z"/>
				<path class="st1" d="M431.35,134.86c1.09,1.02,1.64,2.39,1.64,4.1c0,0.52-0.06,1.08-0.19,1.71l-2.06,10.2h-4.92l1.87-9.49
					c0.06-0.32,0.09-0.63,0.09-0.93c0-0.86-0.26-1.54-0.79-2.05c-0.52-0.5-1.26-0.75-2.2-0.75c-1.09,0-2.07,0.39-2.91,1.17
					c-0.85,0.78-1.4,1.81-1.66,3.07l-1.8,8.98h-4.96l3.41-17.31h4.99l-0.48,2.38c1.42-1.74,3.25-2.61,5.5-2.61
					C428.77,133.33,430.26,133.84,431.35,134.86z"/>
				<path class="st1" d="M445.06,145.11c-0.07,0.32-0.1,0.59-0.1,0.81c0,0.36,0.09,0.62,0.26,0.77c0.17,0.15,0.43,0.23,0.77,0.23
					c0.77,0,1.66-0.24,2.67-0.71l0.61,3.77c-0.71,0.36-1.46,0.64-2.25,0.84c-0.79,0.19-1.57,0.29-2.31,0.29
					c-1.44,0-2.59-0.37-3.46-1.13c-0.87-0.75-1.3-1.79-1.3-3.12c0-0.47,0.04-0.91,0.13-1.32l1.58-7.75h-2.38l0.64-3.44h2.41
					l0.97-4.76h4.89l-0.97,4.76h4.73l-0.64,3.44h-4.76L445.06,145.11z"/>
				<path class="st1" d="M465.85,134.17c1.05-0.52,2.2-0.78,3.44-0.81l-0.58,4.64c-0.15-0.02-0.36-0.03-0.64-0.03
					c-1.52,0-2.85,0.43-3.99,1.3c-1.14,0.87-1.87,1.97-2.19,3.3l-1.64,8.3h-4.95l3.44-17.31h4.95l-0.58,2.9
					C463.88,135.45,464.8,134.68,465.85,134.17z"/>
				<path class="st1" d="M487.04,134.4c1.28,0.67,2.26,1.59,2.94,2.78c0.69,1.19,1.03,2.58,1.03,4.17c0,1.89-0.44,3.57-1.32,5.05
					s-2.09,2.63-3.64,3.44c-1.54,0.81-3.3,1.22-5.28,1.22c-1.69,0-3.18-0.33-4.47-1c-1.29-0.67-2.27-1.6-2.96-2.8
					c-0.69-1.2-1.03-2.6-1.03-4.18c0-1.89,0.44-3.57,1.32-5.04c0.88-1.47,2.09-2.61,3.64-3.43c1.55-0.82,3.3-1.22,5.28-1.22
					C484.26,133.4,485.76,133.73,487.04,134.4z M479.68,138.19c-0.73,0.45-1.3,1.08-1.72,1.88c-0.42,0.81-0.63,1.72-0.63,2.75
					c0,1.26,0.34,2.28,1.03,3.06c0.69,0.77,1.62,1.16,2.8,1.16c0.92,0,1.75-0.23,2.48-0.68c0.73-0.45,1.3-1.08,1.72-1.88
					c0.42-0.8,0.63-1.72,0.63-2.75c0-1.26-0.35-2.28-1.05-3.06c-0.7-0.77-1.62-1.16-2.78-1.16
					C481.24,137.51,480.41,137.74,479.68,138.19z"/>
				<path class="st1" d="M505.71,126.99l-4.76,23.88H496l4.76-23.88H505.71z"/>
			</g>
		</g>
		<path class="st1" d="M482.13,56.76c2.64,0,4.78-2.14,4.78-4.77l0.02-27.08c0-2.63-2.14-4.77-4.77-4.77
			c-2.63,0-4.76,2.13-4.77,4.76l-0.02,27.08C477.37,54.61,479.5,56.76,482.13,56.76z"/>
	</g>
</g>
</svg>
