<svg xmlns="http://www.w3.org/2000/svg" viewBox="0 0 670.22 151.09"><defs><style>.cls-1{fill:#fff;}</style></defs><title>logofoot</title><g id="Laag_2" data-name="Laag 2"><path class="cls-1" d="M495.47,305.36a64.8,64.8,0,0,1-4.87,8,40.4,40.4,0,0,1-18.86,14.41,46.25,46.25,0,0,1-32.19-.79,41,41,0,0,1-22.08-22.08,39.75,39.75,0,0,1-3.15-15.63,39.23,39.23,0,0,1,3.3-16,41,41,0,0,1,9-13.12,43.83,43.83,0,0,1,13.41-8.89,41.22,41.22,0,0,1,16.41-3.3,46.23,46.23,0,0,1,10.83,1.37,41.05,41.05,0,0,1,11,4.44,42.76,42.76,0,0,1,9.82,8,39,39,0,0,1,7.38,11.9h-11a31.58,31.58,0,0,0-12.54-12.76,30.32,30.32,0,0,0-7.53-2.94,32.43,32.43,0,0,0-7.6-.93,34,34,0,0,0-11.54,2.08,31.57,31.57,0,0,0-10.4,6.16,32.74,32.74,0,0,0-7.53,10A30.53,30.53,0,0,0,424.35,289a32.36,32.36,0,0,0,2.44,12.48,31.54,31.54,0,0,0,17,17.2,35,35,0,0,0,23.8.93,29.88,29.88,0,0,0,8-4.08,30.26,30.26,0,0,0,5.52-5.16,28.39,28.39,0,0,0,3.37-5Z" transform="translate(-85.83 -222.09)"/><path class="cls-1" d="M168.81,328.2h-10l0-13.76h-.29a31.61,31.61,0,0,1-7.1,7.73,35.8,35.8,0,0,1-8.18,4.73,42,42,0,0,1-8.18,2.43A40.72,40.72,0,0,1,128,330a43.22,43.22,0,0,1-17.06-3.32,41.6,41.6,0,0,1-13.33-8.9,39.68,39.68,0,0,1-8.66-13.13,41.88,41.88,0,0,1-3.07-16,40.22,40.22,0,0,1,3-15.27,41.85,41.85,0,0,1,8.47-13.11,40.47,40.47,0,0,1,13.28-9.16A42.85,42.85,0,0,1,128,247.72a41.25,41.25,0,0,1,7.17.73,40.23,40.23,0,0,1,8.17,2.44,36.18,36.18,0,0,1,8.09,4.74,32.86,32.86,0,0,1,7.09,7.61h.29l0-41.15h10ZM95.87,289.13a33.4,33.4,0,0,0,2.28,12.4,29.89,29.89,0,0,0,6.51,10.12,31,31,0,0,0,10.18,6.82A33.25,33.25,0,0,0,128,321a30.36,30.36,0,0,0,12-2.42,32.17,32.17,0,0,0,10.05-6.66,31.25,31.25,0,0,0,6.82-10.1,33.48,33.48,0,0,0,.16-25.09,31.56,31.56,0,0,0-6.58-10.26,33.16,33.16,0,0,0-10-7A29.31,29.31,0,0,0,128,256.76,33,33,0,0,0,115.76,259a32.17,32.17,0,0,0-10.26,6.44,29.87,29.87,0,0,0-7,10.17A33.93,33.93,0,0,0,95.87,289.13Z" transform="translate(-85.83 -222.09)"/><path class="cls-1" d="M184.48,289.5a40.31,40.31,0,0,1,3.53-17,43.12,43.12,0,0,1,9.19-13.18,40.77,40.77,0,0,1,28.18-11.52,38.78,38.78,0,0,1,16.28,3.46,43.05,43.05,0,0,1,13,9.12,42.14,42.14,0,0,1,8.66,13.13,39.58,39.58,0,0,1,0,31,42.86,42.86,0,0,1-8.61,13.11,41.91,41.91,0,0,1-13.06,9.09,39.25,39.25,0,0,1-16.35,3.43,38.64,38.64,0,0,1-16.06-3.39,42.53,42.53,0,0,1-13-9,41.44,41.44,0,0,1-8.66-12.91A38.23,38.23,0,0,1,184.48,289.5Zm10-.13a31.13,31.13,0,0,0,2.57,12.7,32.45,32.45,0,0,0,6.87,10,31.52,31.52,0,0,0,9.89,6.6,29.31,29.31,0,0,0,11.61,2.38,29.91,29.91,0,0,0,11.26-2.21,31.16,31.16,0,0,0,9.9-6.37,32.13,32.13,0,0,0,7.11-10.17,33.16,33.16,0,0,0,2.74-13.76,30.57,30.57,0,0,0-2.93-13.7,31.52,31.52,0,0,0-7.44-9.9,33,33,0,0,0-10-6,30.06,30.06,0,0,0-10.54-2.08,29.32,29.32,0,0,0-10.9,2.14,31.7,31.7,0,0,0-17.3,16.54A32.85,32.85,0,0,0,194.51,289.37Z" transform="translate(-85.83 -222.09)"/><path class="cls-1" d="M278.4,289.6a40.24,40.24,0,0,1,3.53-17,43.51,43.51,0,0,1,9.18-13.18,40.53,40.53,0,0,1,13.06-8.52,39.69,39.69,0,0,1,15.13-3,38.55,38.55,0,0,1,16.27,3.46,42.8,42.8,0,0,1,13,9.12,42.15,42.15,0,0,1,8.66,13.12,39.58,39.58,0,0,1,0,31,42.71,42.71,0,0,1-8.62,13.11,41.84,41.84,0,0,1-13.05,9.1,39.12,39.12,0,0,1-16.35,3.42,38.47,38.47,0,0,1-16.06-3.38,42.71,42.71,0,0,1-13-9A41.76,41.76,0,0,1,281.53,305,38.22,38.22,0,0,1,278.4,289.6Zm10-.13A30.73,30.73,0,0,0,291,302.16a32.44,32.44,0,0,0,6.87,10,31.52,31.52,0,0,0,9.89,6.6,29.59,29.59,0,0,0,11.61,2.38A30,30,0,0,0,330.63,319a31.16,31.16,0,0,0,9.9-6.37,32.26,32.26,0,0,0,7.1-10.17,33.21,33.21,0,0,0,2.75-13.77A30.66,30.66,0,0,0,347.45,275a31.4,31.4,0,0,0-7.45-9.9,32.92,32.92,0,0,0-10-6A30,30,0,0,0,319.43,257a29.6,29.6,0,0,0-10.9,2.14,32.05,32.05,0,0,0-10,6.3,31.72,31.72,0,0,0-7.32,10.25A32.7,32.7,0,0,0,288.43,289.47Z" transform="translate(-85.83 -222.09)"/><path class="cls-1" d="M375.65,250h10v11.32H386a20.14,20.14,0,0,1,4.24-6.66,20.86,20.86,0,0,1,5.38-3.94,20.63,20.63,0,0,1,6.09-1.93c2.16-.33,4.28-.59,6.39-.78l0,10.61a29.84,29.84,0,0,0-9.68,2.36,19.49,19.49,0,0,0-7.24,5.36,25.68,25.68,0,0,0-4,7.39,26.56,26.56,0,0,0-1.45,8.81l0,45.89h-10Z" transform="translate(-85.83 -222.09)"/><path class="cls-1" d="M650.55,259.26a22.23,22.23,0,0,1,8.9-8.16,27,27,0,0,1,12.48-2.86,30.66,30.66,0,0,1,15.41,3.89,29.13,29.13,0,0,1,10.95,11.2q9.33-15.06,26.4-15a33.26,33.26,0,0,1,12.69,2.38,28.34,28.34,0,0,1,10,6.74A30.54,30.54,0,0,1,753.78,268a41,41,0,0,1,2.28,14.13l0,46.6H746l0-45.45q0-12.63-5.64-19.29t-15.7-6.69q-10,0-15.71,6.65t-5.68,19.28l0,45.45h-10l0-45.45q0-12.62-5.65-19.29t-15.69-6.68q-10,0-15.71,6.65t-5.68,19.28l0,45.45h-10l.08-78.43h10Z" transform="translate(-85.83 -222.09)"/><path class="cls-1" d="M584.52,250.34h-2.37v8.28h2.38c15.87,0,28.78,11.33,28.78,25.26v1.37c0,13.93-12.91,25.26-28.78,25.26H561.14l1.46,10.65c-8.84-3.59-23-12-28.83-15.93-7.09-4.83-11.16-12.11-11.16-20v-1.37c0-13.93,12.91-25.26,28.78-25.26h2.44v-8.28h-2.45c-21.07,0-38.22,15-38.22,33.54v1.37c0,10.45,5.4,20.11,14.82,26.52.28.2,29.16,19.27,40.15,19.27h5.32l-1.68-12.25h12.74c21.07,0,38.22-15,38.22-33.54v-1.37C622.74,265.39,605.59,250.34,584.52,250.34Z" transform="translate(-85.83 -222.09)"/><path class="cls-1" d="M281.53,372.28a10,10,0,0,1-3.68-2.41l2.09-3.06a9.72,9.72,0,0,0,2.9,1.95,7.59,7.59,0,0,0,3.08.76,2.88,2.88,0,0,0,1.65-.42,1.31,1.31,0,0,0,.61-1.13,1.23,1.23,0,0,0-.68-1.06,14.23,14.23,0,0,0-2.06-1A21.85,21.85,0,0,1,283,364.8a5.07,5.07,0,0,1-1.69-1.48,3.85,3.85,0,0,1-.71-2.36,5,5,0,0,1,.84-2.87,5.52,5.52,0,0,1,2.35-1.94,8.12,8.12,0,0,1,3.47-.7,12.1,12.1,0,0,1,4.09.73,11.06,11.06,0,0,1,3.54,2l-2.25,3.09a12.82,12.82,0,0,0-2.79-1.58,7,7,0,0,0-2.52-.58,2.36,2.36,0,0,0-1.42.42,1.23,1.23,0,0,0-.58,1,1.21,1.21,0,0,0,.68,1,12.93,12.93,0,0,0,2.06,1c1,.43,1.87.83,2.54,1.19a5.72,5.72,0,0,1,1.74,1.53,3.92,3.92,0,0,1,.74,2.4,4.88,4.88,0,0,1-.87,2.86,5.76,5.76,0,0,1-2.43,2,8.57,8.57,0,0,1-3.56.71A12.54,12.54,0,0,1,281.53,372.28Z" transform="translate(-85.83 -222.09)"/><path class="cls-1" d="M328.85,357a5.28,5.28,0,0,1,1.64,4.07,8.48,8.48,0,0,1-.19,1.74l-2,10.2h-4.95l1.89-9.49a4.36,4.36,0,0,0,.1-.94,2.7,2.7,0,0,0-.8-2,3.1,3.1,0,0,0-2.19-.75,4.17,4.17,0,0,0-2.91,1.17,5.57,5.57,0,0,0-1.66,3.07l-1.83,9H311l1.87-9.49a5.07,5.07,0,0,0,.09-.94,2.73,2.73,0,0,0-.78-2,3.08,3.08,0,0,0-2.21-.75,4.18,4.18,0,0,0-2.91,1.17,5.57,5.57,0,0,0-1.66,3.07l-1.8,9h-5l3.42-17.31h5l-.49,2.38a7.3,7.3,0,0,1,9.32-1.59,4.83,4.83,0,0,1,2,2.81,7.5,7.5,0,0,1,6.47-3.83A6.28,6.28,0,0,1,328.85,357Z" transform="translate(-85.83 -222.09)"/><path class="cls-1" d="M339.33,372.19a6.53,6.53,0,0,1-2.43-2.71,8.75,8.75,0,0,1-.87-4,10.83,10.83,0,0,1,1.2-5.09,9.22,9.22,0,0,1,3.34-3.63,8.7,8.7,0,0,1,4.69-1.32,6.63,6.63,0,0,1,3.48.86,5.43,5.43,0,0,1,2.15,2.49l.62-3.15h4.92L353,373h-4.93l.48-2.19a7.67,7.67,0,0,1-5.63,2.38A6.68,6.68,0,0,1,339.33,372.19Zm8-3.67a5.23,5.23,0,0,0,1.83-2,5.87,5.87,0,0,0,.68-2.79,4.07,4.07,0,0,0-1-2.92,3.59,3.59,0,0,0-2.73-1.1,4.63,4.63,0,0,0-2.52.74,5.38,5.38,0,0,0-1.83,2,5.8,5.8,0,0,0-.67,2.76,4.18,4.18,0,0,0,1,3,3.59,3.59,0,0,0,2.74,1.09A4.6,4.6,0,0,0,347.29,368.52Z" transform="translate(-85.83 -222.09)"/><path class="cls-1" d="M371.58,356.26a8.09,8.09,0,0,1,3.44-.81l-.57,4.64a5.32,5.32,0,0,0-.65,0,6.39,6.39,0,0,0-4,1.3,5.8,5.8,0,0,0-2.19,3.3L366,373h-5l3.44-17.31h5l-.58,2.89A7.69,7.69,0,0,1,371.58,356.26Z" transform="translate(-85.83 -222.09)"/><path class="cls-1" d="M384.58,367.2a4.52,4.52,0,0,0-.09.81,1,1,0,0,0,.25.77,1.16,1.16,0,0,0,.77.22,6.35,6.35,0,0,0,2.68-.71l.61,3.77a10.17,10.17,0,0,1-2.26.83,9.39,9.39,0,0,1-2.31.3,5.11,5.11,0,0,1-3.46-1.13,3.9,3.9,0,0,1-1.3-3.12,6.89,6.89,0,0,1,.12-1.32l1.58-7.76h-2.38l.64-3.44h2.42l1-4.76h4.89l-1,4.76h4.73l-.64,3.44h-4.77Z" transform="translate(-85.83 -222.09)"/><path class="cls-1" d="M413.93,355.65,410.48,373h-4.92L409,355.65Zm.64-7.06a2.2,2.2,0,0,1,.61,1.62,3.15,3.15,0,0,1-1,2.33,3.18,3.18,0,0,1-2.32.95,2.12,2.12,0,0,1-1.61-.64,2.28,2.28,0,0,1-.61-1.64,3.12,3.12,0,0,1,.95-2.32,3.16,3.16,0,0,1,2.3-.93A2.18,2.18,0,0,1,414.57,348.59Z" transform="translate(-85.83 -222.09)"/><path class="cls-1" d="M436.42,357a5.36,5.36,0,0,1,1.64,4.1,8.35,8.35,0,0,1-.19,1.71L435.81,373h-4.92l1.86-9.49a4.36,4.36,0,0,0,.1-.94,2.7,2.7,0,0,0-.79-2,3.06,3.06,0,0,0-2.2-.75,4.15,4.15,0,0,0-2.91,1.17,5.51,5.51,0,0,0-1.66,3.07l-1.8,9h-5l3.41-17.31h5l-.49,2.38a6.78,6.78,0,0,1,5.51-2.61A6.3,6.3,0,0,1,436.42,357Z" transform="translate(-85.83 -222.09)"/><path class="cls-1" d="M458.12,372.17a6.82,6.82,0,0,1-2.8-2.78,8.6,8.6,0,0,1-1-4.15,10,10,0,0,1,1.26-5.05,8.74,8.74,0,0,1,3.49-3.46,10.24,10.24,0,0,1,5.07-1.24,9.16,9.16,0,0,1,4.31.95,6.78,6.78,0,0,1,2.83,2.68l-3.57,2.42a4.07,4.07,0,0,0-1.58-1.39,4.83,4.83,0,0,0-2.19-.48,4.3,4.3,0,0,0-2.36.66,4.66,4.66,0,0,0-1.66,1.85,5.8,5.8,0,0,0-.61,2.7,4.38,4.38,0,0,0,1,3A3.36,3.36,0,0,0,463,369a5,5,0,0,0,4.22-2l3.18,2.31a8.37,8.37,0,0,1-3.33,2.84,10.83,10.83,0,0,1-4.72,1A8.75,8.75,0,0,1,458.12,372.17Z" transform="translate(-85.83 -222.09)"/><path class="cls-1" d="M490.46,356.49a7,7,0,0,1,2.94,2.78,8.17,8.17,0,0,1,1,4.17,9.71,9.71,0,0,1-1.32,5.05,9.07,9.07,0,0,1-3.64,3.44,11.06,11.06,0,0,1-5.28,1.22,9.68,9.68,0,0,1-4.47-1,7.09,7.09,0,0,1-3-2.8,8.29,8.29,0,0,1-1-4.19,9.61,9.61,0,0,1,1.32-5,9.12,9.12,0,0,1,3.64-3.43,11,11,0,0,1,5.27-1.22A9.5,9.5,0,0,1,490.46,356.49Zm-7.35,3.79a4.74,4.74,0,0,0-1.72,1.88,5.91,5.91,0,0,0-.63,2.76,4.4,4.4,0,0,0,1,3.05,3.57,3.57,0,0,0,2.8,1.16,4.63,4.63,0,0,0,2.48-.67,4.7,4.7,0,0,0,1.72-1.89,5.84,5.84,0,0,0,.63-2.75,4.41,4.41,0,0,0-1.05-3.06,3.57,3.57,0,0,0-2.78-1.16A4.62,4.62,0,0,0,483.11,360.28Z" transform="translate(-85.83 -222.09)"/><path class="cls-1" d="M517.18,357a5.33,5.33,0,0,1,1.65,4.1,8.41,8.41,0,0,1-.2,1.71L516.57,373h-4.92l1.87-9.49a5.07,5.07,0,0,0,.09-.94,2.7,2.7,0,0,0-.79-2,3,3,0,0,0-2.2-.75,4.18,4.18,0,0,0-2.91,1.17,5.57,5.57,0,0,0-1.66,3.07l-1.8,9h-5l3.42-17.31h5l-.48,2.38a6.77,6.77,0,0,1,5.5-2.61A6.28,6.28,0,0,1,517.18,357Z" transform="translate(-85.83 -222.09)"/><path class="cls-1" d="M530.9,367.2a3.85,3.85,0,0,0-.1.81,1,1,0,0,0,.26.77,1.14,1.14,0,0,0,.77.22,6.34,6.34,0,0,0,2.67-.71l.61,3.77a10.28,10.28,0,0,1-2.25.83,9.53,9.53,0,0,1-2.32.3,5.13,5.13,0,0,1-3.46-1.13,3.9,3.9,0,0,1-1.3-3.12,6.16,6.16,0,0,1,.13-1.32l1.57-7.76H525.1l.65-3.44h2.41l1-4.76H534l-1,4.76h4.73l-.64,3.44h-4.76Z" transform="translate(-85.83 -222.09)"/><path class="cls-1" d="M551.68,356.26a8.09,8.09,0,0,1,3.44-.81l-.58,4.64a5.14,5.14,0,0,0-.64,0,6.39,6.39,0,0,0-4,1.3,5.75,5.75,0,0,0-2.19,3.3l-1.64,8.3h-5l3.45-17.31h4.95l-.58,2.89A7.81,7.81,0,0,1,551.68,356.26Z" transform="translate(-85.83 -222.09)"/><path class="cls-1" d="M572.87,356.49a7.05,7.05,0,0,1,2.94,2.78,8.16,8.16,0,0,1,1,4.17,9.71,9.71,0,0,1-1.32,5.05,9,9,0,0,1-3.63,3.44,11.11,11.11,0,0,1-5.28,1.22,9.68,9.68,0,0,1-4.47-1,7,7,0,0,1-3-2.8,8.29,8.29,0,0,1-1-4.19,9.61,9.61,0,0,1,1.32-5,9.15,9.15,0,0,1,3.63-3.43,11.11,11.11,0,0,1,5.28-1.22A9.53,9.53,0,0,1,572.87,356.49Zm-7.35,3.79a4.76,4.76,0,0,0-1.73,1.88,6,6,0,0,0-.62,2.76,4.4,4.4,0,0,0,1,3.05,3.56,3.56,0,0,0,2.8,1.16,4.6,4.6,0,0,0,2.47-.67,4.73,4.73,0,0,0,1.73-1.89,6,6,0,0,0,.62-2.75,4.4,4.4,0,0,0-1-3.06A3.59,3.59,0,0,0,568,359.6,4.61,4.61,0,0,0,565.52,360.28Z" transform="translate(-85.83 -222.09)"/><path class="cls-1" d="M591.55,349.08,586.79,373h-5l4.76-23.88Z" transform="translate(-85.83 -222.09)"/><path class="cls-1" d="M568,278.85a4.78,4.78,0,0,0,4.78-4.78l0-27.08a4.77,4.77,0,0,0-9.54,0l0,27.08A4.78,4.78,0,0,0,568,278.85Z" transform="translate(-85.83 -222.09)"/></g></svg>