<svg id="Layer_1" data-name="Layer 1" xmlns="http://www.w3.org/2000/svg" viewBox="0 0 421.46 512"><defs><style>.cls-1{fill:#164c7c;fill-rule:evenodd;}</style></defs><title>sale</title><path class="cls-1" d="M362,473.48A56.55,56.55,0,0,1,292,509.57L83.52,439.2A56.54,56.54,0,0,1,48,367.52l82.38-244a56.22,56.22,0,0,1,22.35-29.08l99.07-82.52c6.39-5.59,17.07-9.79,25.4-11.17A56.5,56.5,0,0,1,304.47,3L379,28a56.55,56.55,0,0,1,37.51,43L445.22,196.7a56.66,56.66,0,0,1-1,32.78l-13.12,38.88A265.93,265.93,0,0,0,458.61,276a10,10,0,1,1-4.31,19.53,292.18,292.18,0,0,1-29.6-8.2ZM197.39,349.66a9.52,9.52,0,0,0-6.8-9.5l-52.06-17.52a10,10,0,0,0-6.36,19L184,359.05a9.8,9.8,0,0,0,3.44.61A10.38,10.38,0,0,0,197.39,349.66ZM265,365.22a10.26,10.26,0,0,0-12.82,9.63,9.41,9.41,0,0,0,6.42,9.34l.66.23,51.39,17.29a10,10,0,0,0,6.36-19Zm-40.47-12.85a10,10,0,1,0,10,10A10,10,0,0,0,224.57,352.37Zm70.2-227.62a10,10,0,1,1,20,.39c0,.11-.41,12.52,4,30.36l.9-.43a33.58,33.58,0,1,0-20.77,3C294.32,138.44,294.77,124.87,294.77,124.75ZM325,174.66c11.49,28.84,35.85,63.87,87.42,86.49l12.82-38.1a36.11,36.11,0,0,0,1.92-10.48,36.84,36.84,0,0,0-1.29-10.69L396.93,75.46a36.79,36.79,0,0,0-8.42-17.84A36.4,36.4,0,0,0,372.6,46.93L298.12,22a36.7,36.7,0,0,0-17.72-1.42c-1.47.24-12.7,4.46-16.14,7L164.07,111a36.55,36.55,0,0,0-14.71,18.94L67,373.88a36.56,36.56,0,0,0,22.9,46.33L296.64,490A36.57,36.57,0,0,0,343,467.14l63-186.91c-60.68-26-88.28-67.85-100.81-101.61A53.71,53.71,0,1,1,328.57,173C327.4,173.62,326.2,174.16,325,174.66ZM168.76,233.25l178.53,60.09a10,10,0,0,0,6.35-19L175.12,214.27a10,10,0,0,0-6.36,19Zm-18.3,54.19L329,347.52a10,10,0,1,0,6.35-19L156.82,268.46a10,10,0,0,0-6.36,19Z" transform="translate(-45 0)"/></svg>