<svg xmlns="http://www.w3.org/2000/svg" width="405.334" height="298.667" viewBox="0 0 405.334 298.667">
  <g id="list" transform="translate(-106.666 -106.667)">
    <g id="Group_2" data-name="Group 2">
      <g id="Group_1" data-name="Group 1">
        <path id="Path_4" data-name="Path 4" d="M501.333,106.667h-384a10.661,10.661,0,0,0-10.667,10.667v21.333a10.661,10.661,0,0,0,10.667,10.667h384A10.661,10.661,0,0,0,512,138.667V117.334A10.661,10.661,0,0,0,501.333,106.667Z"/>
        <path id="Path_5" data-name="Path 5" d="M501.333,234.667h-384a10.661,10.661,0,0,0-10.667,10.667v21.333a10.661,10.661,0,0,0,10.667,10.667h384A10.661,10.661,0,0,0,512,266.667V245.334A10.661,10.661,0,0,0,501.333,234.667Z"/>
        <path id="Path_6" data-name="Path 6" d="M501.333,362.667h-384a10.661,10.661,0,0,0-10.667,10.667v21.333a10.661,10.661,0,0,0,10.667,10.667h384A10.661,10.661,0,0,0,512,394.667V373.334A10.661,10.661,0,0,0,501.333,362.667Z"/>
      </g>
    </g>
  </g>
</svg>
