<svg xmlns="http://www.w3.org/2000/svg" viewBox="0 0 296.46 149.73"><defs><style>.cls-1{fill:#25dedb;fill-rule:evenodd;}</style></defs><title>Asset 1</title><g id="Layer_2" data-name="Layer 2"><g id="Capa_1" data-name="Capa 1"><path class="cls-1" d="M113.46,27.89c-37.92,3.31-42.63,54.28-5.08,63,3.6.83,25.29,1.21,45.05,1.16,1.52-6.37-12.62-27.36-18.93-46.11l35.85-16.59,4.85,10.48,7.7-1.67,2.28,10.5h7.75V89.26a35.32,35.32,0,0,0,17.23-15.4c12.2-22.87-7.06-43.92-27.76-46-2.13-9.61-5.67-14.8-11.15-19.46C153.75-6.41,121.12-2.71,113.46,27.89Z"/><path class="cls-1" d="M32.2,141.76a4.51,4.51,0,0,1,1.38,3.29,4.74,4.74,0,0,1-1.38,3.36,4.62,4.62,0,0,1-3.29,1.32,4.85,4.85,0,0,1-3.36-1.32L9.42,134.15V145a4.48,4.48,0,0,1-1.35,3.29,4.56,4.56,0,0,1-3.36,1.35,4.62,4.62,0,0,1-3.33-1.35A4.43,4.43,0,0,1,0,145v-34.9a4.44,4.44,0,0,1,1.38-3.25,4.54,4.54,0,0,1,3.33-1.39,4.48,4.48,0,0,1,3.36,1.39,4.49,4.49,0,0,1,1.35,3.25V121l16.13-14.12a4.71,4.71,0,0,1,3.36-1.39,4.65,4.65,0,0,1,3.29,8L16,127.57Z"/><path class="cls-1" d="M70.64,140.31a4.42,4.42,0,0,1,3.29,1.38,4.73,4.73,0,0,1,0,6.62,4.47,4.47,0,0,1-3.29,1.35H50.84a4.56,4.56,0,0,1-3.22-1.35A4.47,4.47,0,0,1,46.2,145V110.12a4.7,4.7,0,0,1,1.32-3.25,4.27,4.27,0,0,1,3.32-1.46h19.8a4.39,4.39,0,0,1,3.29,1.39,4.58,4.58,0,0,1,1.35,3.32,4.42,4.42,0,0,1-1.35,3.32,4.52,4.52,0,0,1-3.29,1.32H55.41v7.89H66A4.43,4.43,0,0,1,69.26,124a4.53,4.53,0,0,1,1.38,3.32,4.43,4.43,0,0,1-1.38,3.29A4.51,4.51,0,0,1,66,132H55.41v8.31Z"/><path class="cls-1" d="M112.35,140.31a4.41,4.41,0,0,1,3.28,1.38,4.73,4.73,0,0,1,0,6.62,4.46,4.46,0,0,1-3.28,1.35H92.54a4.56,4.56,0,0,1-3.22-1.35A4.47,4.47,0,0,1,87.9,145V110.12a4.7,4.7,0,0,1,1.32-3.25,4.29,4.29,0,0,1,3.32-1.46h19.81a4.38,4.38,0,0,1,3.28,1.39,4.58,4.58,0,0,1,1.35,3.32,4.42,4.42,0,0,1-1.35,3.32,4.51,4.51,0,0,1-3.28,1.32H97.11v7.89h10.6A4.43,4.43,0,0,1,111,124a4.54,4.54,0,0,1,1.39,3.32,4.44,4.44,0,0,1-1.39,3.29,4.51,4.51,0,0,1-3.25,1.35H97.11v8.31Z"/><path class="cls-1" d="M128.43,116.21v-6.16a4.48,4.48,0,0,1,1.35-3.29,4.39,4.39,0,0,1,3.22-1.35,4.56,4.56,0,0,1,3.36,1.35,4.48,4.48,0,0,1,1.35,3.29v6.16a6.49,6.49,0,0,0,6.64,6.65,6.54,6.54,0,0,0,4.78-1.9,6.39,6.39,0,0,0,1.94-4.75v-6.16a4.48,4.48,0,0,1,1.35-3.29,4.39,4.39,0,0,1,3.22-1.35,4.56,4.56,0,0,1,3.36,1.35,4.48,4.48,0,0,1,1.35,3.29v6.23a15.36,15.36,0,0,1-.87,5.16,16,16,0,0,1-2.39,4.47,15.61,15.61,0,0,1-8.24,5.61V145a4.48,4.48,0,0,1-1.35,3.29,4.39,4.39,0,0,1-3.22,1.35,4.55,4.55,0,0,1-3.35-1.35,4.48,4.48,0,0,1-1.35-3.29V131.45a15.84,15.84,0,0,1-4.47-2.22,15.66,15.66,0,0,1-3.53-3.46,16.28,16.28,0,0,1-2.32-4.43A15.59,15.59,0,0,1,128.43,116.21Z"/><path class="cls-1" d="M177,105.34h15.44a13.12,13.12,0,0,1,5.2,1,15.62,15.62,0,0,1,4.22,2.63,11.15,11.15,0,0,1,2.84,4,12.86,12.86,0,0,1,1,5.16,13.15,13.15,0,0,1-.87,4.85,13.81,13.81,0,0,1-2.39,4,13.29,13.29,0,0,1,3.26,8.73,15.17,15.17,0,0,1-1,5.47,12.69,12.69,0,0,1-2.84,4.5,13.77,13.77,0,0,1-4.22,2.87,12.65,12.65,0,0,1-5.2,1.08H176.64a5.32,5.32,0,0,1-3.4-1.32,4.67,4.67,0,0,1-1.31-3.32V109.91a3.63,3.63,0,0,1,.55-1.94,4.74,4.74,0,0,1,.9-1.24,4.29,4.29,0,0,1,2.84-1.39Zm15.44,35.11a4.15,4.15,0,0,0,3-1.21,6.12,6.12,0,0,0,0-7.41,4.12,4.12,0,0,0-3-1.22H181.07v9.84Zm0-17.8a4.06,4.06,0,0,0,3-1.24,4.17,4.17,0,0,0,1.25-3,4,4,0,0,0-1.25-2.94,4.12,4.12,0,0,0-3-1.22H181.07v8.45Z"/><path class="cls-1" d="M234.4,149.66a17.44,17.44,0,0,1-6.51-1.22,16.27,16.27,0,0,1-5.33-3.39,17,17,0,0,1-3.67-5.16,15.1,15.1,0,0,1-1.38-6.44V122.17a16.51,16.51,0,0,1,1.28-6.51,16.7,16.7,0,0,1,3.53-5.33,16.37,16.37,0,0,1,5.3-3.6,16.87,16.87,0,0,1,6.78-1.32,17.21,17.21,0,0,1,6.37,1.21,16.36,16.36,0,0,1,5.33,3.4,16.72,16.72,0,0,1,3.67,5.15,15,15,0,0,1,1.39,6.44V132.9a16.69,16.69,0,0,1-1.28,6.51,16.86,16.86,0,0,1-3.53,5.33,16.57,16.57,0,0,1-11.95,4.92Zm7.76-27.49a7.8,7.8,0,0,0-.59-3,7.22,7.22,0,0,0-1.66-2.46,8.39,8.39,0,0,0-2.5-1.66,7.47,7.47,0,0,0-3.08-.63,7.74,7.74,0,0,0-3,.59,8.17,8.17,0,0,0-2.43,1.56,7.4,7.4,0,0,0-1.66,2.35,7.14,7.14,0,0,0-.62,2.91V132.9a6.93,6.93,0,0,0,.52,3,7.09,7.09,0,0,0,1.66,2.46,8.48,8.48,0,0,0,2.49,1.66,7.87,7.87,0,0,0,3.22.62,7.38,7.38,0,0,0,2.91-.58,8.53,8.53,0,0,0,2.42-1.56,7.21,7.21,0,0,0,1.67-2.36,7.06,7.06,0,0,0,.62-2.9Z"/><path class="cls-1" d="M279.7,149.66a17.39,17.39,0,0,1-6.5-1.22,16.21,16.21,0,0,1-5.34-3.39,17,17,0,0,1-3.67-5.16,15.1,15.1,0,0,1-1.38-6.44V122.17a16.77,16.77,0,0,1,4.81-11.84,16.37,16.37,0,0,1,5.3-3.6,16.87,16.87,0,0,1,6.78-1.32,17.21,17.21,0,0,1,6.37,1.21,16.4,16.4,0,0,1,5.34,3.4,17.06,17.06,0,0,1,3.67,5.15,15.17,15.17,0,0,1,1.38,6.44V132.9a16.63,16.63,0,0,1-10.11,15.44,16.52,16.52,0,0,1-6.65,1.32Zm7.76-27.49a7.8,7.8,0,0,0-.59-3,7.22,7.22,0,0,0-1.66-2.46,8.48,8.48,0,0,0-2.49-1.66,7.54,7.54,0,0,0-3.08-.63,7.75,7.75,0,0,0-3.05.59,8.12,8.12,0,0,0-2.42,1.56,7.27,7.27,0,0,0-1.67,2.35,7.14,7.14,0,0,0-.62,2.91V132.9a6.93,6.93,0,0,0,.52,3,7.22,7.22,0,0,0,1.66,2.46,8.48,8.48,0,0,0,2.49,1.66,7.87,7.87,0,0,0,3.22.62,7.38,7.38,0,0,0,2.91-.58,8.58,8.58,0,0,0,2.43-1.56,7.33,7.33,0,0,0,1.66-2.36,7.06,7.06,0,0,0,.62-2.9Z"/><path class="cls-1" d="M139.36,45.94l27.85-12.89a2.32,2.32,0,0,1,3.06,1.13l3.71,8,5-1.1a2.32,2.32,0,0,1,2.74,1.77l1.71,7.84h5.05a2.31,2.31,0,0,1,2.31,2.3V94.46a2.32,2.32,0,0,1-2.31,2.31H157.84a2.32,2.32,0,0,1-2.31-2.31v-6.1l-.81-3.76L138.24,49a2.32,2.32,0,0,1,1.12-3.06Zm42.12,4.76L179.8,43l-30.69,6.67,6.42,29.58V53a2.31,2.31,0,0,1,2.31-2.3Zm-24,2V94.46h31.41V52.69Zm5.37,7.6a.89.89,0,0,0-.89.88h0a.89.89,0,0,0,.89.89h20.68a.89.89,0,0,0,.89-.89h0a.89.89,0,0,0-.89-.88Zm0,6.29a.89.89,0,0,0-.89.89h0a.89.89,0,0,0,.89.89h20.68a.89.89,0,0,0,.89-.89h0a.89.89,0,0,0-.89-.89Zm0,6.21a.89.89,0,0,0-.89.89h0a.88.88,0,0,0,.89.88h20.68a.88.88,0,0,0,.89-.88h0a.89.89,0,0,0-.89-.89Zm0,6.12a.89.89,0,0,0-.89.89h0a.89.89,0,0,0,.89.88h20.68a.89.89,0,0,0,.89-.88h0a.89.89,0,0,0-.89-.89Zm0,6.21A.89.89,0,0,0,162,86h0a.89.89,0,0,0,.89.89h20.68a.89.89,0,0,0,.89-.89h0a.89.89,0,0,0-.89-.88ZM172,42.61l-3.65-7.9-28.51,13.2,12.95,28,1.47,6.76-7-32.3A2.31,2.31,0,0,1,149,47.61l23-5Zm-17.74,40,.43,1.95h0Z"/></g></g></svg>