<?xml version="1.0"?>
<svg xmlns="http://www.w3.org/2000/svg" xmlns:xlink="http://www.w3.org/1999/xlink" xmlns:svgjs="http://svgjs.com/svgjs" version="1.1" width="512" height="512" x="0" y="0" viewBox="0 0 64 64" style="enable-background:new 0 0 512 512" xml:space="preserve" class=""><g><path xmlns="http://www.w3.org/2000/svg" d="m32 57h24c.552 0 1-.448 1-1v-24c0-.552-.448-1-1-1h-24c-.552 0-1 .448-1 1v24c0 .552.448 1 1 1zm1-2v-2h22v2zm6-14h-2v-4h2zm16 2v8h-2v-5c0-.552-.448-1-1-1h-6c-.552 0-1 .448-1 1v5h-2v-5c0-.552-.448-1-1-1h-6c-.552 0-1 .448-1 1v5h-2v-8zm-4-2h-2v-4h2zm-4 0h-2v-4h2zm4 10h-4v-4h4zm-10 0h-4v-4h4zm14-18v8h-2v-5c0-.552-.448-1-1-1h-8c-.552 0-1 .448-1 1v5h-2v-5c0-.552-.448-1-1-1h-4c-.552 0-1 .448-1 1v5h-2v-8z" fill="#f3cf18" data-original="#000000" style="" class=""/><path xmlns="http://www.w3.org/2000/svg" d="m21 47h2v4h-2z" fill="#f3cf18" data-original="#000000" style="" class=""/><path xmlns="http://www.w3.org/2000/svg" d="m13 47h2v4h-2z" fill="#f3cf18" data-original="#000000" style="" class=""/><path xmlns="http://www.w3.org/2000/svg" d="m29 15v3c0 .552.448 1 1 1h4c.552 0 1-.448 1-1v-3h3c.552 0 1-.448 1-1v-4c0-.552-.448-1-1-1h-3v-3c0-.552-.448-1-1-1h-4c-.552 0-1 .448-1 1v3h-3c-.552 0-1 .448-1 1v4c0 .552.448 1 1 1zm-2-4h3c.552 0 1-.448 1-1v-3h2v3c0 .552.448 1 1 1h3v2h-3c-.552 0-1 .448-1 1v3h-2v-3c0-.552-.448-1-1-1h-3z" fill="#f3cf18" data-original="#000000" style="" class=""/><path xmlns="http://www.w3.org/2000/svg" d="m62 11h-19.051c-.507-5.598-5.221-10-10.949-10s-10.442 4.402-10.949 10h-19.051c-.552 0-1 .448-1 1v14c0 .552.448 1 1 1h1v35c0 .552.448 1 1 1h56c.552 0 1-.448 1-1v-35h1c.552 0 1-.448 1-1v-14c0-.552-.448-1-1-1zm-30-8c4.962 0 9 4.038 9 9s-4.038 9-9 9-9-4.038-9-9 4.038-9 9-9zm-5 58h-8v-24h8zm-10 0h-8v-24h8zm42 0h-30v-25c0-.552-.448-1-1-1h-20c-.552 0-1 .448-1 1v25h-2v-34h54zm2-36h-1-56-1v-12h18.051c.507 5.598 5.221 10 10.949 10s10.442-4.402 10.949-10h18.051z" fill="#f3cf18" data-original="#000000" style="" class=""/></g></svg>
