<?xml version="1.0" encoding="utf-8"?>
<!-- Generator: Adobe Illustrator 19.0.0, SVG Export Plug-In . SVG Version: 6.00 Build 0)  -->
<svg version="1.1" id="Capa_1" xmlns="http://www.w3.org/2000/svg" xmlns:xlink="http://www.w3.org/1999/xlink" x="0px" y="0px"
	 viewBox="-49 141 512 512" style="enable-background:new -49 141 512 512;" xml:space="preserve">
<style type="text/css">
	.st0{fill:url(#SVGID_1_);}
</style>
<g>
	<linearGradient id="SVGID_1_" gradientUnits="userSpaceOnUse" x1="207.9995" y1="653" x2="207.9995" y2="140.9998">
		<stop  offset="0" style="stop-color:#E1B82A"/>
		<stop  offset="0.6355" style="stop-color:#E58830"/>
	</linearGradient>
	<path class="st0" d="M355.8,475.5l-30-8.8L260.4,424v-9.8c18.9-14.3,31.9-36.1,34.3-61.1c9.5-1.5,16.8-9.8,16.8-19.7v-26.9
		c0-0.1,0-0.2,0-0.3v-34.1c3.8-2.7,6.2-7.1,6.2-12.1v-31.2l45.1-7.7c7.4-1.3,12.7-7.2,13.3-14.7c0.5-7.5-3.9-14.1-11.1-16.4
		l-152.1-48.4c-3.2-1-6.5-1-9.7,0L51,190.1c-7.2,2.3-11.6,8.9-11.1,16.4c0.3,4.8,2.6,8.9,6.1,11.6v40.8h-0.4
		c-8.6,0-15.5,7-15.5,15.5v20.2l-10,58.9c-1.7,10.2,6.1,19.5,16.5,19.5h33.9c10.3,0,18.2-9.3,16.5-19.5l-10-58.9v-20.2
		c0-8.6-7-15.5-15.5-15.5h-0.4v-36.4l37.3,6.4V260c0,4.9,2.4,9.3,6.2,12l0,34.4v26.9c0,9.9,7.3,18.2,16.8,19.7
		c2.4,25,15.4,46.8,34.3,61.1v9.8l-65.4,42.7l-30,8.8c-32.1,9.4-54.8,38.9-54.8,73.2v22.4c0,4.1,3.4,7.5,7.5,7.5s7.5-3.4,7.5-7.5
		v-22.4c0-27,18.1-51.2,44-58.8l28-8.2l111.8,66.4c2.3,1.3,5.3,1.4,7.7,0l111.8-66.4l28,8.2c25.9,7.6,44,31.8,44,58.8v72.4
		c0,9.3-7.6,16.8-16.9,16.8h-33.1v-32.3c0-4.1-3.4-7.5-7.5-7.5c-4.1,0-7.5,3.4-7.5,7.5V638H85.3v-32.3c0-4.1-3.4-7.5-7.5-7.5
		s-7.5,3.4-7.5,7.5V638h-33c-9.3,0-16.8-7.6-16.8-16.8v-15c0-4.1-3.4-7.5-7.5-7.5s-7.5,3.4-7.5,7.5v15c0,17.6,14.3,31.8,31.8,31.8
		h341.5c17.6,0,31.8-14.3,31.8-31.8v-72.4C410.6,515.2,388.7,485.2,355.8,475.5L355.8,475.5z M70.5,358H36.6c-1,0-1.8-0.9-1.7-2
		l9.1-53.2h19.2l9.1,53.2C72.4,357,71.6,358,70.5,358z M62,274.4v13.4H45.1v-13.4c0-0.3,0.2-0.5,0.5-0.5h15.7
		C61.7,273.8,62,274.1,62,274.4z M181.2,514.2l3,4.6l-76.6-45.5l48.6-31.7C158.4,467.4,166.9,492.3,181.2,514.2z M181.1,481.8
		c17.7,2.5,36.1,2.5,53.7,0c-3.4,8.4-7.6,16.5-12.6,24.2L208,527.9L193.7,506C188.7,498.3,184.5,490.2,181.1,481.8L181.1,481.8z
		 M234.8,514.2c14.3-21.9,22.8-46.8,25-72.7l48.6,31.7l-76.6,45.5L234.8,514.2z M278.7,274.9h17.8V299h-8.8c-4.9,0-9-4-9-9
		L278.7,274.9L278.7,274.9z M55.6,204.4L207.7,156c0.2-0.1,0.4-0.1,0.6,0l152.1,48.4c0.3,0.1,0.7,0.2,0.7,1
		c-0.1,0.8-0.5,0.9-0.8,0.9l-50.3,8.6l-18.9-2.3c-4.1-0.5-7.9,2.4-8.4,6.5c-0.5,4.1,2.4,7.9,6.5,8.4l13.4,1.7v30.7l-189.3,0v-30.7
		l77.6-9.6c11.3-1.4,22.8-1.4,34.1,0l29.4,3.6c4.1,0.5,7.9-2.4,8.4-6.5c0.5-4.1-2.4-7.9-6.5-8.4l-29.4-3.6
		c-12.5-1.5-25.2-1.5-37.7,0L106,214.9l-50.3-8.6c-0.3-0.1-0.8-0.1-0.8-0.9C54.8,204.7,55.3,204.5,55.6,204.4L55.6,204.4z
		 M119.5,299l0-24.1h17.8V290c0,4.9-4,9-9,9L119.5,299L119.5,299z M136,349.2c-0.4-6.1-5.5-10.9-11.6-10.9c-2.7,0-4.9-2.2-4.9-4.9
		V314h8.8c13.2,0,24-10.7,24-24v-15.1h111.4V290c0,13.2,10.7,24,24,24h8.8v19.4c0,2.7-2.2,4.9-4.9,4.9c-6.1,0-11.2,4.8-11.6,10.9
		c-2.4,37.9-34,67.5-72,67.5S138.4,387.1,136,349.2L136,349.2z M208,431.8c13.3,0,26-3,37.4-8.5v4.8c0,12.8-1.7,25.5-5.1,37.7
		c-20.4,3.9-43.4,4-64.6,0c-3.3-12.2-5.1-24.8-5.1-37.7c0-0.2,0-0.3,0-0.5c0,0,0-0.1,0-0.1v-4.2C182,428.7,194.6,431.8,208,431.8
		L208,431.8z"/>
</g>
</svg>
