<?xml version="1.0" encoding="utf-8"?>
<!-- Generator: Adobe Illustrator 19.0.0, SVG Export Plug-In . SVG Version: 6.00 Build 0)  -->
<svg version="1.1" id="Layer_1" xmlns="http://www.w3.org/2000/svg" xmlns:xlink="http://www.w3.org/1999/xlink" x="0px" y="0px"
	 viewBox="-49 141 512 512" style="enable-background:new -49 141 512 512;" xml:space="preserve">
<style type="text/css">
	.st0{fill:url(#SVGID_1_);}
	.st1{fill:url(#SVGID_2_);}
	.st2{fill:url(#SVGID_3_);}
	.st3{fill:url(#SVGID_4_);}
	.st4{fill:url(#SVGID_5_);}
	.st5{fill:url(#SVGID_6_);}
	.st6{fill:url(#SVGID_7_);}
	.st7{fill:url(#SVGID_8_);}
	.st8{fill:url(#SVGID_9_);}
	.st9{fill:url(#SVGID_10_);}
	.st10{fill:url(#SVGID_11_);}
	.st11{fill:url(#SVGID_12_);}
	.st12{fill:url(#SVGID_13_);}
	.st13{fill:url(#SVGID_14_);}
	.st14{fill:url(#SVGID_15_);}
	.st15{fill:url(#SVGID_16_);}
	.st16{fill:url(#SVGID_17_);}
	.st17{fill:url(#SVGID_18_);}
	.st18{fill:url(#SVGID_19_);}
	.st19{fill:url(#SVGID_20_);}
</style>
<g>
	<g>
		<linearGradient id="SVGID_1_" gradientUnits="userSpaceOnUse" x1="187.5688" y1="536.979" x2="187.5688" y2="518.2104">
			<stop  offset="0" style="stop-color:#E1B82A"/>
			<stop  offset="0.6355" style="stop-color:#E58830"/>
		</linearGradient>
		<path class="st0" d="M193.2,519.9c-3.9-2.8-9.3-2-12.1,1.9l-1.1,1.5c-2.8,3.9-2,9.3,1.8,12.1c1.5,1.1,3.3,1.7,5.1,1.7
			c2.7,0,5.3-1.2,7-3.5l1.1-1.5C197.9,528.1,197.1,522.7,193.2,519.9z"/>
	</g>
</g>
<g>
	<g>
		<linearGradient id="SVGID_2_" gradientUnits="userSpaceOnUse" x1="175.4385" y1="615.069" x2="175.4385" y2="519.6677">
			<stop  offset="0" style="stop-color:#E1B82A"/>
			<stop  offset="0.6355" style="stop-color:#E58830"/>
		</linearGradient>
		<path class="st1" d="M195.5,602.2l-22.3-40.5l20.8-28.3c2.8-3.9,2-9.3-1.9-12.1c-3.9-2.8-9.3-2-12.1,1.9L156,556
			c-2,2.7-2.2,6.3-0.6,9.3l24.9,45.3v0c1.6,2.9,4.5,4.5,7.6,4.5c1.4,0,2.8-0.3,4.2-1.1C196.3,611.7,197.8,606.4,195.5,602.2z"/>
	</g>
</g>
<g>
	<g>
		<linearGradient id="SVGID_3_" gradientUnits="userSpaceOnUse" x1="240.637" y1="614.801" x2="240.637" y2="519.8042">
			<stop  offset="0" style="stop-color:#E1B82A"/>
			<stop  offset="0.6355" style="stop-color:#E58830"/>
		</linearGradient>
		<path class="st2" d="M260,556l-24-32.6c-2-2.7-5.4-4-8.6-3.4c-3.3,0.6-5.9,3.1-6.7,6.4c-0.6,2.5-0.1,5.1,1.4,7.2l20.7,28.2
			L220.7,602c-0.7,1.3-1.1,2.7-1.1,4.2c0,4,2.7,7.4,6.5,8.4c0.7,0.2,1.4,0.3,2.2,0.3c3.1,0,6-1.7,7.6-4.5l24.8-45
			C262.2,562.3,262,558.7,260,556z"/>
	</g>
</g>
<g>
	<g>
		<linearGradient id="SVGID_4_" gradientUnits="userSpaceOnUse" x1="208.001" y1="508.421" x2="208.001" y2="418.9387">
			<stop  offset="0" style="stop-color:#E1B82A"/>
			<stop  offset="0.6355" style="stop-color:#E58830"/>
		</linearGradient>
		<path class="st3" d="M273.7,419.9c-2.8-1.5-6.3-1.3-8.9,0.5c-5.1,3.5-9.9,7.3-14.2,11.2c-23.3,21.1-45.4,18.2-46.3,18.1
			c-0.5-0.1-1.1-0.1-1.6-0.1c-9.2,0.2-25.8-8.2-43.4-22c-2.7-2.1-5.4-4.1-8.2-6c-2.7-1.8-6.1-2-8.9-0.5c-2.8,1.5-4.6,4.4-4.6,7.6
			v29.7c0,2.6,1.2,5.1,3.2,6.8c0.2,0.2,0.5,0.4,0.8,0.5l61.4,41c0,0,0,0,0,0l0.2,0.1c1.4,1,3.1,1.4,4.8,1.4c1.4,0,2.8-0.3,4.1-1
			c0.3-0.1,0.5-0.3,0.8-0.5c0,0,0.1,0,0.1-0.1c0,0,0.1,0,0.1-0.1l61.2-40.9c0.2-0.2,0.5-0.3,0.7-0.5c2.1-1.6,3.3-4.2,3.3-6.8v-31
			C278.4,424.4,276.6,421.4,273.7,419.9z M261,453.9l-53,35.4l-53-35.4V446c12.9,9.4,31.9,20.9,47.4,20.9c0,0,0.1,0,0.1,0
			c5.2,0.6,31.7,2.1,58.6-21.4L261,453.9L261,453.9z"/>
	</g>
</g>
<g>
	<g>
		<linearGradient id="SVGID_5_" gradientUnits="userSpaceOnUse" x1="198.0521" y1="535.525" x2="198.0521" y2="491.1102">
			<stop  offset="0" style="stop-color:#E1B82A"/>
			<stop  offset="0.6355" style="stop-color:#E58830"/>
		</linearGradient>
		<path class="st4" d="M216.5,498.3c-0.6-3.4-3.1-6.2-6.5-7c-3.4-0.8-6.9,0.5-9,3.3l-19.9,27.1c-2.8,3.9-2,9.3,1.9,12.1
			c1.5,1.1,3.3,1.7,5.1,1.7c2.7,0,5.3-1.2,7-3.5l19.8-27c1.1-1.5,1.8-3.3,1.8-5.3C216.7,499.3,216.6,498.8,216.5,498.3z"/>
	</g>
</g>
<g>
	<g>
		<linearGradient id="SVGID_6_" gradientUnits="userSpaceOnUse" x1="208.192" y1="350.739" x2="208.192" y2="142.04">
			<stop  offset="0" style="stop-color:#E1B82A"/>
			<stop  offset="0.6355" style="stop-color:#E58830"/>
		</linearGradient>
		<path class="st5" d="M339.9,219.3c-0.2-1.4-4.2-30.6-31.8-42.2c0.8-5.1,0.7-11.7-2.5-18.2c-4.4-8.6-13-14.3-25.7-16.7
			c-0.5-0.1-1.1-0.2-1.7-0.2H162c-47.2,0-85.6,38.4-85.6,85.6v45.6c0,11.9,4,23.5,11.4,32.6c3.6,4.5,8.1,12.5,8.8,24.4
			c0.3,4.7,4.2,8.3,8.9,8.2c4.7-0.1,8.4-4,8.4-8.7v-59.4c5.9-24.3,25.9-29,29.4-29.7h37.6c4.4,0,8.8-0.7,12.9-2
			c7.1-2.3,18.5-6.5,26.7-9.6c5.5-2.1,11.6-2.2,17.2-0.2l40.2,14.1c20.1,7.4,23.7,25.1,24.1,27.9v71.3c0,4.5,3.5,8.3,8,8.6
			c0.2,0,0.4,0,0.7,0c4.2,0,7.9-3.1,8.6-7.4c0-0.2,3.5-22.5,14.6-40.4c3.9-6.2,5.9-13.3,5.9-20.5v-62.1
			C340,220,339.9,219.6,339.9,219.3z M322.6,282.4c0,3.9-1.1,7.7-3.2,11.1v-23.4c0-0.3,0-0.6-0.1-0.9c-0.1-1.3-3.7-30.9-35.5-42.6
			c0,0-0.1,0-0.1,0l-40.3-14.1c-4.5-1.6-9.3-2.4-14-2.4c-5.1,0-10.2,0.9-15,2.8c-11.6,4.4-20.5,7.6-25.9,9.3c-2.4,0.8-5,1.2-7.6,1.2
			h-38.3c-0.4,0-0.7,0-1.1,0.1c-1.5,0.2-36,5.1-44.7,44c-0.1,0.6-0.2,1.3-0.2,1.9v17.8c-1.9-4.4-2.9-9.1-2.9-14v-45.6
			c0-37.6,30.6-68.2,68.2-68.2h115.3c4.8,1,10.6,3.1,12.8,7.3c2.7,5.2-0.4,12.4-0.4,12.4c-1.1,2.4-1.1,5.1,0,7.4
			c1.1,2.3,3.2,4.1,5.8,4.7c22,5.3,26.5,26.4,27.1,29.9L322.6,282.4L322.6,282.4z"/>
	</g>
</g>
<g>
	<g>
		<linearGradient id="SVGID_7_" gradientUnits="userSpaceOnUse" x1="208.0545" y1="467.191" x2="208.0545" y2="210.0456">
			<stop  offset="0" style="stop-color:#E1B82A"/>
			<stop  offset="0.6355" style="stop-color:#E58830"/>
		</linearGradient>
		<path class="st6" d="M319.4,269.2c-0.1-1.3-3.7-30.9-35.5-42.6c0,0-0.1,0-0.1,0l-40.3-14.1c-9.4-3.3-19.8-3.2-29.1,0.4
			c-11.6,4.4-20.5,7.6-25.9,9.3c-2.4,0.8-5,1.2-7.6,1.2h-38.3c-0.4,0-0.7,0-1.1,0.1c-1.5,0.2-36,5.1-44.7,44
			c-0.1,0.6-0.2,1.3-0.2,1.9v74.4c0,0.1,0,0.1,0,0.2c0.1,2.6,1.9,63.6,44.1,91.6l0.2,0.2c0.2,0.1,0.4,0.3,0.6,0.4
			c2.4,1.6,4.8,3.4,7.2,5.2c12.3,9.6,35.4,25.7,53.7,25.7c0,0,0.1,0,0.1,0c1,0.1,2.8,0.3,5.2,0.3c10.4,0,32.4-2.7,54.6-22.7
			c3.7-3.4,7.9-6.6,12.4-9.8l0.6-0.5c0.2-0.1,0.4-0.3,0.6-0.4c14.1-9.5,38.4-33.8,43.6-91c0-0.3,0-0.5,0-0.8v-71.9
			C319.5,269.8,319.5,269.5,319.4,269.2z M302.2,341.7c-4.7,51.6-26.7,71.6-35.9,77.8c-0.3,0.2-0.7,0.4-1,0.7l-0.5,0.3
			c-5.1,3.5-9.9,7.3-14.2,11.2c-23.2,21-45.3,18.2-46.4,18.1c-0.5-0.1-1-0.1-1.5-0.1c-9.2,0.2-25.8-8.2-43.4-22
			c-2.7-2.1-5.4-4.1-8.2-6l-0.2-0.1c-0.2-0.1-0.4-0.3-0.7-0.5c-34-22.5-36.3-75.3-36.3-77.4v-73.3c5.9-24.4,26.1-29.1,29.4-29.7
			h37.6c4.4,0,8.8-0.7,12.9-2c7.1-2.3,18.5-6.5,26.7-9.6c5.5-2.1,11.6-2.2,17.2-0.2l40.2,14.1c20.1,7.4,23.7,25.1,24.1,27.9
			L302.2,341.7L302.2,341.7z"/>
	</g>
</g>
<g>
	<g>
		<linearGradient id="SVGID_8_" gradientUnits="userSpaceOnUse" x1="197.6309" y1="536.67" x2="197.6309" y2="491.1133">
			<stop  offset="0" style="stop-color:#E1B82A"/>
			<stop  offset="0.6355" style="stop-color:#E58830"/>
		</linearGradient>
		<path class="st7" d="M215.7,495.9c-1.3-2.7-4-4.5-7-4.8c-3-0.2-5.9,1.1-7.7,3.5l-20.7,28.2c-2.8,3.9-2,9.3,1.8,12.1
			c1.5,1.1,3.3,1.7,5.1,1.7c2.7,0,5.3-1.2,7-3.5L215,505c1.1-1.5,1.7-3.4,1.7-5.2C216.7,498.4,216.3,497.1,215.7,495.9z"/>
	</g>
</g>
<g>
	<g>
		<linearGradient id="SVGID_9_" gradientUnits="userSpaceOnUse" x1="209.0521" y1="651.833" x2="209.0521" y2="632.6019">
			<stop  offset="0" style="stop-color:#E1B82A"/>
			<stop  offset="0.6355" style="stop-color:#E58830"/>
		</linearGradient>
		<path class="st8" d="M216.3,635.3c-3.3-3.4-8.6-3.6-12.1-0.4l-2,1.8c-3,2.7-3.7,7.1-1.7,10.6l0.1,0.1c1.3,2.4,3.7,4,6.4,4.4
			c0.4,0.1,0.8,0.1,1.2,0.1c2.3,0,4.5-0.9,6.1-2.5l1.9-1.9C219.5,644.1,219.5,638.7,216.3,635.3z"/>
	</g>
</g>
<g>
	<g>
		<linearGradient id="SVGID_10_" gradientUnits="userSpaceOnUse" x1="206.9475" y1="651.835" x2="206.9475" y2="632.6026">
			<stop  offset="0" style="stop-color:#E1B82A"/>
			<stop  offset="0.6355" style="stop-color:#E58830"/>
		</linearGradient>
		<path class="st9" d="M213.8,636.7l-2-1.8c-3.5-3.2-8.8-3-12.1,0.4c-3.3,3.4-3.2,8.8,0.1,12.1l1.9,1.9c1.6,1.6,3.8,2.5,6.1,2.5
			c0.4,0,0.8,0,1.2-0.1c2.7-0.4,5.1-2,6.4-4.4l0.1-0.1C217.4,643.7,216.7,639.4,213.8,636.7z"/>
	</g>
</g>
<g>
	<g>
		<linearGradient id="SVGID_11_" gradientUnits="userSpaceOnUse" x1="207.9986" y1="651.959" x2="207.9986" y2="634.4717">
			<stop  offset="0" style="stop-color:#E1B82A"/>
			<stop  offset="0.6355" style="stop-color:#E58830"/>
		</linearGradient>
		<path class="st10" d="M213.9,636.8L213.9,636.8c-1.3-1.3-3.1-2.1-5-2.3c-2.6-0.3-5,0.6-6.8,2.3l0,0c-1.8,1.6-2.8,3.8-2.8,6.2
			c-0.1,2.4,0.9,4.7,2.6,6.3l0.1,0.1c1.7,1.7,3.9,2.5,6.1,2.5c2.2,0,4.4-0.8,6.1-2.5l0.1-0.1c1.7-1.7,2.6-4,2.5-6.3
			C216.7,640.6,215.7,638.4,213.9,636.8z"/>
	</g>
</g>
<g>
	<g>
		<linearGradient id="SVGID_12_" gradientUnits="userSpaceOnUse" x1="208.1794" y1="508.298" x2="208.1794" y2="490.9806">
			<stop  offset="0" style="stop-color:#E1B82A"/>
			<stop  offset="0.6355" style="stop-color:#E58830"/>
		</linearGradient>
		<path class="st11" d="M210.8,491.4c-3.6-1.1-7.5,0.2-9.7,3.3c-2.4,3.4-2,8.1,0.9,11.1c1.7,1.7,3.9,2.5,6.1,2.5
			c1.7,0,3.5-0.5,5-1.6c2.3-1.6,3.7-4.3,3.7-7.1v0C216.8,495.8,214.4,492.5,210.8,491.4z"/>
	</g>
</g>
<g>
	<g>
		<linearGradient id="SVGID_13_" gradientUnits="userSpaceOnUse" x1="208.036" y1="508.385" x2="208.036" y2="490.9606">
			<stop  offset="0" style="stop-color:#E1B82A"/>
			<stop  offset="0.6355" style="stop-color:#E58830"/>
		</linearGradient>
		<path class="st12" d="M215,494.6l-0.1-0.1c-2.2-3-6.1-4.2-9.7-3.1c-3.5,1.2-5.9,4.5-5.9,8.2v0.1c0,3.2,1.8,6.1,4.6,7.6
			c1.3,0.7,2.7,1,4.1,1c1.7,0,3.4-0.5,4.8-1.5c2-1.3,3.3-3.4,3.7-5.7C217,498.9,216.4,496.5,215,494.6z"/>
	</g>
</g>
<g>
	<g>
		<linearGradient id="SVGID_14_" gradientUnits="userSpaceOnUse" x1="255.442" y1="569.749" x2="255.442" y2="449.8869">
			<stop  offset="0" style="stop-color:#E1B82A"/>
			<stop  offset="0.6355" style="stop-color:#E58830"/>
		</linearGradient>
		<path class="st13" d="M311,467.4c-0.9-2.4-2.8-4.2-5.2-5.1l-33.2-11.9c-0.3-0.1-0.5-0.2-0.8-0.3c-2.4-0.6-4.9-0.2-6.9,1.2
			l-61.5,41.1c0,0,0,0-0.1,0l4.8,7.2l-4.9-7.1c-1.8,1.2-3.1,3-3.6,5.1c-0.3,1.2-0.3,2.4-0.1,3.5c0.2,1.3,0.8,2.6,1.6,3.7l45,61.3
			c1.6,2.2,4.2,3.5,7,3.5c0.2,0,0.4,0,0.6,0c2.9-0.2,5.6-1.9,7-4.5l49.9-90.6C311.7,472.4,311.9,469.7,311,467.4z M252,545
			l-31.6-43.1l50.5-33.8l19.5,7L252,545z"/>
	</g>
</g>
<g>
	<g>
		<linearGradient id="SVGID_15_" gradientUnits="userSpaceOnUse" x1="160.5598" y1="569.748" x2="160.5598" y2="449.8887">
			<stop  offset="0" style="stop-color:#E1B82A"/>
			<stop  offset="0.6355" style="stop-color:#E58830"/>
		</linearGradient>
		<path class="st14" d="M216.5,498.3c-0.4-2.3-1.7-4.4-3.7-5.7l-61.7-41.2c-2-1.3-4.4-1.8-6.7-1.3c-0.4,0.1-0.7,0.2-1,0.3
			l-33.2,11.9c-2.4,0.9-4.3,2.7-5.2,5.1c-0.9,2.4-0.7,5,0.5,7.2l49.9,90.6c1.4,2.6,4.1,4.3,7,4.5c0.2,0,0.4,0,0.6,0
			c2.7,0,5.3-1.3,7-3.5l24.1-32.8c0,0,0-0.1,0.1-0.1l20.9-28.5C216.4,503,216.9,500.6,216.5,498.3z M180.1,523.2
			C180,523.2,180,523.3,180.1,523.2L164,545l-38.4-69.9l19.5-7l50.5,33.8L180.1,523.2z"/>
	</g>
</g>
<g>
	<g>
		<linearGradient id="SVGID_16_" gradientUnits="userSpaceOnUse" x1="331.7323" y1="651.958" x2="331.7323" y2="461.7874">
			<stop  offset="0" style="stop-color:#E1B82A"/>
			<stop  offset="0.6355" style="stop-color:#E58830"/>
		</linearGradient>
		<path class="st15" d="M463.6,615.2l-11.2-67.4c-3.5-21.3-18.3-39-38.5-46.3l-108-39.1c-3.3-1.2-7.1-0.3-9.4,2.4
			c-2.4,2.6-2.9,6.5-1.3,9.6l22.6,45.2l-22.1,0.3c-3,0-5.8,1.6-7.3,4.2c-1.5,2.6-1.6,5.8-0.2,8.4l9.1,17.3l-92.9,85
			c-0.1,0.1-0.2,0.2-0.3,0.3l-1.9,1.9c-2.7,2.7-3.3,6.9-1.5,10.3l0.1,0.1c1.5,2.8,4.4,4.5,7.6,4.5h224.2c9.3,0,18.1-4.1,24.1-11.2
			C462.5,633.7,465.1,624.3,463.6,615.2z M443.3,629.6c-2.7,3.2-6.7,5.1-10.9,5.1H230.1l83.6-76.5c2.9-2.7,3.6-6.9,1.8-10.4
			l-5.6-10.8l21.8-0.3c3,0,5.7-1.6,7.3-4.2c1.5-2.5,1.7-5.7,0.4-8.4l-19-38.2l87.7,31.7c14.4,5.2,24.9,17.8,27.4,32.9l11.2,67.4
			c0,0,0,0,0,0C447.2,622.1,446,626.4,443.3,629.6z"/>
	</g>
</g>
<g>
	<g>
		<linearGradient id="SVGID_17_" gradientUnits="userSpaceOnUse" x1="208.095" y1="651.959" x2="208.095" y2="634.5555">
			<stop  offset="0" style="stop-color:#E1B82A"/>
			<stop  offset="0.6355" style="stop-color:#E58830"/>
		</linearGradient>
		<path class="st16" d="M214,636.9l-0.1-0.1c-3.4-3.1-8.7-3-11.9,0.3l-0.1,0.1c-2.5,2.5-3.2,6.2-1.9,9.4c1.3,3.2,4.5,5.3,8,5.3h0.2
			c3.6,0,6.8-2.2,8.1-5.5C217.6,643.1,216.7,639.3,214,636.9z"/>
	</g>
</g>
<g>
	<g>
		<linearGradient id="SVGID_18_" gradientUnits="userSpaceOnUse" x1="207.9297" y1="651.8671" x2="207.9297" y2="634.4128">
			<stop  offset="0" style="stop-color:#E1B82A"/>
			<stop  offset="0.6355" style="stop-color:#E58830"/>
		</linearGradient>
		<path class="st17" d="M213.7,636.6c-2-1.8-4.6-2.5-7.2-2.1c-2.6,0.4-4.9,2.1-6.1,4.4l-0.1,0.1c-1.8,3.3-1.3,7.5,1.4,10.2l0,0
			c1.7,1.8,4,2.6,6.2,2.6c2.1,0,4.2-0.8,5.8-2.3l0.1-0.1c0.8-0.7,1.4-1.6,1.9-2.5C217.5,643.5,216.6,639.2,213.7,636.6z"/>
	</g>
</g>
<g>
	<g>
		<linearGradient id="SVGID_19_" gradientUnits="userSpaceOnUse" x1="84.3276" y1="651.958" x2="84.3276" y2="461.7864">
			<stop  offset="0" style="stop-color:#E1B82A"/>
			<stop  offset="0.6355" style="stop-color:#E58830"/>
		</linearGradient>
		<path class="st18" d="M214.1,637.2L214.1,637.2c-0.1-0.1-0.1-0.1-0.1-0.1l-1.9-1.9c-0.1-0.1-0.2-0.2-0.3-0.3l-92.9-85l9.1-17.3
			c1.4-2.7,1.3-5.9-0.2-8.4c-1.5-2.6-4.3-4.2-7.3-4.2l-22.1-0.3l22.6-45.2c1.6-3.2,1.1-7-1.3-9.6s-6.1-3.6-9.4-2.4l-108,39.1
			c-20.3,7.3-35,25.1-38.5,46.3l-11.2,67.4c-1.5,9.2,1.1,18.5,7.1,25.6c6,7.1,14.8,11.2,24.1,11.2H208c3.5,0,6.7-2.1,8-5.4
			C217.3,643.4,216.6,639.6,214.1,637.2z M-16.4,634.6c-4.2,0-8.2-1.8-10.9-5.1c-2.7-3.2-3.9-7.4-3.2-11.6l11.2-67.4
			c2.5-15.1,13-27.7,27.4-32.9l87.7-31.7l-19,38.2c-1.3,2.7-1.2,5.8,0.4,8.4c1.5,2.5,4.3,4.1,7.3,4.2l21.8,0.3l-5.6,10.8
			c-1.8,3.5-1.1,7.8,1.8,10.4l83.6,76.5H-16.4z"/>
	</g>
</g>
<g>
	<g>
		<linearGradient id="SVGID_20_" gradientUnits="userSpaceOnUse" x1="208.0494" y1="651.61" x2="208.0494" y2="491.1553">
			<stop  offset="0" style="stop-color:#E1B82A"/>
			<stop  offset="0.6355" style="stop-color:#E58830"/>
		</linearGradient>
		<path class="st19" d="M237.5,530.6c0.6-2.5,0.1-5.1-1.4-7.2L215,494.6c-2.2-3-6.1-4.2-9.7-3c-1.9,0.6-3.5,1.9-4.6,3.5l-20.7,28.1
			c-0.3,0.4-0.6,0.8-0.8,1.3c-1.4,2.8-1.2,6.2,0.6,8.8l8.8,12.6l-9.4,59.1c-0.3,1.9,0,3.8,1,5.5l20.1,36.5c1.5,2.8,4.4,4.5,7.6,4.5
			c3.2,0,6.1-1.7,7.6-4.5l20.2-36.8c0.7-1.3,1.1-2.7,1.1-4.2v0c0-0.5,0-0.9-0.1-1.4l-9.3-58.9l8.7-12.5
			C236.8,532.5,237.2,531.6,237.5,530.6z M208,625l-11.1-20.2l9.5-59.6c0.4-2.2-0.2-4.5-1.4-6.3l-7.3-10.4l10.3-14l10.4,14.2
			l-7.2,10.3c-1.3,1.8-1.8,4.1-1.4,6.3l9.4,59.4L208,625z"/>
	</g>
</g>
</svg>
