<?xml version="1.0" encoding="utf-8"?>
<!-- Generator: Adobe Illustrator 19.0.0, SVG Export Plug-In . SVG Version: 6.00 Build 0)  -->
<svg version="1.1" id="Capa_1" xmlns="http://www.w3.org/2000/svg" xmlns:xlink="http://www.w3.org/1999/xlink" x="0px" y="0px"
	 viewBox="-73 165 464 464" style="enable-background:new -73 165 464 464;" xml:space="preserve">
<style type="text/css">
	.st0{fill:url(#SVGID_1_);}
	.st1{fill:url(#SVGID_2_);}
	.st2{fill:url(#SVGID_3_);}
	.st3{fill:url(#SVGID_4_);}
	.st4{fill:url(#SVGID_5_);}
	.st5{fill:url(#SVGID_6_);}
	.st6{fill:url(#SVGID_7_);}
	.st7{fill:url(#SVGID_8_);}
	.st8{fill:url(#SVGID_9_);}
	.st9{fill:url(#SVGID_10_);}
	.st10{fill:url(#SVGID_11_);}
	.st11{fill:url(#SVGID_12_);}
	.st12{fill:url(#SVGID_13_);}
	.st13{fill:url(#SVGID_14_);}
	.st14{fill:url(#SVGID_15_);}
	.st15{fill:url(#SVGID_16_);}
	.st16{fill:url(#SVGID_17_);}
	.st17{fill:url(#SVGID_18_);}
	.st18{fill:url(#SVGID_19_);}
	.st19{fill:url(#SVGID_20_);}
</style>
<g>
	<g>
		<linearGradient id="SVGID_1_" gradientUnits="userSpaceOnUse" x1="159" y1="607.32" x2="159" y2="186.68">
			<stop  offset="0" style="stop-color:#E1B82A"/>
			<stop  offset="0.6355" style="stop-color:#E58830"/>
		</linearGradient>
		<path class="st0" d="M383,382.1H280.7v-19.8c0-2.9-1.6-5.5-4.1-7L167,293.8v-31.4h21.7v11.9c0,4.4,3.6,8,8,8H262c4.4,0,8-3.6,8-8
			c0-0.9-0.2-1.8-0.5-2.7L263,253l6.6-18.2c1.5-4.2-0.6-8.7-4.8-10.2c-0.9-0.3-1.8-0.5-2.7-0.5h-29.8v-11.6c0-4.4-3.6-8-8-8H167
			v-9.8c0-4.4-3.6-8-8-8s-8,3.6-8,8v99.1L41.4,355.3c-2.5,1.4-4.1,4.1-4.1,7V382H-65c-4.4,0-8,3.6-8,8v209.3c0,4.4,3.6,8,8,8h448
			c4.4,0,8-3.6,8-8V390.1C391,385.7,387.4,382.1,383,382.1z M232.4,254.4l-0.3-0.3v-13.8h18.2l-3.3,10.2c-0.7,1.8-0.7,3.7,0,5.5
			l3.8,10.2h-46.1v-3.9h19.7C228.8,262.4,232.4,258.9,232.4,254.4z M167,220.4h49.4v11.9v14.1H167V220.4z M37.3,591.3H-57V398.1
			h94.3V591.3z M151,591.3h-42V500h42V591.3z M209,591.3h-42V500h42V591.3z M265,591.3h-40V492c0-4.4-3.6-8-8-8H101
			c-4.4,0-8,3.6-8,8v99.4H53v-224l106-59.7L264.7,367l0.3,23V591.3z M375,591.3h-94.3V398.1H375V591.3z"/>
	</g>
</g>
<g>
	<g>
		<linearGradient id="SVGID_2_" gradientUnits="userSpaceOnUse" x1="159" y1="399.1601" x2="159" y2="332.12">
			<stop  offset="0" style="stop-color:#E1B82A"/>
			<stop  offset="0.6355" style="stop-color:#E58830"/>
		</linearGradient>
		<path class="st1" d="M159,332.1c-18.5,0-33.5,15.1-33.5,33.6c0,18.5,15.1,33.5,33.6,33.4s33.5-15.1,33.4-33.6
			C192.5,347.1,177.5,332.1,159,332.1z M159,383.2c-9.7,0-17.5-7.9-17.4-17.6c0-9.6,7.8-17.4,17.4-17.4c9.7,0,17.5,7.9,17.5,17.6
			h0.1C176.6,375.4,168.7,383.2,159,383.2z"/>
	</g>
</g>
<g>
	<g>
		<linearGradient id="SVGID_3_" gradientUnits="userSpaceOnUse" x1="-29.72" y1="447.72" x2="-29.72" y2="415.72">
			<stop  offset="0" style="stop-color:#E1B82A"/>
			<stop  offset="0.6355" style="stop-color:#E58830"/>
		</linearGradient>
		<rect x="-37.7" y="415.7" class="st2" width="16" height="32"/>
	</g>
</g>
<g>
	<g>
		<linearGradient id="SVGID_4_" gradientUnits="userSpaceOnUse" x1="9.72" y1="447.72" x2="9.72" y2="415.72">
			<stop  offset="0" style="stop-color:#E1B82A"/>
			<stop  offset="0.6355" style="stop-color:#E58830"/>
		</linearGradient>
		<rect x="1.7" y="415.7" class="st3" width="16" height="32"/>
	</g>
</g>
<g>
	<g>
		<linearGradient id="SVGID_5_" gradientUnits="userSpaceOnUse" x1="93.32" y1="431.72" x2="93.32" y2="415.72">
			<stop  offset="0" style="stop-color:#E1B82A"/>
			<stop  offset="0.6355" style="stop-color:#E58830"/>
		</linearGradient>
		<rect x="77.3" y="415.7" class="st4" width="32" height="16"/>
	</g>
</g>
<g>
	<g>
		<linearGradient id="SVGID_6_" gradientUnits="userSpaceOnUse" x1="159" y1="431.72" x2="159" y2="415.72">
			<stop  offset="0" style="stop-color:#E1B82A"/>
			<stop  offset="0.6355" style="stop-color:#E58830"/>
		</linearGradient>
		<rect x="143" y="415.7" class="st5" width="32" height="16"/>
	</g>
</g>
<g>
	<g>
		<linearGradient id="SVGID_7_" gradientUnits="userSpaceOnUse" x1="224.68" y1="431.72" x2="224.68" y2="415.72">
			<stop  offset="0" style="stop-color:#E1B82A"/>
			<stop  offset="0.6355" style="stop-color:#E58830"/>
		</linearGradient>
		<rect x="208.7" y="415.7" class="st6" width="32" height="16"/>
	</g>
</g>
<g>
	<g>
		<linearGradient id="SVGID_8_" gradientUnits="userSpaceOnUse" x1="93.32" y1="469" x2="93.32" y2="453">
			<stop  offset="0" style="stop-color:#E1B82A"/>
			<stop  offset="0.6355" style="stop-color:#E58830"/>
		</linearGradient>
		<rect x="77.3" y="453" class="st7" width="32" height="16"/>
	</g>
</g>
<g>
	<g>
		<linearGradient id="SVGID_9_" gradientUnits="userSpaceOnUse" x1="159" y1="469" x2="159" y2="453">
			<stop  offset="0" style="stop-color:#E1B82A"/>
			<stop  offset="0.6355" style="stop-color:#E58830"/>
		</linearGradient>
		<rect x="143" y="453" class="st8" width="32" height="16"/>
	</g>
</g>
<g>
	<g>
		<linearGradient id="SVGID_10_" gradientUnits="userSpaceOnUse" x1="224.68" y1="469" x2="224.68" y2="453">
			<stop  offset="0" style="stop-color:#E1B82A"/>
			<stop  offset="0.6355" style="stop-color:#E58830"/>
		</linearGradient>
		<rect x="208.7" y="453" class="st9" width="32" height="16"/>
	</g>
</g>
<g>
	<g>
		<linearGradient id="SVGID_11_" gradientUnits="userSpaceOnUse" x1="-29.72" y1="510.68" x2="-29.72" y2="478.68">
			<stop  offset="0" style="stop-color:#E1B82A"/>
			<stop  offset="0.6355" style="stop-color:#E58830"/>
		</linearGradient>
		<rect x="-37.7" y="478.7" class="st10" width="16" height="32"/>
	</g>
</g>
<g>
	<g>
		<linearGradient id="SVGID_12_" gradientUnits="userSpaceOnUse" x1="9.72" y1="510.68" x2="9.72" y2="478.68">
			<stop  offset="0" style="stop-color:#E1B82A"/>
			<stop  offset="0.6355" style="stop-color:#E58830"/>
		</linearGradient>
		<rect x="1.7" y="478.7" class="st11" width="16" height="32"/>
	</g>
</g>
<g>
	<g>
		<linearGradient id="SVGID_13_" gradientUnits="userSpaceOnUse" x1="-29.72" y1="573.72" x2="-29.72" y2="541.72">
			<stop  offset="0" style="stop-color:#E1B82A"/>
			<stop  offset="0.6355" style="stop-color:#E58830"/>
		</linearGradient>
		<rect x="-37.7" y="541.7" class="st12" width="16" height="32"/>
	</g>
</g>
<g>
	<g>
		<linearGradient id="SVGID_14_" gradientUnits="userSpaceOnUse" x1="9.72" y1="573.72" x2="9.72" y2="541.72">
			<stop  offset="0" style="stop-color:#E1B82A"/>
			<stop  offset="0.6355" style="stop-color:#E58830"/>
		</linearGradient>
		<rect x="1.7" y="541.7" class="st13" width="16" height="32"/>
	</g>
</g>
<g>
	<g>
		<linearGradient id="SVGID_15_" gradientUnits="userSpaceOnUse" x1="308.28" y1="447.72" x2="308.28" y2="415.72">
			<stop  offset="0" style="stop-color:#E1B82A"/>
			<stop  offset="0.6355" style="stop-color:#E58830"/>
		</linearGradient>
		<rect x="300.3" y="415.7" class="st14" width="16" height="32"/>
	</g>
</g>
<g>
	<g>
		<linearGradient id="SVGID_16_" gradientUnits="userSpaceOnUse" x1="347.72" y1="447.72" x2="347.72" y2="415.72">
			<stop  offset="0" style="stop-color:#E1B82A"/>
			<stop  offset="0.6355" style="stop-color:#E58830"/>
		</linearGradient>
		<rect x="339.7" y="415.7" class="st15" width="16" height="32"/>
	</g>
</g>
<g>
	<g>
		<linearGradient id="SVGID_17_" gradientUnits="userSpaceOnUse" x1="308.28" y1="510.68" x2="308.28" y2="478.68">
			<stop  offset="0" style="stop-color:#E1B82A"/>
			<stop  offset="0.6355" style="stop-color:#E58830"/>
		</linearGradient>
		<rect x="300.3" y="478.7" class="st16" width="16" height="32"/>
	</g>
</g>
<g>
	<g>
		<linearGradient id="SVGID_18_" gradientUnits="userSpaceOnUse" x1="347.72" y1="510.68" x2="347.72" y2="478.68">
			<stop  offset="0" style="stop-color:#E1B82A"/>
			<stop  offset="0.6355" style="stop-color:#E58830"/>
		</linearGradient>
		<rect x="339.7" y="478.7" class="st17" width="16" height="32"/>
	</g>
</g>
<g>
	<g>
		<linearGradient id="SVGID_19_" gradientUnits="userSpaceOnUse" x1="308.28" y1="573.72" x2="308.28" y2="541.72">
			<stop  offset="0" style="stop-color:#E1B82A"/>
			<stop  offset="0.6355" style="stop-color:#E58830"/>
		</linearGradient>
		<rect x="300.3" y="541.7" class="st18" width="16" height="32"/>
	</g>
</g>
<g>
	<g>
		<linearGradient id="SVGID_20_" gradientUnits="userSpaceOnUse" x1="347.72" y1="573.72" x2="347.72" y2="541.72">
			<stop  offset="0" style="stop-color:#E1B82A"/>
			<stop  offset="0.6355" style="stop-color:#E58830"/>
		</linearGradient>
		<rect x="339.7" y="541.7" class="st19" width="16" height="32"/>
	</g>
</g>
</svg>
